<mxfile host="app.diagrams.net" modified="2023-10-24T23:54:39.936Z" agent="Mozilla/5.0 (Windows NT 10.0; Win64; x64) AppleWebKit/537.36 (KHTML, like Gecko) Chrome/118.0.0.0 Safari/537.36" etag="8crainfVdj72BATzJTOk" version="22.0.6" type="device" pages="5">
  <diagram id="TG_TXNl1M8jXW-oi1JhJ" name="C4 Model - Context">
    <mxGraphModel dx="1434" dy="758" grid="1" gridSize="10" guides="1" tooltips="1" connect="1" arrows="1" fold="1" page="1" pageScale="1" pageWidth="827" pageHeight="1169" math="0" shadow="0">
      <root>
        <mxCell id="0" />
        <mxCell id="1" parent="0" />
        <mxCell id="LimpnrA7VbDUIds8i-Sr-5" style="edgeStyle=orthogonalEdgeStyle;rounded=0;orthogonalLoop=1;jettySize=auto;html=1;" parent="1" source="LimpnrA7VbDUIds8i-Sr-1" target="LimpnrA7VbDUIds8i-Sr-2" edge="1">
          <mxGeometry relative="1" as="geometry" />
        </mxCell>
        <mxCell id="LimpnrA7VbDUIds8i-Sr-15" value="Manages files and users access roles" style="edgeLabel;html=1;align=center;verticalAlign=middle;resizable=0;points=[];" parent="LimpnrA7VbDUIds8i-Sr-5" vertex="1" connectable="0">
          <mxGeometry x="-0.2581" y="-3" relative="1" as="geometry">
            <mxPoint x="1" as="offset" />
          </mxGeometry>
        </mxCell>
        <object placeholders="1" c4Name="User" c4Type="Person" c4Description="A person which can manages files" label="&lt;font style=&quot;font-size: 16px&quot;&gt;&lt;b&gt;%c4Name%&lt;/b&gt;&lt;/font&gt;&lt;div&gt;[%c4Type%]&lt;/div&gt;&lt;br&gt;&lt;div&gt;&lt;font style=&quot;font-size: 11px&quot;&gt;&lt;font color=&quot;#cccccc&quot;&gt;%c4Description%&lt;/font&gt;&lt;/div&gt;" id="LimpnrA7VbDUIds8i-Sr-1">
          <mxCell style="html=1;fontSize=11;dashed=0;whitespace=wrap;fillColor=#083F75;strokeColor=#06315C;fontColor=#ffffff;shape=mxgraph.c4.person2;align=center;metaEdit=1;points=[[0.5,0,0],[1,0.5,0],[1,0.75,0],[0.75,1,0],[0.5,1,0],[0.25,1,0],[0,0.75,0],[0,0.5,0]];resizable=0;" parent="1" vertex="1">
            <mxGeometry x="130" y="20" width="200" height="180" as="geometry" />
          </mxCell>
        </object>
        <mxCell id="LimpnrA7VbDUIds8i-Sr-9" style="edgeStyle=orthogonalEdgeStyle;rounded=0;orthogonalLoop=1;jettySize=auto;html=1;entryX=0;entryY=0.5;entryDx=0;entryDy=0;entryPerimeter=0;" parent="1" source="LimpnrA7VbDUIds8i-Sr-2" target="LimpnrA7VbDUIds8i-Sr-3" edge="1">
          <mxGeometry relative="1" as="geometry" />
        </mxCell>
        <mxCell id="LimpnrA7VbDUIds8i-Sr-11" value="Sends customers files" style="edgeLabel;html=1;align=center;verticalAlign=middle;resizable=0;points=[];" parent="LimpnrA7VbDUIds8i-Sr-9" vertex="1" connectable="0">
          <mxGeometry x="-0.332" y="3" relative="1" as="geometry">
            <mxPoint as="offset" />
          </mxGeometry>
        </mxCell>
        <mxCell id="LimpnrA7VbDUIds8i-Sr-10" style="edgeStyle=orthogonalEdgeStyle;rounded=0;orthogonalLoop=1;jettySize=auto;html=1;entryX=0.5;entryY=0;entryDx=0;entryDy=0;entryPerimeter=0;" parent="1" source="LimpnrA7VbDUIds8i-Sr-2" target="LimpnrA7VbDUIds8i-Sr-7" edge="1">
          <mxGeometry relative="1" as="geometry" />
        </mxCell>
        <mxCell id="LimpnrA7VbDUIds8i-Sr-12" value="Sends users files access" style="edgeLabel;html=1;align=center;verticalAlign=middle;resizable=0;points=[];" parent="LimpnrA7VbDUIds8i-Sr-10" vertex="1" connectable="0">
          <mxGeometry x="-0.2375" y="-1" relative="1" as="geometry">
            <mxPoint as="offset" />
          </mxGeometry>
        </mxCell>
        <object placeholders="1" c4Name="Arquiva-se Platform" c4Type="Software System" c4Description="Storages files and manages theirs access" label="&lt;font style=&quot;font-size: 16px&quot;&gt;&lt;b&gt;%c4Name%&lt;/b&gt;&lt;/font&gt;&lt;div&gt;[%c4Type%]&lt;/div&gt;&lt;br&gt;&lt;div&gt;&lt;font style=&quot;font-size: 11px&quot;&gt;&lt;font color=&quot;#cccccc&quot;&gt;%c4Description%&lt;/font&gt;&lt;/div&gt;" id="LimpnrA7VbDUIds8i-Sr-2">
          <mxCell style="rounded=1;whiteSpace=wrap;html=1;labelBackgroundColor=none;fillColor=#1061B0;fontColor=#ffffff;align=center;arcSize=10;strokeColor=#0D5091;metaEdit=1;resizable=0;points=[[0.25,0,0],[0.5,0,0],[0.75,0,0],[1,0.25,0],[1,0.5,0],[1,0.75,0],[0.75,1,0],[0.5,1,0],[0.25,1,0],[0,0.75,0],[0,0.5,0],[0,0.25,0]];" parent="1" vertex="1">
            <mxGeometry x="530" y="300" width="240" height="120" as="geometry" />
          </mxCell>
        </object>
        <object placeholders="1" c4Name="Files Storage" c4Type="Software System" c4Description="Stores customer files" label="&lt;font style=&quot;font-size: 16px&quot;&gt;&lt;b&gt;%c4Name%&lt;/b&gt;&lt;/font&gt;&lt;div&gt;[%c4Type%]&lt;/div&gt;&lt;br&gt;&lt;div&gt;&lt;font style=&quot;font-size: 11px&quot;&gt;&lt;font color=&quot;#cccccc&quot;&gt;%c4Description%&lt;/font&gt;&lt;/div&gt;" id="LimpnrA7VbDUIds8i-Sr-3">
          <mxCell style="rounded=1;whiteSpace=wrap;html=1;labelBackgroundColor=none;fillColor=#8C8496;fontColor=#ffffff;align=center;arcSize=10;strokeColor=#736782;metaEdit=1;resizable=0;points=[[0.25,0,0],[0.5,0,0],[0.75,0,0],[1,0.25,0],[1,0.5,0],[1,0.75,0],[0.75,1,0],[0.5,1,0],[0.25,1,0],[0,0.75,0],[0,0.5,0],[0,0.25,0]];" parent="1" vertex="1">
            <mxGeometry x="980" y="300" width="240" height="120" as="geometry" />
          </mxCell>
        </object>
        <object placeholders="1" c4Name="Identity and Access Management System" c4Type="Software System" c4Description="Manages users and roles" label="&lt;font style=&quot;font-size: 16px&quot;&gt;&lt;b&gt;%c4Name%&lt;/b&gt;&lt;/font&gt;&lt;div&gt;[%c4Type%]&lt;/div&gt;&lt;br&gt;&lt;div&gt;&lt;font style=&quot;font-size: 11px&quot;&gt;&lt;font color=&quot;#cccccc&quot;&gt;%c4Description%&lt;/font&gt;&lt;/div&gt;" id="LimpnrA7VbDUIds8i-Sr-7">
          <mxCell style="rounded=1;whiteSpace=wrap;html=1;labelBackgroundColor=none;fillColor=#8C8496;fontColor=#ffffff;align=center;arcSize=10;strokeColor=#736782;metaEdit=1;resizable=0;points=[[0.25,0,0],[0.5,0,0],[0.75,0,0],[1,0.25,0],[1,0.5,0],[1,0.75,0],[0.75,1,0],[0.5,1,0],[0.25,1,0],[0,0.75,0],[0,0.5,0],[0,0.25,0]];" parent="1" vertex="1">
            <mxGeometry x="530" y="570" width="240" height="120" as="geometry" />
          </mxCell>
        </object>
      </root>
    </mxGraphModel>
  </diagram>
  <diagram id="LGe_yTzNYQLzAKkN-p3z" name="C4 Model - Conteiners">
    <mxGraphModel dx="2261" dy="758" grid="1" gridSize="10" guides="1" tooltips="1" connect="1" arrows="1" fold="1" page="1" pageScale="1" pageWidth="827" pageHeight="1169" math="0" shadow="0">
      <root>
        <mxCell id="0" />
        <mxCell id="1" parent="0" />
        <mxCell id="2RP8Z6aRjcvruNIcd7D2-19" value="" style="rounded=0;whiteSpace=wrap;html=1;" parent="1" vertex="1">
          <mxGeometry x="205" y="470" width="785" height="310" as="geometry" />
        </mxCell>
        <mxCell id="2RP8Z6aRjcvruNIcd7D2-30" value="" style="rounded=0;whiteSpace=wrap;html=1;" parent="1" vertex="1">
          <mxGeometry x="215" y="480" width="765" height="140" as="geometry" />
        </mxCell>
        <mxCell id="2RP8Z6aRjcvruNIcd7D2-20" style="edgeStyle=orthogonalEdgeStyle;rounded=0;orthogonalLoop=1;jettySize=auto;html=1;entryX=0.5;entryY=1;entryDx=0;entryDy=0;entryPerimeter=0;" parent="1" source="2RP8Z6aRjcvruNIcd7D2-19" target="2RP8Z6aRjcvruNIcd7D2-8" edge="1">
          <mxGeometry relative="1" as="geometry" />
        </mxCell>
        <mxCell id="2RP8Z6aRjcvruNIcd7D2-21" value="Authorizes requests" style="edgeLabel;html=1;align=center;verticalAlign=middle;resizable=0;points=[];" parent="2RP8Z6aRjcvruNIcd7D2-20" vertex="1" connectable="0">
          <mxGeometry x="-0.1273" y="1" relative="1" as="geometry">
            <mxPoint as="offset" />
          </mxGeometry>
        </mxCell>
        <mxCell id="2RP8Z6aRjcvruNIcd7D2-22" style="edgeStyle=orthogonalEdgeStyle;rounded=0;orthogonalLoop=1;jettySize=auto;html=1;exitX=0.5;exitY=1;exitDx=0;exitDy=0;" parent="1" source="2RP8Z6aRjcvruNIcd7D2-19" target="2RP8Z6aRjcvruNIcd7D2-18" edge="1">
          <mxGeometry relative="1" as="geometry" />
        </mxCell>
        <object placeholders="1" c4Name="User" c4Type="Person" c4Description="A person which can manages files" label="&lt;font style=&quot;font-size: 16px&quot;&gt;&lt;b&gt;%c4Name%&lt;/b&gt;&lt;/font&gt;&lt;div&gt;[%c4Type%]&lt;/div&gt;&lt;br&gt;&lt;div&gt;&lt;font style=&quot;font-size: 11px&quot;&gt;&lt;font color=&quot;#cccccc&quot;&gt;%c4Description%&lt;/font&gt;&lt;/div&gt;" id="2RP8Z6aRjcvruNIcd7D2-1">
          <mxCell style="html=1;fontSize=11;dashed=0;whitespace=wrap;fillColor=#083F75;strokeColor=#06315C;fontColor=#ffffff;shape=mxgraph.c4.person2;align=center;metaEdit=1;points=[[0.5,0,0],[1,0.5,0],[1,0.75,0],[0.75,1,0],[0.5,1,0],[0.25,1,0],[0,0.75,0],[0,0.5,0]];resizable=0;" parent="1" vertex="1">
            <mxGeometry x="94" y="30" width="200" height="180" as="geometry" />
          </mxCell>
        </object>
        <object placeholders="1" c4Name="Container diagram for Files Management &#xa;System" c4Type="ContainerScopeBoundary" c4Application="Arquive-se" label="&lt;font style=&quot;font-size: 16px&quot;&gt;&lt;b&gt;&lt;div style=&quot;text-align: left&quot;&gt;%c4Name%&lt;/div&gt;&lt;/b&gt;&lt;/font&gt;&lt;div style=&quot;text-align: left&quot;&gt;[%c4Application%]&lt;/div&gt;" id="2RP8Z6aRjcvruNIcd7D2-2">
          <mxCell style="rounded=1;fontSize=11;whiteSpace=wrap;html=1;dashed=1;arcSize=20;fillColor=none;strokeColor=#666666;fontColor=#333333;labelBackgroundColor=none;align=left;verticalAlign=bottom;labelBorderColor=none;spacingTop=0;spacing=10;dashPattern=8 4;metaEdit=1;rotatable=0;perimeter=rectanglePerimeter;noLabel=0;labelPadding=0;allowArrows=0;connectable=0;expand=0;recursiveResize=0;editable=1;pointerEvents=0;absoluteArcSize=1;points=[[0.25,0,0],[0.5,0,0],[0.75,0,0],[1,0.25,0],[1,0.5,0],[1,0.75,0],[0.75,1,0],[0.5,1,0],[0.25,1,0],[0,0.75,0],[0,0.5,0],[0,0.25,0]];" parent="1" vertex="1">
            <mxGeometry x="64" y="260" width="946" height="680" as="geometry" />
          </mxCell>
        </object>
        <object placeholders="1" c4Type="Single-Page Application" c4Container="Container" c4Technology="Blazor WebAssembly App" c4Description="Delivers front-end application to allow users interactions" label="&lt;font style=&quot;font-size: 16px&quot;&gt;&lt;b&gt;%c4Type%&lt;/font&gt;&lt;div&gt;[%c4Container%:&amp;nbsp;%c4Technology%]&lt;/div&gt;&lt;br&gt;&lt;div&gt;&lt;font style=&quot;font-size: 11px&quot;&gt;&lt;font color=&quot;#E6E6E6&quot;&gt;%c4Description%&lt;/font&gt;&lt;/div&gt;" id="2RP8Z6aRjcvruNIcd7D2-3">
          <mxCell style="shape=mxgraph.c4.webBrowserContainer2;whiteSpace=wrap;html=1;boundedLbl=1;rounded=0;labelBackgroundColor=none;strokeColor=#118ACD;fillColor=#23A2D9;strokeColor=#118ACD;strokeColor2=#0E7DAD;fontSize=12;fontColor=#ffffff;align=center;metaEdit=1;points=[[0.5,0,0],[1,0.25,0],[1,0.5,0],[1,0.75,0],[0.5,1,0],[0,0.75,0],[0,0.5,0],[0,0.25,0]];resizable=0;" parent="1" vertex="1">
            <mxGeometry x="74" y="280" width="240" height="160" as="geometry" />
          </mxCell>
        </object>
        <mxCell id="2RP8Z6aRjcvruNIcd7D2-26" style="edgeStyle=orthogonalEdgeStyle;rounded=0;orthogonalLoop=1;jettySize=auto;html=1;exitX=0.5;exitY=1;exitDx=0;exitDy=0;exitPerimeter=0;entryX=0.5;entryY=0;entryDx=0;entryDy=0;" parent="1" source="2RP8Z6aRjcvruNIcd7D2-4" target="2RP8Z6aRjcvruNIcd7D2-19" edge="1">
          <mxGeometry relative="1" as="geometry" />
        </mxCell>
        <object placeholders="1" c4Name="API Gateway" c4Type="Container" c4Technology="Azure API Management" c4Description="Manages Serverless functions routing" label="&lt;font style=&quot;font-size: 16px&quot;&gt;&lt;b&gt;%c4Name%&lt;/b&gt;&lt;/font&gt;&lt;div&gt;[%c4Type%: %c4Technology%]&lt;/div&gt;&lt;br&gt;&lt;div&gt;&lt;font style=&quot;font-size: 11px&quot;&gt;&lt;font color=&quot;#E6E6E6&quot;&gt;%c4Description%&lt;/font&gt;&lt;/div&gt;" id="2RP8Z6aRjcvruNIcd7D2-4">
          <mxCell style="rounded=1;whiteSpace=wrap;html=1;fontSize=11;labelBackgroundColor=none;fillColor=#23A2D9;fontColor=#ffffff;align=center;arcSize=10;strokeColor=#0E7DAD;metaEdit=1;resizable=0;points=[[0.25,0,0],[0.5,0,0],[0.75,0,0],[1,0.25,0],[1,0.5,0],[1,0.75,0],[0.75,1,0],[0.5,1,0],[0.25,1,0],[0,0.75,0],[0,0.5,0],[0,0.25,0]];" parent="1" vertex="1">
            <mxGeometry x="477.5" y="300" width="240" height="120" as="geometry" />
          </mxCell>
        </object>
        <object placeholders="1" c4Type="Relationship" c4Technology="e.g. JSON/HTTP" c4Description="e.g. Makes API calls" label="&lt;div style=&quot;text-align: left&quot;&gt;&lt;div style=&quot;text-align: center&quot;&gt;&lt;b&gt;%c4Description%&lt;/b&gt;&lt;/div&gt;&lt;div style=&quot;text-align: center&quot;&gt;[%c4Technology%]&lt;/div&gt;&lt;/div&gt;" id="2RP8Z6aRjcvruNIcd7D2-7">
          <mxCell style="endArrow=blockThin;html=1;fontSize=10;fontColor=#404040;strokeWidth=1;endFill=1;strokeColor=#828282;elbow=vertical;metaEdit=1;endSize=14;startSize=14;jumpStyle=arc;jumpSize=16;rounded=0;edgeStyle=orthogonalEdgeStyle;exitX=1;exitY=0.5;exitDx=0;exitDy=0;exitPerimeter=0;entryX=0;entryY=0.5;entryDx=0;entryDy=0;entryPerimeter=0;" parent="1" source="2RP8Z6aRjcvruNIcd7D2-3" target="2RP8Z6aRjcvruNIcd7D2-4" edge="1">
            <mxGeometry width="240" relative="1" as="geometry">
              <mxPoint x="370" y="470" as="sourcePoint" />
              <mxPoint x="460" y="360" as="targetPoint" />
            </mxGeometry>
          </mxCell>
        </object>
        <object placeholders="1" c4Name="Azure Active Directory" c4Type="Software System" c4Description="Identity and Access Management" label="&lt;font style=&quot;font-size: 16px&quot;&gt;&lt;b&gt;%c4Name%&lt;/b&gt;&lt;/font&gt;&lt;div&gt;[%c4Type%]&lt;/div&gt;&lt;br&gt;&lt;div&gt;&lt;font style=&quot;font-size: 11px&quot;&gt;&lt;font color=&quot;#cccccc&quot;&gt;%c4Description%&lt;/font&gt;&lt;/div&gt;" id="2RP8Z6aRjcvruNIcd7D2-8">
          <mxCell style="rounded=1;whiteSpace=wrap;html=1;labelBackgroundColor=none;fillColor=#8C8496;fontColor=#ffffff;align=center;arcSize=10;strokeColor=#736782;metaEdit=1;resizable=0;points=[[0.25,0,0],[0.5,0,0],[0.75,0,0],[1,0.25,0],[1,0.5,0],[1,0.75,0],[0.75,1,0],[0.5,1,0],[0.25,1,0],[0,0.75,0],[0,0.5,0],[0,0.25,0]];" parent="1" vertex="1">
            <mxGeometry x="-310" y="270" width="240" height="120" as="geometry" />
          </mxCell>
        </object>
        <object placeholders="1" c4Type="Relationship" c4Description="Authenticates themselves" label="&lt;div style=&quot;text-align: left&quot;&gt;&lt;div style=&quot;text-align: center&quot;&gt;&lt;b&gt;%c4Description%&lt;/b&gt;&lt;/div&gt;" id="2RP8Z6aRjcvruNIcd7D2-10">
          <mxCell style="endArrow=blockThin;html=1;fontSize=10;fontColor=#404040;strokeWidth=1;endFill=1;strokeColor=#828282;elbow=vertical;metaEdit=1;endSize=14;startSize=14;jumpStyle=arc;jumpSize=16;rounded=0;edgeStyle=orthogonalEdgeStyle;exitX=0;exitY=0.75;exitDx=0;exitDy=0;exitPerimeter=0;entryX=0.5;entryY=0;entryDx=0;entryDy=0;entryPerimeter=0;" parent="1" source="2RP8Z6aRjcvruNIcd7D2-1" target="2RP8Z6aRjcvruNIcd7D2-8" edge="1">
            <mxGeometry width="240" relative="1" as="geometry">
              <mxPoint x="290" y="380" as="sourcePoint" />
              <mxPoint x="530" y="380" as="targetPoint" />
              <Array as="points">
                <mxPoint x="-190" y="175" />
              </Array>
            </mxGeometry>
          </mxCell>
        </object>
        <object placeholders="1" c4Type="Relationship" c4Description="Uses" label="&lt;div style=&quot;text-align: left&quot;&gt;&lt;div style=&quot;text-align: center&quot;&gt;&lt;b&gt;%c4Description%&lt;/b&gt;&lt;/div&gt;" id="2RP8Z6aRjcvruNIcd7D2-11">
          <mxCell style="endArrow=blockThin;html=1;fontSize=10;fontColor=#404040;strokeWidth=1;endFill=1;strokeColor=#828282;elbow=vertical;metaEdit=1;endSize=14;startSize=14;jumpStyle=arc;jumpSize=16;rounded=0;edgeStyle=orthogonalEdgeStyle;exitX=0.5;exitY=1;exitDx=0;exitDy=0;exitPerimeter=0;entryX=0.5;entryY=0;entryDx=0;entryDy=0;entryPerimeter=0;" parent="1" source="2RP8Z6aRjcvruNIcd7D2-1" target="2RP8Z6aRjcvruNIcd7D2-3" edge="1">
            <mxGeometry width="240" relative="1" as="geometry">
              <mxPoint x="290" y="380" as="sourcePoint" />
              <mxPoint x="530" y="380" as="targetPoint" />
            </mxGeometry>
          </mxCell>
        </object>
        <object placeholders="1" c4Name="Get file data by Id" c4Type="Container" c4Technology="Azure Function" c4Description="Reads file data using its id as a filter" label="&lt;font style=&quot;font-size: 16px&quot;&gt;&lt;b&gt;%c4Name%&lt;/b&gt;&lt;/font&gt;&lt;div&gt;[%c4Type%: %c4Technology%]&lt;/div&gt;&lt;br&gt;&lt;div&gt;&lt;font style=&quot;font-size: 11px&quot;&gt;&lt;font color=&quot;#E6E6E6&quot;&gt;%c4Description%&lt;/font&gt;&lt;/div&gt;" id="2RP8Z6aRjcvruNIcd7D2-12">
          <mxCell style="rounded=1;whiteSpace=wrap;html=1;fontSize=11;labelBackgroundColor=none;fillColor=#23A2D9;fontColor=#ffffff;align=center;arcSize=10;strokeColor=#0E7DAD;metaEdit=1;resizable=0;points=[[0.25,0,0],[0.5,0,0],[0.75,0,0],[1,0.25,0],[1,0.5,0],[1,0.75,0],[0.75,1,0],[0.5,1,0],[0.25,1,0],[0,0.75,0],[0,0.5,0],[0,0.25,0]];" parent="1" vertex="1">
            <mxGeometry x="225" y="630" width="240" height="120" as="geometry" />
          </mxCell>
        </object>
        <object placeholders="1" c4Name="Download file stream by Id" c4Type="Container" c4Technology="Azure Function" c4Description="Retrieves file stream using its Id as filter" label="&lt;font style=&quot;font-size: 16px&quot;&gt;&lt;b&gt;%c4Name%&lt;/b&gt;&lt;/font&gt;&lt;div&gt;[%c4Type%: %c4Technology%]&lt;/div&gt;&lt;br&gt;&lt;div&gt;&lt;font style=&quot;font-size: 11px&quot;&gt;&lt;font color=&quot;#E6E6E6&quot;&gt;%c4Description%&lt;/font&gt;&lt;/div&gt;" id="2RP8Z6aRjcvruNIcd7D2-13">
          <mxCell style="rounded=1;whiteSpace=wrap;html=1;fontSize=11;labelBackgroundColor=none;fillColor=#23A2D9;fontColor=#ffffff;align=center;arcSize=10;strokeColor=#0E7DAD;metaEdit=1;resizable=0;points=[[0.25,0,0],[0.5,0,0],[0.75,0,0],[1,0.25,0],[1,0.5,0],[1,0.75,0],[0.75,1,0],[0.5,1,0],[0.25,1,0],[0,0.75,0],[0,0.5,0],[0,0.25,0]];" parent="1" vertex="1">
            <mxGeometry x="477.5" y="490" width="240" height="120" as="geometry" />
          </mxCell>
        </object>
        <object placeholders="1" c4Name="Upload file" c4Type="Container" c4Technology="Azure Function" c4Description="Uploads a new file to users storage account" label="&lt;font style=&quot;font-size: 16px&quot;&gt;&lt;b&gt;%c4Name%&lt;/b&gt;&lt;/font&gt;&lt;div&gt;[%c4Type%: %c4Technology%]&lt;/div&gt;&lt;br&gt;&lt;div&gt;&lt;font style=&quot;font-size: 11px&quot;&gt;&lt;font color=&quot;#E6E6E6&quot;&gt;%c4Description%&lt;/font&gt;&lt;/div&gt;" id="2RP8Z6aRjcvruNIcd7D2-14">
          <mxCell style="rounded=1;whiteSpace=wrap;html=1;fontSize=11;labelBackgroundColor=none;fillColor=#23A2D9;fontColor=#ffffff;align=center;arcSize=10;strokeColor=#0E7DAD;metaEdit=1;resizable=0;points=[[0.25,0,0],[0.5,0,0],[0.75,0,0],[1,0.25,0],[1,0.5,0],[1,0.75,0],[0.75,1,0],[0.5,1,0],[0.25,1,0],[0,0.75,0],[0,0.5,0],[0,0.25,0]];" parent="1" vertex="1">
            <mxGeometry x="225" y="490" width="240" height="120" as="geometry" />
          </mxCell>
        </object>
        <object placeholders="1" c4Type="Banco de dados" c4Container="Database" c4Technology="Azure CosmosDB" c4Description="No-SQL Database" label="&lt;font style=&quot;font-size: 16px&quot;&gt;&lt;b&gt;%c4Type%&lt;/font&gt;&lt;div&gt;[%c4Container%:&amp;nbsp;%c4Technology%]&lt;/div&gt;&lt;br&gt;&lt;div&gt;&lt;font style=&quot;font-size: 11px&quot;&gt;&lt;font color=&quot;#E6E6E6&quot;&gt;%c4Description%&lt;/font&gt;&lt;/div&gt;" id="2RP8Z6aRjcvruNIcd7D2-18">
          <mxCell style="shape=cylinder3;size=15;whiteSpace=wrap;html=1;boundedLbl=1;rounded=0;labelBackgroundColor=none;fillColor=#23A2D9;fontSize=12;fontColor=#ffffff;align=center;strokeColor=#0E7DAD;metaEdit=1;points=[[0.5,0,0],[1,0.25,0],[1,0.5,0],[1,0.75,0],[0.5,1,0],[0,0.75,0],[0,0.5,0],[0,0.25,0]];resizable=0;" parent="1" vertex="1">
            <mxGeometry x="477.5" y="810" width="240" height="120" as="geometry" />
          </mxCell>
        </object>
        <object placeholders="1" c4Name="Search files" c4Type="Container" c4Technology="Azure Function" c4Description="Searches files which attends request filters" label="&lt;font style=&quot;font-size: 16px&quot;&gt;&lt;b&gt;%c4Name%&lt;/b&gt;&lt;/font&gt;&lt;div&gt;[%c4Type%: %c4Technology%]&lt;/div&gt;&lt;br&gt;&lt;div&gt;&lt;font style=&quot;font-size: 11px&quot;&gt;&lt;font color=&quot;#E6E6E6&quot;&gt;%c4Description%&lt;/font&gt;&lt;/div&gt;" id="2RP8Z6aRjcvruNIcd7D2-23">
          <mxCell style="rounded=1;whiteSpace=wrap;html=1;fontSize=11;labelBackgroundColor=none;fillColor=#23A2D9;fontColor=#ffffff;align=center;arcSize=10;strokeColor=#0E7DAD;metaEdit=1;resizable=0;points=[[0.25,0,0],[0.5,0,0],[0.75,0,0],[1,0.25,0],[1,0.5,0],[1,0.75,0],[0.75,1,0],[0.5,1,0],[0.25,1,0],[0,0.75,0],[0,0.5,0],[0,0.25,0]];" parent="1" vertex="1">
            <mxGeometry x="480" y="630" width="240" height="120" as="geometry" />
          </mxCell>
        </object>
        <object placeholders="1" c4Name="Share file" c4Type="Container" c4Technology="Azure Function" c4Description="Creates a temporary link allowing file sharing" label="&lt;font style=&quot;font-size: 16px&quot;&gt;&lt;b&gt;%c4Name%&lt;/b&gt;&lt;/font&gt;&lt;div&gt;[%c4Type%: %c4Technology%]&lt;/div&gt;&lt;br&gt;&lt;div&gt;&lt;font style=&quot;font-size: 11px&quot;&gt;&lt;font color=&quot;#E6E6E6&quot;&gt;%c4Description%&lt;/font&gt;&lt;/div&gt;" id="2RP8Z6aRjcvruNIcd7D2-27">
          <mxCell style="rounded=1;whiteSpace=wrap;html=1;fontSize=11;labelBackgroundColor=none;fillColor=#23A2D9;fontColor=#ffffff;align=center;arcSize=10;strokeColor=#0E7DAD;metaEdit=1;resizable=0;points=[[0.25,0,0],[0.5,0,0],[0.75,0,0],[1,0.25,0],[1,0.5,0],[1,0.75,0],[0.75,1,0],[0.5,1,0],[0.25,1,0],[0,0.75,0],[0,0.5,0],[0,0.25,0]];" parent="1" vertex="1">
            <mxGeometry x="730" y="490" width="240" height="120" as="geometry" />
          </mxCell>
        </object>
        <mxCell id="2RP8Z6aRjcvruNIcd7D2-28" value="Azure Functions" style="text;html=1;strokeColor=none;fillColor=none;align=center;verticalAlign=middle;whiteSpace=wrap;rounded=0;" parent="1" vertex="1">
          <mxGeometry x="205" y="750" width="155" height="30" as="geometry" />
        </mxCell>
        <object placeholders="1" c4Name="Azure Blob Storage" c4Type="Software System" c4Description="File Storage Management" label="&lt;font style=&quot;font-size: 16px&quot;&gt;&lt;b&gt;%c4Name%&lt;/b&gt;&lt;/font&gt;&lt;div&gt;[%c4Type%]&lt;/div&gt;&lt;br&gt;&lt;div&gt;&lt;font style=&quot;font-size: 11px&quot;&gt;&lt;font color=&quot;#cccccc&quot;&gt;%c4Description%&lt;/font&gt;&lt;/div&gt;" id="2RP8Z6aRjcvruNIcd7D2-31">
          <mxCell style="rounded=1;whiteSpace=wrap;html=1;labelBackgroundColor=none;fillColor=#8C8496;fontColor=#ffffff;align=center;arcSize=10;strokeColor=#736782;metaEdit=1;resizable=0;points=[[0.25,0,0],[0.5,0,0],[0.75,0,0],[1,0.25,0],[1,0.5,0],[1,0.75,0],[0.75,1,0],[0.5,1,0],[0.25,1,0],[0,0.75,0],[0,0.5,0],[0,0.25,0]];" parent="1" vertex="1">
            <mxGeometry x="760" y="100" width="240" height="120" as="geometry" />
          </mxCell>
        </object>
        <object placeholders="1" c4Type="Relationship" id="2RP8Z6aRjcvruNIcd7D2-33">
          <mxCell style="endArrow=blockThin;html=1;fontSize=10;fontColor=#404040;strokeWidth=1;endFill=1;strokeColor=#828282;elbow=vertical;metaEdit=1;endSize=14;startSize=14;jumpStyle=arc;jumpSize=16;rounded=0;edgeStyle=orthogonalEdgeStyle;exitX=0.75;exitY=0;exitDx=0;exitDy=0;entryX=0.5;entryY=1;entryDx=0;entryDy=0;entryPerimeter=0;" parent="1" source="2RP8Z6aRjcvruNIcd7D2-30" target="2RP8Z6aRjcvruNIcd7D2-31" edge="1">
            <mxGeometry width="240" relative="1" as="geometry">
              <mxPoint x="830" y="390" as="sourcePoint" />
              <mxPoint x="1070" y="390" as="targetPoint" />
            </mxGeometry>
          </mxCell>
        </object>
        <object placeholders="1" c4Name="Synchronizer Client" c4Type="Person" c4Description="On-premise service which will sends Arquive-se&#39;s customers files" label="&lt;font style=&quot;font-size: 16px&quot;&gt;&lt;b&gt;%c4Name%&lt;/b&gt;&lt;/font&gt;&lt;div&gt;[%c4Type%]&lt;/div&gt;&lt;br&gt;&lt;div&gt;&lt;font style=&quot;font-size: 11px&quot;&gt;&lt;font color=&quot;#cccccc&quot;&gt;%c4Description%&lt;/font&gt;&lt;/div&gt;" id="2RP8Z6aRjcvruNIcd7D2-36">
          <mxCell style="html=1;fontSize=11;dashed=0;whitespace=wrap;fillColor=#083F75;strokeColor=#06315C;fontColor=#ffffff;shape=mxgraph.c4.person2;align=center;metaEdit=1;points=[[0.5,0,0],[1,0.5,0],[1,0.75,0],[0.75,1,0],[0.5,1,0],[0.25,1,0],[0,0.75,0],[0,0.5,0]];resizable=0;" parent="1" vertex="1">
            <mxGeometry x="360" y="30" width="200" height="180" as="geometry" />
          </mxCell>
        </object>
        <object placeholders="1" c4Type="Relationship" c4Description="Authenticates themselves" label="&lt;div style=&quot;text-align: left&quot;&gt;&lt;div style=&quot;text-align: center&quot;&gt;&lt;b&gt;%c4Description%&lt;/b&gt;&lt;/div&gt;" id="2RP8Z6aRjcvruNIcd7D2-38">
          <mxCell style="endArrow=blockThin;html=1;fontSize=10;fontColor=#404040;strokeWidth=1;endFill=1;strokeColor=#828282;elbow=vertical;metaEdit=1;endSize=14;startSize=14;jumpStyle=arc;jumpSize=16;rounded=0;edgeStyle=orthogonalEdgeStyle;exitX=0.5;exitY=0;exitDx=0;exitDy=0;exitPerimeter=0;entryX=0.5;entryY=0;entryDx=0;entryDy=0;entryPerimeter=0;" parent="1" source="2RP8Z6aRjcvruNIcd7D2-36" target="2RP8Z6aRjcvruNIcd7D2-8" edge="1">
            <mxGeometry width="240" relative="1" as="geometry">
              <mxPoint x="380" y="240" as="sourcePoint" />
              <mxPoint x="620" y="240" as="targetPoint" />
            </mxGeometry>
          </mxCell>
        </object>
        <object placeholders="1" c4Type="Relationship" id="2RP8Z6aRjcvruNIcd7D2-41">
          <mxCell style="endArrow=blockThin;html=1;fontSize=10;fontColor=#404040;strokeWidth=1;endFill=1;strokeColor=#828282;elbow=vertical;metaEdit=1;endSize=14;startSize=14;jumpStyle=arc;jumpSize=16;rounded=0;edgeStyle=orthogonalEdgeStyle;exitX=0.5;exitY=1;exitDx=0;exitDy=0;exitPerimeter=0;" parent="1" source="2RP8Z6aRjcvruNIcd7D2-36" target="2RP8Z6aRjcvruNIcd7D2-4" edge="1">
            <mxGeometry width="240" relative="1" as="geometry">
              <mxPoint x="380" y="240" as="sourcePoint" />
              <mxPoint x="620" y="240" as="targetPoint" />
              <Array as="points">
                <mxPoint x="460" y="240" />
                <mxPoint x="598" y="240" />
              </Array>
            </mxGeometry>
          </mxCell>
        </object>
        <mxCell id="2RP8Z6aRjcvruNIcd7D2-42" value="Sends files" style="edgeLabel;html=1;align=center;verticalAlign=middle;resizable=0;points=[];" parent="2RP8Z6aRjcvruNIcd7D2-41" vertex="1" connectable="0">
          <mxGeometry x="-0.3434" y="-4" relative="1" as="geometry">
            <mxPoint x="1" as="offset" />
          </mxGeometry>
        </mxCell>
      </root>
    </mxGraphModel>
  </diagram>
  <diagram id="YvDlM1fb2oxn6pMmLSER" name="Components Diagram">
    <mxGraphModel dx="1434" dy="758" grid="1" gridSize="10" guides="1" tooltips="1" connect="1" arrows="1" fold="1" page="1" pageScale="1" pageWidth="827" pageHeight="1169" math="0" shadow="0">
      <root>
        <mxCell id="0" />
        <mxCell id="1" parent="0" />
        <mxCell id="tL5aAeC0OMaukjZASPwM-24" style="edgeStyle=orthogonalEdgeStyle;rounded=0;orthogonalLoop=1;jettySize=auto;html=1;entryX=0.5;entryY=0;entryDx=0;entryDy=0;endArrow=open;endFill=0;" parent="1" source="tL5aAeC0OMaukjZASPwM-4" target="tL5aAeC0OMaukjZASPwM-19" edge="1">
          <mxGeometry relative="1" as="geometry" />
        </mxCell>
        <mxCell id="tL5aAeC0OMaukjZASPwM-4" value="&lt;p style=&quot;margin:0px;margin-top:6px;text-align:center;&quot;&gt;&lt;b&gt;API Gateway&lt;/b&gt;&lt;/p&gt;" style="align=left;overflow=fill;html=1;dropTarget=0;" parent="1" vertex="1">
          <mxGeometry x="130" y="160" width="480" height="40" as="geometry" />
        </mxCell>
        <mxCell id="tL5aAeC0OMaukjZASPwM-5" value="" style="shape=component;jettyWidth=8;jettyHeight=4;" parent="tL5aAeC0OMaukjZASPwM-4" vertex="1">
          <mxGeometry x="1" width="20" height="20" relative="1" as="geometry">
            <mxPoint x="-24" y="4" as="offset" />
          </mxGeometry>
        </mxCell>
        <mxCell id="grJt7uv1GvaVLODuGR3A-5" style="edgeStyle=orthogonalEdgeStyle;rounded=0;orthogonalLoop=1;jettySize=auto;html=1;exitX=1;exitY=0.5;exitDx=0;exitDy=0;entryX=0.5;entryY=0;entryDx=0;entryDy=0;dashed=1;" parent="1" source="tL5aAeC0OMaukjZASPwM-6" target="tL5aAeC0OMaukjZASPwM-10" edge="1">
          <mxGeometry relative="1" as="geometry">
            <Array as="points">
              <mxPoint x="360" y="75" />
              <mxPoint x="360" y="130" />
              <mxPoint x="720" y="130" />
            </Array>
          </mxGeometry>
        </mxCell>
        <mxCell id="tL5aAeC0OMaukjZASPwM-6" value="«responsive»&lt;br&gt;&lt;b&gt;ArquiveSe.App&lt;/b&gt;" style="html=1;dropTarget=0;" parent="1" vertex="1">
          <mxGeometry x="130" y="30" width="180" height="90" as="geometry" />
        </mxCell>
        <mxCell id="tL5aAeC0OMaukjZASPwM-7" value="" style="shape=module;jettyWidth=8;jettyHeight=4;" parent="tL5aAeC0OMaukjZASPwM-6" vertex="1">
          <mxGeometry x="1" width="20" height="20" relative="1" as="geometry">
            <mxPoint x="-27" y="7" as="offset" />
          </mxGeometry>
        </mxCell>
        <mxCell id="tL5aAeC0OMaukjZASPwM-10" value="&lt;b&gt;Auth0&lt;/b&gt;" style="html=1;dropTarget=0;" parent="1" vertex="1">
          <mxGeometry x="630" y="250" width="180" height="90" as="geometry" />
        </mxCell>
        <mxCell id="tL5aAeC0OMaukjZASPwM-11" value="" style="shape=module;jettyWidth=8;jettyHeight=4;" parent="tL5aAeC0OMaukjZASPwM-10" vertex="1">
          <mxGeometry x="1" width="20" height="20" relative="1" as="geometry">
            <mxPoint x="-27" y="7" as="offset" />
          </mxGeometry>
        </mxCell>
        <mxCell id="tL5aAeC0OMaukjZASPwM-16" value="" style="endArrow=open;dashed=1;html=1;rounded=0;endFill=0;exitX=0.5;exitY=1;exitDx=0;exitDy=0;entryX=0.25;entryY=0;entryDx=0;entryDy=0;" parent="1" source="tL5aAeC0OMaukjZASPwM-6" target="tL5aAeC0OMaukjZASPwM-4" edge="1">
          <mxGeometry width="50" height="50" relative="1" as="geometry">
            <mxPoint x="390" y="200" as="sourcePoint" />
            <mxPoint x="410" y="360" as="targetPoint" />
            <Array as="points">
              <mxPoint x="220" y="140" />
              <mxPoint x="250" y="140" />
            </Array>
          </mxGeometry>
        </mxCell>
        <mxCell id="grJt7uv1GvaVLODuGR3A-12" style="edgeStyle=orthogonalEdgeStyle;rounded=0;orthogonalLoop=1;jettySize=auto;html=1;entryX=0.5;entryY=0;entryDx=0;entryDy=0;dashed=1;" parent="1" source="tL5aAeC0OMaukjZASPwM-19" target="grJt7uv1GvaVLODuGR3A-1" edge="1">
          <mxGeometry relative="1" as="geometry" />
        </mxCell>
        <mxCell id="tL5aAeC0OMaukjZASPwM-19" value="&lt;p style=&quot;margin: 6px 0px 0px;&quot;&gt;&lt;/p&gt;&lt;p style=&quot;margin:0px;margin-left:8px;&quot;&gt;&lt;b&gt;ArquivoSe.Functions - Serveless APIs&lt;/b&gt;&lt;/p&gt;" style="align=center;overflow=fill;html=1;dropTarget=0;" parent="1" vertex="1">
          <mxGeometry x="130" y="250" width="480" height="360" as="geometry" />
        </mxCell>
        <mxCell id="tL5aAeC0OMaukjZASPwM-20" value="" style="shape=component;jettyWidth=8;jettyHeight=4;" parent="tL5aAeC0OMaukjZASPwM-19" vertex="1">
          <mxGeometry x="1" width="20" height="20" relative="1" as="geometry">
            <mxPoint x="-24" y="4" as="offset" />
          </mxGeometry>
        </mxCell>
        <mxCell id="tL5aAeC0OMaukjZASPwM-23" value="" style="line;strokeWidth=1;fillColor=none;align=left;verticalAlign=middle;spacingTop=-1;spacingLeft=3;spacingRight=3;rotatable=0;labelPosition=right;points=[];portConstraint=eastwest;strokeColor=inherit;" parent="1" vertex="1">
          <mxGeometry x="130" y="280" width="480" height="8" as="geometry" />
        </mxCell>
        <mxCell id="tL5aAeC0OMaukjZASPwM-26" value="&amp;lt;&amp;lt;storage&amp;gt;&amp;gt;&lt;br&gt;&lt;b&gt;Azure Blob Storage&lt;/b&gt;" style="html=1;dropTarget=0;" parent="1" vertex="1">
          <mxGeometry x="380" y="950" width="180" height="90" as="geometry" />
        </mxCell>
        <mxCell id="tL5aAeC0OMaukjZASPwM-27" value="" style="shape=module;jettyWidth=8;jettyHeight=4;" parent="tL5aAeC0OMaukjZASPwM-26" vertex="1">
          <mxGeometry x="1" width="20" height="20" relative="1" as="geometry">
            <mxPoint x="-27" y="7" as="offset" />
          </mxGeometry>
        </mxCell>
        <mxCell id="tL5aAeC0OMaukjZASPwM-31" value="«database»&lt;br&gt;&lt;b&gt;Azure CosmosDB&lt;/b&gt;" style="html=1;dropTarget=0;" parent="1" vertex="1">
          <mxGeometry x="190" y="950" width="180" height="90" as="geometry" />
        </mxCell>
        <mxCell id="tL5aAeC0OMaukjZASPwM-32" value="" style="shape=module;jettyWidth=8;jettyHeight=4;" parent="tL5aAeC0OMaukjZASPwM-31" vertex="1">
          <mxGeometry x="1" width="20" height="20" relative="1" as="geometry">
            <mxPoint x="-27" y="7" as="offset" />
          </mxGeometry>
        </mxCell>
        <mxCell id="tL5aAeC0OMaukjZASPwM-33" value="«Azure Function»&lt;br&gt;&lt;b&gt;Upload file&amp;nbsp;&lt;/b&gt;" style="html=1;dropTarget=0;" parent="1" vertex="1">
          <mxGeometry x="150" y="290" width="180" height="90" as="geometry" />
        </mxCell>
        <mxCell id="tL5aAeC0OMaukjZASPwM-34" value="" style="shape=module;jettyWidth=8;jettyHeight=4;" parent="tL5aAeC0OMaukjZASPwM-33" vertex="1">
          <mxGeometry x="1" width="20" height="20" relative="1" as="geometry">
            <mxPoint x="-27" y="7" as="offset" />
          </mxGeometry>
        </mxCell>
        <mxCell id="tL5aAeC0OMaukjZASPwM-35" value="«Azure Function»&lt;br&gt;&lt;b&gt;Download file by Id&lt;/b&gt;" style="html=1;dropTarget=0;" parent="1" vertex="1">
          <mxGeometry x="410" y="290" width="180" height="90" as="geometry" />
        </mxCell>
        <mxCell id="tL5aAeC0OMaukjZASPwM-36" value="" style="shape=module;jettyWidth=8;jettyHeight=4;" parent="tL5aAeC0OMaukjZASPwM-35" vertex="1">
          <mxGeometry x="1" width="20" height="20" relative="1" as="geometry">
            <mxPoint x="-27" y="7" as="offset" />
          </mxGeometry>
        </mxCell>
        <mxCell id="tL5aAeC0OMaukjZASPwM-37" value="«Azure Functions»&lt;br&gt;&lt;b&gt;Share file&lt;/b&gt;" style="html=1;dropTarget=0;" parent="1" vertex="1">
          <mxGeometry x="150" y="400" width="180" height="90" as="geometry" />
        </mxCell>
        <mxCell id="tL5aAeC0OMaukjZASPwM-38" value="" style="shape=module;jettyWidth=8;jettyHeight=4;" parent="tL5aAeC0OMaukjZASPwM-37" vertex="1">
          <mxGeometry x="1" width="20" height="20" relative="1" as="geometry">
            <mxPoint x="-27" y="7" as="offset" />
          </mxGeometry>
        </mxCell>
        <mxCell id="tL5aAeC0OMaukjZASPwM-39" value="«Azure Function»&lt;br&gt;&lt;b&gt;Get file data by Id&lt;/b&gt;" style="html=1;dropTarget=0;" parent="1" vertex="1">
          <mxGeometry x="150" y="510" width="180" height="90" as="geometry" />
        </mxCell>
        <mxCell id="tL5aAeC0OMaukjZASPwM-40" value="" style="shape=module;jettyWidth=8;jettyHeight=4;" parent="tL5aAeC0OMaukjZASPwM-39" vertex="1">
          <mxGeometry x="1" width="20" height="20" relative="1" as="geometry">
            <mxPoint x="-27" y="7" as="offset" />
          </mxGeometry>
        </mxCell>
        <mxCell id="tL5aAeC0OMaukjZASPwM-41" value="«Azure Function»&lt;br&gt;&lt;b&gt;Search files&lt;/b&gt;" style="html=1;dropTarget=0;" parent="1" vertex="1">
          <mxGeometry x="410" y="400" width="180" height="90" as="geometry" />
        </mxCell>
        <mxCell id="tL5aAeC0OMaukjZASPwM-42" value="" style="shape=module;jettyWidth=8;jettyHeight=4;" parent="tL5aAeC0OMaukjZASPwM-41" vertex="1">
          <mxGeometry x="1" width="20" height="20" relative="1" as="geometry">
            <mxPoint x="-27" y="7" as="offset" />
          </mxGeometry>
        </mxCell>
        <mxCell id="grJt7uv1GvaVLODuGR3A-9" style="edgeStyle=orthogonalEdgeStyle;rounded=0;orthogonalLoop=1;jettySize=auto;html=1;exitX=1;exitY=0.5;exitDx=0;exitDy=0;dashed=1;" parent="1" source="grJt7uv1GvaVLODuGR3A-1" target="grJt7uv1GvaVLODuGR3A-3" edge="1">
          <mxGeometry relative="1" as="geometry" />
        </mxCell>
        <mxCell id="grJt7uv1GvaVLODuGR3A-10" style="edgeStyle=orthogonalEdgeStyle;rounded=0;orthogonalLoop=1;jettySize=auto;html=1;exitX=0.5;exitY=1;exitDx=0;exitDy=0;dashed=1;" parent="1" source="grJt7uv1GvaVLODuGR3A-1" target="grJt7uv1GvaVLODuGR3A-6" edge="1">
          <mxGeometry relative="1" as="geometry" />
        </mxCell>
        <mxCell id="grJt7uv1GvaVLODuGR3A-1" value="«use cases»&lt;br&gt;&lt;b&gt;ArquiveSe.Application&lt;/b&gt;" style="html=1;dropTarget=0;" parent="1" vertex="1">
          <mxGeometry x="130" y="670" width="240" height="90" as="geometry" />
        </mxCell>
        <mxCell id="grJt7uv1GvaVLODuGR3A-2" value="" style="shape=module;jettyWidth=8;jettyHeight=4;" parent="grJt7uv1GvaVLODuGR3A-1" vertex="1">
          <mxGeometry x="1" width="20" height="20" relative="1" as="geometry">
            <mxPoint x="-27" y="7" as="offset" />
          </mxGeometry>
        </mxCell>
        <mxCell id="grJt7uv1GvaVLODuGR3A-3" value="«core»&lt;br&gt;&lt;b&gt;ArquiveSe.Domain&lt;/b&gt;" style="html=1;dropTarget=0;" parent="1" vertex="1">
          <mxGeometry x="390" y="670" width="220" height="90" as="geometry" />
        </mxCell>
        <mxCell id="grJt7uv1GvaVLODuGR3A-4" value="" style="shape=module;jettyWidth=8;jettyHeight=4;" parent="grJt7uv1GvaVLODuGR3A-3" vertex="1">
          <mxGeometry x="1" width="20" height="20" relative="1" as="geometry">
            <mxPoint x="-27" y="7" as="offset" />
          </mxGeometry>
        </mxCell>
        <mxCell id="grJt7uv1GvaVLODuGR3A-8" style="edgeStyle=orthogonalEdgeStyle;rounded=0;orthogonalLoop=1;jettySize=auto;html=1;entryX=0.5;entryY=1;entryDx=0;entryDy=0;dashed=1;" parent="1" source="grJt7uv1GvaVLODuGR3A-6" target="grJt7uv1GvaVLODuGR3A-3" edge="1">
          <mxGeometry relative="1" as="geometry" />
        </mxCell>
        <mxCell id="grJt7uv1GvaVLODuGR3A-13" style="edgeStyle=orthogonalEdgeStyle;rounded=0;orthogonalLoop=1;jettySize=auto;html=1;dashed=1;" parent="1" source="grJt7uv1GvaVLODuGR3A-6" target="tL5aAeC0OMaukjZASPwM-31" edge="1">
          <mxGeometry relative="1" as="geometry" />
        </mxCell>
        <mxCell id="grJt7uv1GvaVLODuGR3A-14" style="edgeStyle=orthogonalEdgeStyle;rounded=0;orthogonalLoop=1;jettySize=auto;html=1;dashed=1;" parent="1" source="grJt7uv1GvaVLODuGR3A-6" target="tL5aAeC0OMaukjZASPwM-26" edge="1">
          <mxGeometry relative="1" as="geometry" />
        </mxCell>
        <mxCell id="grJt7uv1GvaVLODuGR3A-6" value="«Infrastructure»&lt;br&gt;&lt;b&gt;ArquiveSe.Infra&lt;/b&gt;" style="html=1;dropTarget=0;" parent="1" vertex="1">
          <mxGeometry x="130" y="820" width="480" height="90" as="geometry" />
        </mxCell>
        <mxCell id="grJt7uv1GvaVLODuGR3A-7" value="" style="shape=module;jettyWidth=8;jettyHeight=4;" parent="grJt7uv1GvaVLODuGR3A-6" vertex="1">
          <mxGeometry x="1" width="20" height="20" relative="1" as="geometry">
            <mxPoint x="-27" y="7" as="offset" />
          </mxGeometry>
        </mxCell>
      </root>
    </mxGraphModel>
  </diagram>
  <diagram id="3gLxw0bL_gaci0HiMMOa" name="Arquive-se - Big picture">
    <mxGraphModel dx="2049" dy="2252" grid="1" gridSize="10" guides="1" tooltips="1" connect="1" arrows="1" fold="1" page="1" pageScale="1" pageWidth="827" pageHeight="1169" math="0" shadow="0">
      <root>
        <mxCell id="0" />
        <mxCell id="1" parent="0" />
        <mxCell id="IxJhe6KXW2kEp1sRZauM-22" style="edgeStyle=orthogonalEdgeStyle;rounded=0;orthogonalLoop=1;jettySize=auto;html=1;exitX=1;exitY=0.5;exitDx=0;exitDy=0;entryX=0;entryY=0.5;entryDx=0;entryDy=0;" parent="1" source="IxJhe6KXW2kEp1sRZauM-13" target="IxJhe6KXW2kEp1sRZauM-21" edge="1">
          <mxGeometry relative="1" as="geometry" />
        </mxCell>
        <mxCell id="IxJhe6KXW2kEp1sRZauM-24" style="edgeStyle=orthogonalEdgeStyle;rounded=0;orthogonalLoop=1;jettySize=auto;html=1;exitX=1;exitY=0.5;exitDx=0;exitDy=0;entryX=0;entryY=0.5;entryDx=0;entryDy=0;" parent="1" source="IxJhe6KXW2kEp1sRZauM-13" target="IxJhe6KXW2kEp1sRZauM-23" edge="1">
          <mxGeometry relative="1" as="geometry" />
        </mxCell>
        <mxCell id="IxJhe6KXW2kEp1sRZauM-13" value="" style="rounded=0;whiteSpace=wrap;html=1;" parent="1" vertex="1">
          <mxGeometry x="650" y="30" width="220" height="600" as="geometry" />
        </mxCell>
        <mxCell id="IxJhe6KXW2kEp1sRZauM-11" style="edgeStyle=orthogonalEdgeStyle;rounded=0;orthogonalLoop=1;jettySize=auto;html=1;" parent="1" source="IxJhe6KXW2kEp1sRZauM-1" target="IxJhe6KXW2kEp1sRZauM-8" edge="1">
          <mxGeometry relative="1" as="geometry" />
        </mxCell>
        <mxCell id="IxJhe6KXW2kEp1sRZauM-1" value="Sending Service&lt;br&gt;Worker" style="outlineConnect=0;dashed=0;verticalLabelPosition=bottom;verticalAlign=top;align=center;html=1;shape=mxgraph.aws3.worker;fillColor=#D9A741;gradientColor=none;" parent="1" vertex="1">
          <mxGeometry x="76.25" y="150" width="63.75" height="70" as="geometry" />
        </mxCell>
        <mxCell id="IxJhe6KXW2kEp1sRZauM-7" style="edgeStyle=orthogonalEdgeStyle;rounded=0;orthogonalLoop=1;jettySize=auto;html=1;exitX=0.995;exitY=0.63;exitDx=0;exitDy=0;exitPerimeter=0;" parent="1" source="IxJhe6KXW2kEp1sRZauM-2" target="IxJhe6KXW2kEp1sRZauM-3" edge="1">
          <mxGeometry relative="1" as="geometry" />
        </mxCell>
        <mxCell id="IxJhe6KXW2kEp1sRZauM-2" value="" style="sketch=0;html=1;dashed=0;whitespace=wrap;fillColor=#2875E2;strokeColor=#ffffff;points=[[0.005,0.63,0],[0.1,0.2,0],[0.9,0.2,0],[0.5,0,0],[0.995,0.63,0],[0.72,0.99,0],[0.5,1,0],[0.28,0.99,0]];shape=mxgraph.kubernetes.icon;prIcon=user" parent="1" vertex="1">
          <mxGeometry x="42.5" y="320" width="127.5" height="90" as="geometry" />
        </mxCell>
        <mxCell id="IxJhe6KXW2kEp1sRZauM-4" value="User" style="text;html=1;align=center;verticalAlign=middle;resizable=0;points=[];autosize=1;strokeColor=none;fillColor=none;" parent="1" vertex="1">
          <mxGeometry x="81.25" y="418.5" width="50" height="30" as="geometry" />
        </mxCell>
        <mxCell id="IxJhe6KXW2kEp1sRZauM-6" value="" style="group" parent="1" vertex="1" connectable="0">
          <mxGeometry x="240" y="400" width="120.75999999999999" height="97" as="geometry" />
        </mxCell>
        <mxCell id="IxJhe6KXW2kEp1sRZauM-3" value="" style="shape=image;verticalLabelPosition=bottom;labelBackgroundColor=default;verticalAlign=top;aspect=fixed;imageAspect=0;image=data:image/png,iVBORw0KGgoAAAANSUhEUgAAAS0AAACnCAMAAABzYfrWAAAAk1BMVEX///9cLZFXJI5aKpBXI45ZJ49VII1OEIlKAIdTHIxRGIuMca9HAIWSe7JQFYpKBIdhNZTh2+n59/vu6vOol8HDt9TKv9n08feCZaiLcq6xocd0Up9iOJS+sdHq5fColsGchrnVzOGfi7vb1OV8XqRnQJfRx963qctvS5yij73BtNORerJ/Yaapl8KGa6ttSZw0AHwE7DkPAAAN3klEQVR4nO1daXuqPBMuBBKglChWcFfccKt9//+ve9U+LZOQhEWPhtb7us6XA9rkdjKZLZOXlyeeeOKJJ5544oknniiLdq/z6CE0CCvSe/QQmoMuMfz2owfRGBjIMJ/CVRJTzzAM5ylcpdA5k2VYr48eRzPQs85sGfS5LZbAml7IMtzpo0eiBWZL5eOTir8AGXcaj9bYUqR6PHON/0CTew1JX2yprZKtxPkmyzD7dxuUrpgRA28VzxH6YQuh8G7D0hN9clLfA8VzbGQg6/sNTEPEw7NSogvpC2MHkGVYs/sNTT+0jYslFUgNqQWBZBnIuufoNEPqXHQS+pS+AZTW11L8s95PuCRFW93GZMkyvPE9R6gRutgqoqDvcmQZ1ttdx6gLOkP6s8h8idqaEZ4sA43uO0wtEM98O2NgJX5pnifrxOyfs7jiqQuNKCx2lrcisv6cxdWZB6w6Eu9zb0KyDDe993gfiHC99DE7f9QSvbf0hGT9JTWfzFrE5ucvcnsmKyyi6gR7eP9hPwCTbt+iGOXnT/I7YkRznP5IomRL+C0IO+3u+zKgnimgSmia7h3Ri9/vxw+Yw60QTqJdOn17FeOwHH62PBpgqawYPu9RJ0i2Cr9EcfKQeV6Nznp+bDkO8VxsmWLYts17ehx4PRT3HfUHaAPZiqM3+yQy4sVVBYQJHofvvlXpAw1APB66xLqaqDNY0RoYErsBIOg+atq1sD46nlwNVYSTaa343fJK/AJeg8zT8N0ifBTlClj77y9e9B23lLSqotJ6IZ7hMj9/edAvc6AzWNEiffXD1vuDSSiJcOso9/bqcM+BrUk69MuJ1QW4GWwNSC42dz1bi22LupW0YCPYSkbBrbk600VEvlDj2ZLbjMg2sRuQCwIPm/ZNFVsT2VpjscJCOHDQ8jgfR+t1kiTraDd9XbYcUm1t/TK2ZlQkLxZxV9uok4v8hp31YGhWX2IlofmeGA8FBrZJ6D5SRAPCZGaWNgqqsaW1vdXGOWsUueQYFX9yscfB7QVM61BzlFuFyDOnJUsaw7RFbs1XsPu3E74GKR+YQx6u9ONGqxvzRUpI9YMw4MnCVmW10b2tpaaox3kweLIQ2deJ874HN3TEtY0G8mS5rZq/a2dJb8aWvHrpseB0FqKz+t81zmfG6gEhPbMYCUuWjQtCvOoChcnqNj65phmyCWsruSsJG51k8HYYuZQ6lFqr41u6kLzYF6fqK0LP7GvI5mrIXvRSvJ4ZhLjWjyeNTMslZDUV6rfBLZSXJRzIo9Fj/Ggqcs7WR4k3iDAdzQWlIF3/era0DMsPmGUjICsctKgiP4awP8ybkYnQPa8EHSuSFoyGd3K/Z/hBCoPDNhnl+Fpcbdj7Gm6JLTgpJ2e+j1GpDQ6RDa/AFlcuRmTeiYEKmEEyCH+spL0pLSG2z5dbRdepevN4Lw5KgxEAl9+E3v0qhibmzbTrdkZJ1eUj8QnosDfss58i97JAlJPN2TVmqn5VEGPAByKsVm3b1QOi5MB+/+oKJ4jopuRDGFjmfsukoFxIDDxi5tgpLg2RQT+/ZwpWijtjHtVV0bbN0NWtrbq0S2HEwNTiyo3Xtbd/jq5j3fyGdqHALRAthxmcgiyUA0+XAemKawoXMjQ7iREDzw8zBbRt8WZousQzjRYPTNiErckc0EnrBZ+1s7YGQAW7UB5CkQNtE+c4WIhiv+FizvLlMjNd1fKAiG51gaCMwWM8nmE+tm7RgyoBE7JnwAjU0ImqyFsKR7OFGGUTRCYc2yC3Dm36WpRQiBhOCNSCwxpGl6lbI5teJkFMCj2vtMimxKHdNVTnzA67rqHodUslxmDbI/ABb38jWi6vuIWWqAd9oBqay73lVG+ANJsc09FizImWjcsaPiNICswFdiuH6fHshjO9BYA2gSdEQi5KarZKJ/VS6EObwGMMjarCRTU7r9/JzCAbusJTNmxgj8r7tjFj0sK2PfOKJb/aZXt2GVvwyEPMmlqo0jEuZinCGbcrGhHaGVv9bEekwHwYsEGDaqe4+oydBhtLVtPz+sWYswXHnBpkExaU796QTIfIYoCBP/fGeNDwe6eVlqJ2NYHAqIILMWF2L5PtlRV+tCjO1TEDEWLZguG8RaVdMdDMjn/pZisOHt89MmuJPdjbxcJMGZWyBbOnVdhyVS26HoJsYtDsZmKp3Kj3knSqnC2o548Vyrpc3ULMwNrC8+x/IyId9UEWM5azZXiZbA7K5zP0E60XYD+AUlhmuow9fZQG2BVsAY24KO8rUt201ksnMyShi8IYTNACSOV6R8EWaH8Rl16Jnm4b4svLOps9CKNPoADBnEussC4VbCGcfcWmpMWF7HvMvxqyLRGqYsZ+gKniN4W5pGAL1n28lhQuqlmo5ozMAbZBc/IPpiYiCz10VPu/ii2QokzLqXllO9RHYfYjLLD1I6vksw0tVeVQVWyBTm5RuWSGln34s3UBvYwNiAPCzmrKULGKLbCtJqXsUw+YM/pg+TN/D/g9UDtBfaZ08lRsAVexUyadK+w49Xhk0hIArQp3PjDRiXIRqdiys1RZWCZo42hXVnNBxhZMF8CfHywiSS62DFtAZ5dYiVwphjYAbIFSWIatTIPUZwv2gi3eE7XtKS9ki4kUg72yrVyJoCenkq2CBkqGfsH4HxSvRGCHhUqxAFGsfW4lgmrDwkwG0c/l+Q9iLQ/ZgmLRUkwUAULyeguYvkXtELC+d/gchBYEk20GSkSVsoGNI2f8exYINhdoeaS8AeKxANYpCHAyiyXIYhMLxe4PN/1cEAuYvnGBvaWt0nqBUgCjWD1os8MlupH3jYS1Wjl7HZTQJeoAl47O9A8yKYBXfjErDi6xSCpcTHVHyPuTXvasq6zXJfrVxgOIIzY7xlSg4P2lpHrUYkMGXJGpB8q4+qr6U1fvC1ayaCA8jsuaoVBsYvGOhjBXYs8sN2SBmLEq/4p1DNMATECkGaTBGDXPlEcsRK1EUC6+wnQ+9wHdbYXaMmVnbbVBNniYfGUDnMy1fAsvF/w0BR29+6DxPszdTOUWrqmrw5Ph82dSMEPGFlqxccx4yB4nQ2QoqlUaWMG5psn2XKYqQN5GqUoVz6OQOSnQBohZj5A7fNp1s9YYJrEkN1yE4yPy3GHKHsmQupo20rTpAwQwJGH+nl2KuVqX6JX4JAiIH5RpnAQwkomWaegvWUwZB1M1wipjnC/xn0TdblS1Y8pAJlqW9gr+gjBji6lI4hzosnEBtdsiPUmGm0EW48zAQn6+oNYpVaWXBsrHnxLHydOtYFKK90xxMc2jeQ3jlFBQY6oMt+QvNvrCNc1y7gxQxsFYCrlqbVLYw+L95EUG8hs/BBcbXeDrdgBRBSBETHVpLt5AC64+OV7YCA6Sxz2xhrcDDXtjyAECnUztUTsXiHJXCiW++L6sAY9EpxDakhtV8ErXTmRiQGOBwK1pntvBbDqT7F3wsgZE97yhGc4lvbiIvmFlCUAShj3DLDhoj/25QBYmb+xlDZbf6wLCFm/87Uff7DvNu+wPnhP2oOxMRGoZk+GYEZ3OeENyZJiBO+oP0t0uHRxQ/vF/f6xhq/CCCViKLlOtIW4HZXt0dfzoRsk6ij6OKyq5AwKZrhcEnivL8di+fnWlZQBLZ9hDF+I7585MYO/cANyrfwNLoNoydAYop2SOfJ3w9i86zJ//DGmSkcUCRn+5pEvv5pcXGOddc9lAjfUNaLfzIXaJUXkNV8GoUQZpDtAptLjojOQKyNpwbW3rHEqCcQp5h3B7g0aJGVd02pDgjAJMLIXP4HRv1hTXDX4BV9yBEmRzUd/JZ/2GUOBriTH4DVyd0If2trnhH88rtcITwaIr3Y791kfIZFVxLpjZ/rymEacdkL24P8KgCcmLPNjon5tviDJGNZcj8k6upXgJtkdNNVLZvsNBnq5wQKrf32Z6/iqVmaLz/3382zn9O4Ss++uJKjjSlVPBMbQxDXqpNKm6I36DLS+u5y0eilZP0rdJiZ52yHKpOXxXHBJIPkm+u3GTwHWQskbCFRSuZ5cbg8UyhmzLDYiP3gYLlf5uLx3bb/ge+cq60MiXZcUm0azXoj4lgee5ruudEBBCfcdd9fYfUVF7oMXBt5Gmp1MqYMgtMmWaJ+wsou5uPB6np3+7brRedMIy1udiSUzDtnVrNVkdocEZoe7o1jG77tCxz4mhBlTUFCLm6UK+LM1TB52Bd/E5m5fqEWOCeBfHxbfSxknPuyjGsk3iGoCJydOFyOcNonfteYt+FYVZQeP1e4Y4n1W26eq6ov/21PC/ayjp8ZcEIr4QCq6atEmrrv97ss9a2T0tpte8hGsB9oIy7ZNv/FpdwJLB0gNX2iAqrOhtOFJhHyST+P1u6WTNJNoOffbyXNdsuPkuQdsQZ+PNwFvNxhOl5gnjZDzfGAHB7H5hklsaI3ph70uCDcjyfG9znKUn432S6bJ40k7Wu4/9cWP5xMu7kbbfa3AOsRCJoUi8osv13tSHOHuN2MoZIF9cOcOGJvJLY3ur+zUtumy+V1iIyeHq5MU5Leb3/wBXZ7QP/nXyZdLWtJmJilpY9GTFasWwA9xrdslDdUzmtEayGpmBv9z9IbHKEPVIUCF9gWzPMfo6nyf/xwi7PYM1zGWrDwekdUh/u71QiHDxsfSdAJvCBAayz9WVPh1uyztHvx7taPs6tP9LYFyyFwEhjk/w6tDfRsmf1FMFCL8TGOklfZG041LpiyeeeOKJJ5544onm4//2GtKSTQsK9gAAAABJRU5ErkJggg==;" parent="IxJhe6KXW2kEp1sRZauM-6" vertex="1">
          <mxGeometry width="120.76" height="67" as="geometry" />
        </mxCell>
        <mxCell id="IxJhe6KXW2kEp1sRZauM-5" value="Blazor WebApp" style="text;html=1;align=center;verticalAlign=middle;resizable=0;points=[];autosize=1;strokeColor=none;fillColor=none;" parent="IxJhe6KXW2kEp1sRZauM-6" vertex="1">
          <mxGeometry y="67" width="110" height="30" as="geometry" />
        </mxCell>
        <mxCell id="IxJhe6KXW2kEp1sRZauM-8" value="" style="rounded=0;whiteSpace=wrap;html=1;" parent="1" vertex="1">
          <mxGeometry x="420" y="30" width="170" height="600" as="geometry" />
        </mxCell>
        <mxCell id="IxJhe6KXW2kEp1sRZauM-17" style="edgeStyle=orthogonalEdgeStyle;rounded=0;orthogonalLoop=1;jettySize=auto;html=1;exitX=1;exitY=0.5;exitDx=0;exitDy=0;entryX=0;entryY=0.5;entryDx=0;entryDy=0;" parent="1" source="IxJhe6KXW2kEp1sRZauM-9" target="IxJhe6KXW2kEp1sRZauM-15" edge="1">
          <mxGeometry relative="1" as="geometry" />
        </mxCell>
        <mxCell id="IxJhe6KXW2kEp1sRZauM-18" style="edgeStyle=orthogonalEdgeStyle;rounded=0;orthogonalLoop=1;jettySize=auto;html=1;exitX=1;exitY=0.5;exitDx=0;exitDy=0;" parent="1" source="IxJhe6KXW2kEp1sRZauM-9" target="IxJhe6KXW2kEp1sRZauM-16" edge="1">
          <mxGeometry relative="1" as="geometry" />
        </mxCell>
        <mxCell id="IxJhe6KXW2kEp1sRZauM-19" style="edgeStyle=orthogonalEdgeStyle;rounded=0;orthogonalLoop=1;jettySize=auto;html=1;exitX=1;exitY=0.5;exitDx=0;exitDy=0;entryX=0;entryY=0.5;entryDx=0;entryDy=0;" parent="1" source="IxJhe6KXW2kEp1sRZauM-9" target="IxJhe6KXW2kEp1sRZauM-14" edge="1">
          <mxGeometry relative="1" as="geometry" />
        </mxCell>
        <mxCell id="IxJhe6KXW2kEp1sRZauM-9" value="" style="shape=image;verticalLabelPosition=bottom;labelBackgroundColor=default;verticalAlign=top;aspect=fixed;imageAspect=0;image=data:image/png,iVBORw0KGgoAAAANSUhEUgAAAOEAAADhCAMAAAAJbSJIAAAAkFBMVEX///8AeNQAddMAcdIAb9IAc9MAdtMAbdFWk9ujv+mUtuYAedTw9fv2+f36/P4Aa9HX5PXE2PHN3fPf6feLtOXk7fh9rONZmN2FsOQrg9c0h9gafdVIj9rG2fGYvOh0puGtyexjnd62z+4/itmoxeu60O5gnN7G3/S72PKArOPc5fWZv+lGkNqcu+fr8PpaldxcMlnpAAAL5ElEQVR4nO2da3+aPBTAZ2505VJEUREU8NKts4/9/t/uUbvOnICYhDBwv/xft5hDkpNzDd++WSwWi8VisVgsFovFYrFYLBaLxWKxWCwWi6VDAt+Lw9XmxDj6FXt+0PeATOKFxex1m2LHIfgEIcSh6XY+20Vx30MzQLBaZC7GFDE24mEMUUxY8roL+x5iG/xiTjEVZANyIoQxy/ePuWSDVUkxui0dJyah5djve7yqeIelIyPeHyGT52PfY1bBn46wtHifIIrKSd/jlsV/JqryfU7ky4PIWKRYXbzfE4lnXt/Dv8vknWjM3x+wu+tbgjusMWoSgH1x+y9wNmQ7IM5uTeDnCU/dNDmRuuxsBNzQtYgMdxr3bv0EIuywLF/vw0l89IOzhRqH40OeMULrhGSkHOjp+FynQRklZH4Ia4fsh+utU7escTJIpVqSqngIu7NV4395xTutvhmGx39p1PL4H5UzgmH0OpYwOSfTtCIjw0PbjH5WEZCihaxW9HcVGRlZdzpgVYItFeUjU5XDOzhg8QmDErEiIKK5qnHi5+I0DknEuSAg3kYaT1kl4mMK0wPVJYd7EJGp3nP8HBoMjOi8qA44wGOCpvqBiQKejowOwoKL4AzieRuDJBwBEdFyANaNl4KVRRbtHhcnQESamxllG0qgHpzW+s+DIpKNiUG2oXDAeAxYIgEQkZGefWIPeAeOEVPLS3kR0dzEM/XJ+TVq6oieAA8Z7808VQ+gR/HM1GNXvHmDkj71acatJ/Ru7rlr8OY0DQgT7LmznjGTKmHOvTqG+lM2vNYjRn1Wj9+K5pa/KhvupKCGR7HhTUGnr0lcXt8zSk2rA36d4paGki68IsXGTY8Jdw4x929M4mT/Xz5fJmmaJtu8OLsP5fUts635H+SP2q49xSBcvxPnEsP9BGHnxeXW6MjpwJHzuF3exRu8Es1Sh1aDmqyjo/DKjJtE0lky3D8scW1gGmD2pPgi5tQp7UjX+FMkkwlky25+nt/obhc/EDxLTN+ZrqK3K05ZdxGy2SeSmVzGOkrB854iNW6c+qV0pho9mf7xL96uugYlhp8dITEEfZvuDivepjAcdlurpKo7jDO412GYdYTzaqLsNqgjTXqG06ZGo27z2mIKxuhn3R35rFP7er342eBPCxTXkbDM2FP9rGYLnqRzs1mxCmPvGEYnEzVL3N9FXU6HtXeTq+VmzvoOPqoCIpLMVuIPxJN9nhCK0i7r7rhqBmOG22tliSLnfX/D+/PDaVIa+uFaMk7VGHLQFqKSQThrfnmdlk5yJ6KhgFQhCkjTXsPqB+7MN6JMJ2K1Ein7DapvrnsGfZh44Bb6gcz5buKpLQivyhQlBvbDWkjmot6rWmL+uGgf7IqhgAz1n2Q+8tGu9hK+whTzELLoHjckp7WTJqSrnV5zPr/xRlfV57T2Lt7BFHZpbsrDS0h+tXxYBI7C7txaJfj8RWsJ5yC5jAdR5/HtyL32tiZ+/ALW6EAqrjjnorXpPeX1DEvNDLA1K4NzCCogSGFkfO3Z8QHFdvsw5KfQiIFkhCnnrLY8D8EiHcouBOqPoXY2DedqjhgbhiI9wR2HLc+vI+82dZNK0uHIqVL02krT8DrLSB4iOIY/fvwI43YrawO0Ax2VG20FsebDT7hVt8NxvC6X9MU5xx2J49BluR7rutG54K8ijN80B8c/io00x/Ptm7+abTGBDT8IUYKyqdYSS6udGBTr9fBt+SHp1spFeVrf53PSXRgnU2X9NakNTVOkkS4NXL5AR8+r2CQ3xPt6cZg8KXqcu/pORobVC619vkpUKzBZJKSxL+9TSCdr7hESeL31SKRc58lrZZ2sfLSVkO8yNDKXf/1edRteB6kYW/zFHxZEeScHYqdEk4zyBU5RUwoMvyoNETxLw/5rHEtlbKnkdpw2NhRjJYX4s22dXC4/ieelKqfL/liSTLx04lNElWLB1hL6Da29te9fwtbxyOkoxecLQ5IkcZ2qplaxvUJe02h5KRtnpAJN7h+OG7x9ne720ecLD6KFKxRPMAXjawI0jZb5MZdTpl8gdPdXqiboLoWbQSHBDk4L/FNNtk8mvKXGEKXnjDi+JMRviKgRcPZKqHzk+zt84P/quRZfmu9kHr+488Wh2IxXPze75zJ9qTV2JGaxBpjfZK6srwH6VHQTdefz+SRemu8FVeX/fEtrLnJBSMeEnoFZxNLJsQ9eQs3yo4gwSssbBtGqrNYg6RUfPIG4rvROXAD/UNOdy1/yBg0ZzyqWHdKpIAEbfoRll3oBNqJm2tC7s+ommVgrp9VnAGdDNrsPPDEzGfM6DmKxsVOoP+QIxiobU/J5VcOMtxb8IRKuzmBUw7x4Bw01stq05H+5w3YxoUdUK0b4nV+m0hbYXmvqNRCdPo0EAggMSmeqQaNRJ90FX8RQ3bBUWXNDf13aAgMRg7aTGI+n5cfT0zxfV8rhTnsRWjjqtU6enoRjYA45LepM/N2WYYwuUDx6qoR99tDyUm6+AxIq5NzA/pA3+ET8BcEMGOGY7oSHfYeWl2pwEEYk5GOUMHSn2/NXuFVvn+FEWBKwxV21UAaYJ0T+n32o5LROjKCsLxBnwlUZvgssL0Vnhj/ZmEqq8wAmkSH1FJu3vBmuEeJGYNcr9twEvKZCKiE32OqvUUd2TBv8fJqBlw0tDCVPcaffBr2BMUG0VRPRTxoDGRTMIvAQlIYJd5NiaRqsihrRrZIery/x5wYDYoh8/FGpvXAGi0bUjpqj4N0gV8EL392NtmH+ffO9dyoNMTtYuqXqBolF0Ew+S3O8HzFFS34r8r66/M/Am0ZGWCnTc0aMXTMse6XV7M4aPQOs7L1OA6UQ6NcIuAQVbUHd4u5/nThKXRnMl1oF3H9IJmWjrfAadW6L8ZAoIiOJxGXNz1KJC1CzyreISsyFV2wd4S0ireK0sCbsR5L1PZXTfFLUzhV/rrGnkyvSxMcWVxsiNYt8VzXhW4RRNo0aduRELm0B6ppAKgHdo2YTULUUIidi7T2yZ4fIfS8Xz7WUklkL/sBoSvHKgPR7vYQrxTgpL+muOmTTMiBGnbWTkCifFFcmCllrNcAJfbMQQYp2l1L5c1FtGQKomryNhE7bSvuD9MJTAnSCLvRXionrTcNKCN4EhiREZpoRdwod69JDMyEhw1tDNyn7i5pTtqWE/BE205KQUZMlzN7CNbsfwXVSOpoG4ZHhu/e9XdZckKcG2D8fahKer3XH2a6Dls/J+V7xWwUHilAuIhNwJZ/shiXB42ZvRWef+fD2i/fLK8T0BpLXoPDXzHjXkOJAOljicLzZfa9nt5VaccDTDa+W90D6yBqpNIHX4vBanvOeuss6m8OXcRRgZQLnj+BDX+NW4EbFMgAEN/koRpd3a5hjeXcSKbhgggvs/5079VoT3nPzmQt0PVfqp1VX0wPrO8oGZl357lDz11x1RN64FR2oTd74axEfYhueKRtEFCqfYy5EPpDzXorZrdBApUGCD66bvt21U4pKQPkySdQVkmCgJMYZ5HdzbhGXFXeLUToTMpEgy93VtYudEc3Bh+UQpnlljoDf1P/V+crEh+X5k6OXUm/nqaie5kKScyht1WqE+5MbUoxrj4E3cHAO7rtH7YE3+vV7qXwnCIfmcD6XYwpBwIdTpPfwxCsLu7sCuR8isaaor9vWNdnd+/zkVAxYoe1DnRRHisi0QTHuK2WLTKtrpj/O6UDq3vhycbCv1BkM5LItecYXH59hllc/QR1Ok5qyzCF9Ok6CP5U4DOHR/Pv4ayq9H7syrU2Dk0dymk4s+NoRRInjjJIkGTknC7U+IYAfIEbKE9YUP9c3KH/N4IMJKN6aeRfnwZaoUBN5F0YeIcjNc1RLMSLW+7Whqoif6WyGvA/mHippnh35SUQPt0IveDmSkxHh+UPkKGqIZxIyIuVLeAbF8dltvKWGUfL6yPJd2D/hegvm/NmBdN1ZncHfxCvmKQaXfbGzDTfKnv8hZ96L1uXyYpDi831taZavo39i9gCBF4erzSYKY++fCxZaLBaLxWKxWCwWi8VisVgsFovFYrFYLBbLkPgf8mGfZZ6xZugAAAAASUVORK5CYII=;" parent="1" vertex="1">
          <mxGeometry x="442.5" y="260" width="125" height="125" as="geometry" />
        </mxCell>
        <mxCell id="IxJhe6KXW2kEp1sRZauM-10" style="edgeStyle=orthogonalEdgeStyle;rounded=0;orthogonalLoop=1;jettySize=auto;html=1;exitX=1;exitY=0.5;exitDx=0;exitDy=0;" parent="1" source="IxJhe6KXW2kEp1sRZauM-3" target="IxJhe6KXW2kEp1sRZauM-8" edge="1">
          <mxGeometry relative="1" as="geometry" />
        </mxCell>
        <mxCell id="IxJhe6KXW2kEp1sRZauM-12" value="API Gateway" style="text;html=1;strokeColor=none;fillColor=none;align=center;verticalAlign=middle;whiteSpace=wrap;rounded=0;" parent="1" vertex="1">
          <mxGeometry x="442.5" y="370" width="137.5" height="40" as="geometry" />
        </mxCell>
        <mxCell id="IxJhe6KXW2kEp1sRZauM-14" value="" style="shape=image;verticalLabelPosition=bottom;labelBackgroundColor=default;verticalAlign=top;aspect=fixed;imageAspect=0;image=data:image/png,iVBORw0KGgoAAAANSUhEUgAAAOEAAADhCAMAAAAJbSJIAAABIFBMVEX///8UkN9Q5v/+rhj+rBj+rxj+pBr+qRn+pxn+ohr+pRn+whT+vxT+vRX+uhX+qhj+thb/1A//0BD/zBH/yBIAiN3+rAD/37b/0wA+5P/+qQn+v2b/+N3+ngBS6v8Pi92l8f/+ogD+mwD+tAC49P+RxO2Hv+yr8v+hzPBytekoqeiCvOv/8dup0PH/+fH+sQD+5sT/9eeQ7v/+vXD/7rv4+/7m8vv+1ob+y22Hx+/+xXP+qi/+1qn+xID/66T/20f/9M7/4G3/1TL/4Xz/8MH/4oj/zyj/45T/1VD/89P/563/1mf/6bf/2Hz/yTb+4J7+yEn+vSz+wEj+xFxeq+b+tTjN5/j+1JkAoeb+tkj+uVnc+f/+2q7+0Zz+yYvM9///46bJAAAIpklEQVR4nO3d/V/TVhQG8IhDprwolhYIZtBWfK2lqIATnYw53ZiOzbcJvuz//y+WQixpc27ynHPvzW2yPL/aD/d+eXoxOY3oeVWqVKlSpUqVKlWq/C9zTZSu623D2ZxfkuUn1ztH82xpXpalgrS4JwXOL11zvXcs8gp/dr11LHtXpcB511sHsy+usCDv0b2r0hy43jqYZ0tC4C+udw7mubTBfdc7R7MvFW663jkYcYUPXe8cjbTCohxC73lNBnzmeuNwhBXWCnI96nkPa5JcrT13vXE4+yJh7VfX+4Yjq7D2m+t943khExbmEAorXNhzvW88sgpfut42nocLEmCBDqGwwuIcQu/VAj+1hd9db5uR8GcGP4UZH4Y5EPgW/nC9a05eCIA115vmRFRhQSZPp5EAD11vmhNJhYU6hJIKX7jeMysH02zgdMf1plnhNzhdlPHvaQ6m2Xntes+8hJUw86frLfNyyK+wKOPfKHzgK9db5oVfYcEOIb/Cgh1C73CGCZwZp0O4tb2V+RpugzOKQ4isZTzr9frqvYzXcCucURzCe6v1+i3jgozcrZ87dy5rWe57VHEI10/WumsekZYTYBaRXSF9CNejtXIl3jhdNJ3YnWEJZ2bpz2DWB2vlSBwAU4mHM7zsZK6VGzG2aBqRCfwLWOuGNZN6UTXx5SxPSI5/R9fKhTiyqIrY5fnm9rC1ciAmFg2Xpf5e3GFVOEt+BrNOrGWdSADDEC/kAclDuLVKLGWbSAPr24kX8iqkD+E2vZhVIg0kOuzOcjKn+AyG6tAukTgXJ0smz+HOHAeoGv/eU6xnjahosL6eeGWXA5x9q1zxVr5EVYNJIK/CWcGaVogMIKvCudTxb45EBpBVYTvjMxjOurkBu3OMqA9hxsqGW2R9J3cYwLRDmCeRBey2cWAb+QwmByJvCUaFbewzGOtnkbfAJl5h+5GVHRgDKt4kr3Hh39p7MEJkAhmnsM0Y/1okco85XmGb9RmMNSL3yjA8hVewwIcwCn5VzAr7O/eojQLxQyjdi84XVY71NjdA4BXOIYxioUX+zQtc4UZPsB/jLaqA6sEsXGGbHv9mxXCLgttPtML2G9mWzBIFQLxC8QehKqLgwzf+WxSvUHQIoxgjSoBohRuyQxjFEFECRCsUH8Iod00QRcAOWGFb9xF8Ay2KgN4jTNjQOIRRtFuUATsNCLjxjzZQu0UZ0HsLVbiROXmCotWiEIhVuHHF0L+D0SAKgWCFDWNP/4qJqg9DsoCdxiSQholDGEVFzHiMSdpgWCEANHQIo4iIqgZvZ62GVThpjtePgCh9i4YVIkJzhzAKmyhuEKuw8dkor5/bPKIciFX4vreoE/KGi9WiBhA8hQ29kO9xRosaQO8NJtRLY4VcG25RB9jLAzjZUNxVgi3qAL2jXCqcVF3vQUQtYM93CoSIWkDvKAfgZAoQIOoBe/55+5lMH85lEPWA4Sm0D2xkTR9TifTzcTAwjwqByz0Vsf9M4Tvy+bhVEJhHhT5yPUsTV98pHuKEG8yjQgioJG7Rb1K4Qe/9d5Zz3kdnc7fJB263SeHqnZvgV+35YwP0rt8hiKFwKylcvfPD8hr2VW1XyAEu/0AQ61vhTxoCODGBEW1XeN5fxIETEwQx/EnjfagTQJBou0IfvmnuAwli/UP/D4cHyBEQItqu0IdHc6fABLH+4+kfx2+xBkCEaLlCPnCE+A0YJ8aA2UTLFUqAQ8Qz4BlxCJhJtFuh/1UCjBHjwG/EEWAGcdFqhf5TGXBAHAaeEhPAdOJT/7K9+I+lwIg4CuwTCWAqsdP0WWEB6bETBDwhJoEh8SMBTCX2Vjg5ZhD9Yx1gSPxIAD1vjXwxeHWTHcabGgfe5O3ZKnGziQOPLAHtEh/DFVoE2iTiFfrvLQItEuEKLQOtEeEK/V30UQYhUE28ryV87E9B8S9bB9ohbjYx4FQeQCvEFbRC9LlTLaAFIlphXkDzRLDCJvokgzbQNLHT/B5JnkDDxBUf8E010bmhEaBRYicYR6BJIlKhA6A5InIKpwJ08mv0mkv13WISjwFhgE5+DV9UGmkROYWugGZaBCpsfgG/loXbAn0iUGGATn6t3PdoE4+yG0Qnv5Zu7DSJneBSRgJ08mvt5lyPeNTMADadA/WImRU2H4C7sDoH1CAeZQHR0bblWa6Y2MuosIlOflVA9IGKzEiJGadQG7im6YpFRsyosIlOfq032I+ImH4KtYFr+qx46M94UonpFTZ3wZVzabAffou7F1IyfkB+i70gFQgORu/nB2QTj9IqvDCOQCYxtcJL4GA0ZyCPmHYKm+MK5BDTKkSBOf6QOYuKmPi19ykVBuDkd8sFUEVc/jTyspQKUaD3iV7KMlBBTHSorhAG0h3aB5LExLKLygoDxm9UIC4y8gASxOQVorJCDpD4UZMPMEFMApUVwqPtKCPEvIAjROIaX1UhPPkdZIiYH3CISAA/KyoMnvBXihHzBMaI1F3ahYtkWuhoeyiD65p8gQMiteznwCBw0OLydb0N83NCJO+z6QoD+KHm0Zy0mHeD/fw7sTxBfV+fkBXKgf2/F+mV7If+P5gukUD4qW0yoxeFTkNWGKCj7SKEOoUB/NR2AUJVGMAPNRchzbIDiQoD+KHmQiT5g7RkwC+JCuHJb0GSOIVlAyYrRCe/RUnpgckKx+l/FTWRUWBQNuBohaUDjlbYKtZ/AQ/k67AQn/wWJd1hYEv/d+mOW4YrLCHQa5UdOFRhiznaLkKGTmHL/C+5dJ94hS3BaHvs042dQunkd7zz9KzClsZgdHwTq7CcwFiFLb3J77jmrMKSAs8qbJVptB3LZqvkwEGF5Zr8xvKtwtICvQenFZZs8htLVGF5gVGFQckmv7GcVhjAv6+jeIlOYXmB0a196eaGZ+mFwqB8g9FYvgQXW8clfouGwtZuCWcyQynzG7RKlSpVqlSpUqVKFXP5D+3XjWDh22IwAAAAAElFTkSuQmCC;" parent="1" vertex="1">
          <mxGeometry x="715" y="70" width="90" height="90" as="geometry" />
        </mxCell>
        <mxCell id="IxJhe6KXW2kEp1sRZauM-15" value="" style="shape=image;verticalLabelPosition=bottom;labelBackgroundColor=default;verticalAlign=top;aspect=fixed;imageAspect=0;image=data:image/png,iVBORw0KGgoAAAANSUhEUgAAAOEAAADhCAMAAAAJbSJIAAABIFBMVEX///8UkN9Q5v/+rhj+rBj+rxj+pBr+qRn+pxn+ohr+pRn+whT+vxT+vRX+uhX+qhj+thb/1A//0BD/zBH/yBIAiN3+rAD/37b/0wA+5P/+qQn+v2b/+N3+ngBS6v8Pi92l8f/+ogD+mwD+tAC49P+RxO2Hv+yr8v+hzPBytekoqeiCvOv/8dup0PH/+fH+sQD+5sT/9eeQ7v/+vXD/7rv4+/7m8vv+1ob+y22Hx+/+xXP+qi/+1qn+xID/66T/20f/9M7/4G3/1TL/4Xz/8MH/4oj/zyj/45T/1VD/89P/563/1mf/6bf/2Hz/yTb+4J7+yEn+vSz+wEj+xFxeq+b+tTjN5/j+1JkAoeb+tkj+uVnc+f/+2q7+0Zz+yYvM9///46bJAAAIpklEQVR4nO3d/V/TVhQG8IhDprwolhYIZtBWfK2lqIATnYw53ZiOzbcJvuz//y+WQixpc27ynHPvzW2yPL/aD/d+eXoxOY3oeVWqVKlSpUqVKlWq/C9zTZSu623D2ZxfkuUn1ztH82xpXpalgrS4JwXOL11zvXcs8gp/dr11LHtXpcB511sHsy+usCDv0b2r0hy43jqYZ0tC4C+udw7mubTBfdc7R7MvFW663jkYcYUPXe8cjbTCohxC73lNBnzmeuNwhBXWCnI96nkPa5JcrT13vXE4+yJh7VfX+4Yjq7D2m+t943khExbmEAorXNhzvW88sgpfut42nocLEmCBDqGwwuIcQu/VAj+1hd9db5uR8GcGP4UZH4Y5EPgW/nC9a05eCIA115vmRFRhQSZPp5EAD11vmhNJhYU6hJIKX7jeMysH02zgdMf1plnhNzhdlPHvaQ6m2Xntes+8hJUw86frLfNyyK+wKOPfKHzgK9db5oVfYcEOIb/Cgh1C73CGCZwZp0O4tb2V+RpugzOKQ4isZTzr9frqvYzXcCucURzCe6v1+i3jgozcrZ87dy5rWe57VHEI10/WumsekZYTYBaRXSF9CNejtXIl3jhdNJ3YnWEJZ2bpz2DWB2vlSBwAU4mHM7zsZK6VGzG2aBqRCfwLWOuGNZN6UTXx5SxPSI5/R9fKhTiyqIrY5fnm9rC1ciAmFg2Xpf5e3GFVOEt+BrNOrGWdSADDEC/kAclDuLVKLGWbSAPr24kX8iqkD+E2vZhVIg0kOuzOcjKn+AyG6tAukTgXJ0smz+HOHAeoGv/eU6xnjahosL6eeGWXA5x9q1zxVr5EVYNJIK/CWcGaVogMIKvCudTxb45EBpBVYTvjMxjOurkBu3OMqA9hxsqGW2R9J3cYwLRDmCeRBey2cWAb+QwmByJvCUaFbewzGOtnkbfAJl5h+5GVHRgDKt4kr3Hh39p7MEJkAhmnsM0Y/1okco85XmGb9RmMNSL3yjA8hVewwIcwCn5VzAr7O/eojQLxQyjdi84XVY71NjdA4BXOIYxioUX+zQtc4UZPsB/jLaqA6sEsXGGbHv9mxXCLgttPtML2G9mWzBIFQLxC8QehKqLgwzf+WxSvUHQIoxgjSoBohRuyQxjFEFECRCsUH8Iod00QRcAOWGFb9xF8Ay2KgN4jTNjQOIRRtFuUATsNCLjxjzZQu0UZ0HsLVbiROXmCotWiEIhVuHHF0L+D0SAKgWCFDWNP/4qJqg9DsoCdxiSQholDGEVFzHiMSdpgWCEANHQIo4iIqgZvZ62GVThpjtePgCh9i4YVIkJzhzAKmyhuEKuw8dkor5/bPKIciFX4vreoE/KGi9WiBhA8hQ29kO9xRosaQO8NJtRLY4VcG25RB9jLAzjZUNxVgi3qAL2jXCqcVF3vQUQtYM93CoSIWkDvKAfgZAoQIOoBe/55+5lMH85lEPWA4Sm0D2xkTR9TifTzcTAwjwqByz0Vsf9M4Tvy+bhVEJhHhT5yPUsTV98pHuKEG8yjQgioJG7Rb1K4Qe/9d5Zz3kdnc7fJB263SeHqnZvgV+35YwP0rt8hiKFwKylcvfPD8hr2VW1XyAEu/0AQ61vhTxoCODGBEW1XeN5fxIETEwQx/EnjfagTQJBou0IfvmnuAwli/UP/D4cHyBEQItqu0IdHc6fABLH+4+kfx2+xBkCEaLlCPnCE+A0YJ8aA2UTLFUqAQ8Qz4BlxCJhJtFuh/1UCjBHjwG/EEWAGcdFqhf5TGXBAHAaeEhPAdOJT/7K9+I+lwIg4CuwTCWAqsdP0WWEB6bETBDwhJoEh8SMBTCX2Vjg5ZhD9Yx1gSPxIAD1vjXwxeHWTHcabGgfe5O3ZKnGziQOPLAHtEh/DFVoE2iTiFfrvLQItEuEKLQOtEeEK/V30UQYhUE28ryV87E9B8S9bB9ohbjYx4FQeQCvEFbRC9LlTLaAFIlphXkDzRLDCJvokgzbQNLHT/B5JnkDDxBUf8E010bmhEaBRYicYR6BJIlKhA6A5InIKpwJ08mv0mkv13WISjwFhgE5+DV9UGmkROYWugGZaBCpsfgG/loXbAn0iUGGATn6t3PdoE4+yG0Qnv5Zu7DSJneBSRgJ08mvt5lyPeNTMADadA/WImRU2H4C7sDoH1CAeZQHR0bblWa6Y2MuosIlOflVA9IGKzEiJGadQG7im6YpFRsyosIlOfq032I+ImH4KtYFr+qx46M94UonpFTZ3wZVzabAffou7F1IyfkB+i70gFQgORu/nB2QTj9IqvDCOQCYxtcJL4GA0ZyCPmHYKm+MK5BDTKkSBOf6QOYuKmPi19ykVBuDkd8sFUEVc/jTyspQKUaD3iV7KMlBBTHSorhAG0h3aB5LExLKLygoDxm9UIC4y8gASxOQVorJCDpD4UZMPMEFMApUVwqPtKCPEvIAjROIaX1UhPPkdZIiYH3CISAA/KyoMnvBXihHzBMaI1F3ahYtkWuhoeyiD65p8gQMiteznwCBw0OLydb0N83NCJO+z6QoD+KHm0Zy0mHeD/fw7sTxBfV+fkBXKgf2/F+mV7If+P5gukUD4qW0yoxeFTkNWGKCj7SKEOoUB/NR2AUJVGMAPNRchzbIDiQoD+KHmQiT5g7RkwC+JCuHJb0GSOIVlAyYrRCe/RUnpgckKx+l/FTWRUWBQNuBohaUDjlbYKtZ/AQ/k67AQn/wWJd1hYEv/d+mOW4YrLCHQa5UdOFRhiznaLkKGTmHL/C+5dJ94hS3BaHvs042dQunkd7zz9KzClsZgdHwTq7CcwFiFLb3J77jmrMKSAs8qbJVptB3LZqvkwEGF5Zr8xvKtwtICvQenFZZs8htLVGF5gVGFQckmv7GcVhjAv6+jeIlOYXmB0a196eaGZ+mFwqB8g9FYvgQXW8clfouGwtZuCWcyQynzG7RKlSpVqlSpUqVKFXP5D+3XjWDh22IwAAAAAElFTkSuQmCC;" parent="1" vertex="1">
          <mxGeometry x="710" y="497" width="90" height="90" as="geometry" />
        </mxCell>
        <mxCell id="IxJhe6KXW2kEp1sRZauM-16" value="" style="shape=image;verticalLabelPosition=bottom;labelBackgroundColor=default;verticalAlign=top;aspect=fixed;imageAspect=0;image=data:image/png,iVBORw0KGgoAAAANSUhEUgAAAOEAAADhCAMAAAAJbSJIAAABIFBMVEX///8UkN9Q5v/+rhj+rBj+rxj+pBr+qRn+pxn+ohr+pRn+whT+vxT+vRX+uhX+qhj+thb/1A//0BD/zBH/yBIAiN3+rAD/37b/0wA+5P/+qQn+v2b/+N3+ngBS6v8Pi92l8f/+ogD+mwD+tAC49P+RxO2Hv+yr8v+hzPBytekoqeiCvOv/8dup0PH/+fH+sQD+5sT/9eeQ7v/+vXD/7rv4+/7m8vv+1ob+y22Hx+/+xXP+qi/+1qn+xID/66T/20f/9M7/4G3/1TL/4Xz/8MH/4oj/zyj/45T/1VD/89P/563/1mf/6bf/2Hz/yTb+4J7+yEn+vSz+wEj+xFxeq+b+tTjN5/j+1JkAoeb+tkj+uVnc+f/+2q7+0Zz+yYvM9///46bJAAAIpklEQVR4nO3d/V/TVhQG8IhDprwolhYIZtBWfK2lqIATnYw53ZiOzbcJvuz//y+WQixpc27ynHPvzW2yPL/aD/d+eXoxOY3oeVWqVKlSpUqVKlWq/C9zTZSu623D2ZxfkuUn1ztH82xpXpalgrS4JwXOL11zvXcs8gp/dr11LHtXpcB511sHsy+usCDv0b2r0hy43jqYZ0tC4C+udw7mubTBfdc7R7MvFW663jkYcYUPXe8cjbTCohxC73lNBnzmeuNwhBXWCnI96nkPa5JcrT13vXE4+yJh7VfX+4Yjq7D2m+t943khExbmEAorXNhzvW88sgpfut42nocLEmCBDqGwwuIcQu/VAj+1hd9db5uR8GcGP4UZH4Y5EPgW/nC9a05eCIA115vmRFRhQSZPp5EAD11vmhNJhYU6hJIKX7jeMysH02zgdMf1plnhNzhdlPHvaQ6m2Xntes+8hJUw86frLfNyyK+wKOPfKHzgK9db5oVfYcEOIb/Cgh1C73CGCZwZp0O4tb2V+RpugzOKQ4isZTzr9frqvYzXcCucURzCe6v1+i3jgozcrZ87dy5rWe57VHEI10/WumsekZYTYBaRXSF9CNejtXIl3jhdNJ3YnWEJZ2bpz2DWB2vlSBwAU4mHM7zsZK6VGzG2aBqRCfwLWOuGNZN6UTXx5SxPSI5/R9fKhTiyqIrY5fnm9rC1ciAmFg2Xpf5e3GFVOEt+BrNOrGWdSADDEC/kAclDuLVKLGWbSAPr24kX8iqkD+E2vZhVIg0kOuzOcjKn+AyG6tAukTgXJ0smz+HOHAeoGv/eU6xnjahosL6eeGWXA5x9q1zxVr5EVYNJIK/CWcGaVogMIKvCudTxb45EBpBVYTvjMxjOurkBu3OMqA9hxsqGW2R9J3cYwLRDmCeRBey2cWAb+QwmByJvCUaFbewzGOtnkbfAJl5h+5GVHRgDKt4kr3Hh39p7MEJkAhmnsM0Y/1okco85XmGb9RmMNSL3yjA8hVewwIcwCn5VzAr7O/eojQLxQyjdi84XVY71NjdA4BXOIYxioUX+zQtc4UZPsB/jLaqA6sEsXGGbHv9mxXCLgttPtML2G9mWzBIFQLxC8QehKqLgwzf+WxSvUHQIoxgjSoBohRuyQxjFEFECRCsUH8Iod00QRcAOWGFb9xF8Ay2KgN4jTNjQOIRRtFuUATsNCLjxjzZQu0UZ0HsLVbiROXmCotWiEIhVuHHF0L+D0SAKgWCFDWNP/4qJqg9DsoCdxiSQholDGEVFzHiMSdpgWCEANHQIo4iIqgZvZ62GVThpjtePgCh9i4YVIkJzhzAKmyhuEKuw8dkor5/bPKIciFX4vreoE/KGi9WiBhA8hQ29kO9xRosaQO8NJtRLY4VcG25RB9jLAzjZUNxVgi3qAL2jXCqcVF3vQUQtYM93CoSIWkDvKAfgZAoQIOoBe/55+5lMH85lEPWA4Sm0D2xkTR9TifTzcTAwjwqByz0Vsf9M4Tvy+bhVEJhHhT5yPUsTV98pHuKEG8yjQgioJG7Rb1K4Qe/9d5Zz3kdnc7fJB263SeHqnZvgV+35YwP0rt8hiKFwKylcvfPD8hr2VW1XyAEu/0AQ61vhTxoCODGBEW1XeN5fxIETEwQx/EnjfagTQJBou0IfvmnuAwli/UP/D4cHyBEQItqu0IdHc6fABLH+4+kfx2+xBkCEaLlCPnCE+A0YJ8aA2UTLFUqAQ8Qz4BlxCJhJtFuh/1UCjBHjwG/EEWAGcdFqhf5TGXBAHAaeEhPAdOJT/7K9+I+lwIg4CuwTCWAqsdP0WWEB6bETBDwhJoEh8SMBTCX2Vjg5ZhD9Yx1gSPxIAD1vjXwxeHWTHcabGgfe5O3ZKnGziQOPLAHtEh/DFVoE2iTiFfrvLQItEuEKLQOtEeEK/V30UQYhUE28ryV87E9B8S9bB9ohbjYx4FQeQCvEFbRC9LlTLaAFIlphXkDzRLDCJvokgzbQNLHT/B5JnkDDxBUf8E010bmhEaBRYicYR6BJIlKhA6A5InIKpwJ08mv0mkv13WISjwFhgE5+DV9UGmkROYWugGZaBCpsfgG/loXbAn0iUGGATn6t3PdoE4+yG0Qnv5Zu7DSJneBSRgJ08mvt5lyPeNTMADadA/WImRU2H4C7sDoH1CAeZQHR0bblWa6Y2MuosIlOflVA9IGKzEiJGadQG7im6YpFRsyosIlOfq032I+ImH4KtYFr+qx46M94UonpFTZ3wZVzabAffou7F1IyfkB+i70gFQgORu/nB2QTj9IqvDCOQCYxtcJL4GA0ZyCPmHYKm+MK5BDTKkSBOf6QOYuKmPi19ykVBuDkd8sFUEVc/jTyspQKUaD3iV7KMlBBTHSorhAG0h3aB5LExLKLygoDxm9UIC4y8gASxOQVorJCDpD4UZMPMEFMApUVwqPtKCPEvIAjROIaX1UhPPkdZIiYH3CISAA/KyoMnvBXihHzBMaI1F3ahYtkWuhoeyiD65p8gQMiteznwCBw0OLydb0N83NCJO+z6QoD+KHm0Zy0mHeD/fw7sTxBfV+fkBXKgf2/F+mV7If+P5gukUD4qW0yoxeFTkNWGKCj7SKEOoUB/NR2AUJVGMAPNRchzbIDiQoD+KHmQiT5g7RkwC+JCuHJb0GSOIVlAyYrRCe/RUnpgckKx+l/FTWRUWBQNuBohaUDjlbYKtZ/AQ/k67AQn/wWJd1hYEv/d+mOW4YrLCHQa5UdOFRhiznaLkKGTmHL/C+5dJ94hS3BaHvs042dQunkd7zz9KzClsZgdHwTq7CcwFiFLb3J77jmrMKSAs8qbJVptB3LZqvkwEGF5Zr8xvKtwtICvQenFZZs8htLVGF5gVGFQckmv7GcVhjAv6+jeIlOYXmB0a196eaGZ+mFwqB8g9FYvgQXW8clfouGwtZuCWcyQynzG7RKlSpVqlSpUqVKFXP5D+3XjWDh22IwAAAAAElFTkSuQmCC;" parent="1" vertex="1">
          <mxGeometry x="710" y="280" width="90" height="90" as="geometry" />
        </mxCell>
        <mxCell id="IxJhe6KXW2kEp1sRZauM-20" value="Serverless Function" style="text;html=1;strokeColor=none;fillColor=none;align=center;verticalAlign=middle;whiteSpace=wrap;rounded=0;" parent="1" vertex="1">
          <mxGeometry x="725" y="587" width="60" height="30" as="geometry" />
        </mxCell>
        <mxCell id="IxJhe6KXW2kEp1sRZauM-21" value="Cosmos DB" style="shape=image;verticalLabelPosition=bottom;labelBackgroundColor=default;verticalAlign=top;aspect=fixed;imageAspect=0;image=data:image/jpeg,/9j/4AAQSkZJRgABAQAAAQABAAD/2wCEAAkGBxIQEhUQEBIQERUXFRUSFhUVFRYVFRgVFxUWFxUWFhMYHSggGBolGxcYITEhJSorLi4uFyAzODMsNygtLisBCgoKDg0OGxAQGzIlICYtLS0wMC0vLS8yLy0tLy0tLS0tLy0tLS0tLS0vLS0vLS0tLS0tLS0tLS8tLS0tLS0tLf/AABEIAOEA4QMBIgACEQEDEQH/xAAcAAEAAgMBAQEAAAAAAAAAAAAAAwYCBAUBBwj/xABDEAACAQEEBgcEBggGAwAAAAAAAQIDBAURIRIxQVFhcQYTIoGRobEHMsHRQlJyguHwIzNikqKjssIUQ1Nk4vEV0uP/xAAaAQEAAgMBAAAAAAAAAAAAAAAABAUCAwYB/8QAOBEAAQMCAgYJAwMDBQAAAAAAAQACAwQRITEFEkFxodETUWGBkbHB4fAiMkIUI1IzYvEVQ3KCkv/aAAwDAQACEQMRAD8A+4gAIgACKGVWKai2k3qTeb5ExWr3rqNoT+ro4+pZTbJHqtaesKLT1HSvkbb7Tb53goADUpSAAIgACIAAiAAIgACIAAiAAIgACIAAiAAIgACIAAiEVasoRcpZJLFnlorxprSnJRXH4LaVm9LydV4LFQWpbW/zsN0MJkPZ1qFW1rKZn92wep7Fp16rnKU3reL/AALRdNr62mvrLKXNavEqZsWK1ypS0o8mtjW4sZ4ekZYZjJc7Q1hp5dZ2IOfXv7vK9sVdAadit0Kq7Lz2p7PnzNwqSCDYrrWPa9us03HYgAPFkgACIAAiAAIgACIAAiAAL2yAAJYoAAvEAARAAEWMscMtZXKla27VJcor1LKDbFIGbAd6i1NMZrWe5tv4m19/oqNVnJvGTbfFtvzMC52qxwqrCaT3cORWbyu+VF74vaWENS1+GRXO1mjpIBr31h17e/Pxv4LSAJrLZ5VJKEFn5Jb2SSQBcqva0uIAFyVFjhnqOnZ69qw7Gm19lf3HZsN2QpZpYy+t+Gw3yvlq2nANvv5K/pdEyNGs6QtJ2Nw8Tt3Wt2lathdRwXWrCWeOrflq4G0R1KiinKTSSWLbeCSWttvUUW//AGh06eMLIlVlq05YqC+ytcvJczRFBJO4iMcgrZ8scDBru8czzKvc5JLFtJLNt5Jd5wLx6Z2Khk6ym91NOf8AEuz5nyW9b5tFqeNerOe6OOEFygslzNFRLSLRDf8Acd4e/IKrl0uT/Tb48vdfSbV7TYL9VZ5T4zmoeSUjQqe06t9Gz0lzlJ/Io+iNEmN0fTD8b7yeahu0hUn8rbgFd4e02t9KhSfJyXzN2ze06P8Am2aUVvhUUvJxXqfO9EaJ6dH0x/DieaCvqR+XAcl9hu/pzYa2C6x029lSLj4yWMV4nXqXtRSx6yMk9Wj2se9ZHwVxJbLaalJ405yg+DyfNan3kZ+iYr3aSFu/1abVyF+vHyv6r7RW6QL6EHLm0vJYmpVv2q9WjHlmyiXb0q1RtEcP24rL70fl4FlpVYySlFqSepp4p95qNEyM4t9VBl0hVHN9t2HHPxK3ZXlWeuo+7CPoQytE3rlJ82ZU7FUl7sZPjg8PEnVz139DxlE8vG3qHgtOrUy42c7/ANHmtRVJb35ksLbUjqnNd/wNpXLV+ql3x+BhVumtHPQb5NeiPOliOFxwWX6aqYNbVd4H0UlG+6sffemuWD8TrWK9YVcvdluep8ntKu1hk8nuPDF9LG7Zbd8stsGk6iI4nWHUeefnuV8BwrlvNtqlUeL+jJ7TulZJGWO1Sunp6hk7Ndn+D1IADBb0AARCC00FUi4S1NeD2NE4PQSMQvCA4WOSo1am4ScXrTePcWe57L1dNYrtPN/A5d7UFK0r9pxx9PgWYm1MpcxvbiqPRlIGTyE/idUccd9rDcShzb5valZKbq1pNLUks5SlsjFbX+We31elOyUnWqvBLJJa5SeqMVtb+b2Hxa/L4q22q6tV8IwXuwjuXxe0UVGZzrHBo49gU+srRALDFx+XK2+kvSevbZYSfV0k+zTTy4OT+lLyWxHEUTKMSRROjYxsbdVosFzr3ukcXPNysFEzUTNRM1E9KWUSie6JKomWieXXuqoNE8cTY0TFxF01VA4mDibDiYuJ6F5ZazidG478rWKpp0msPpQlnGS47nxWZPc9xV7W8KMMUspTllGPOW/gsWW2x+zmGH6atOT3Qiopd8scfBEaoqYGAslO8Z+S309LO8h8Qt25K19HukFG3U9Om8JL34P3ov4x3P0eR2ijWboOrPNVrLaKlKpHU5xjOLW2MktHFMudCTcVpYKWGeGrHhjsOdnbEHXiOB2HMeh7OK6OEyltpRj1jI+o3KYAGhblqWyxQqrCS5Na0Ve22SVGWjLPansa5FzOP0jhjTUtqlh3PX6IlUsrmvDdhVTpSkY+Iy2+obesbb+d81XE2s1k1mnxLlY6yqQjPevPU/MphaOj0saK4Nrzx+JIrW3YD2qv0LIRM5mwi/eD7ldQAFaumQABEAARa87PGUlNxTktTJJzUU22kksW3kklrbZIUf2mX11VKNmg8J1c5b1TWWH3nlyjI3QxumkbGP8AAWmV7IWOkI7d5+YKmdMekDttZ6LaowxjCO9bZNb35LBbzhRR5FEsUdWxjY2hjcguVe90ji92ZXsYkkYiKJIxBK9AXiiZqJnGJmomK2BqwUT3RJFEy0Ty6y1VDonjiT6Ji4i6aq13E6XR65na6yp5qC7VSW6O5cXqXjsNOUT6F7P7IoWd1NtSbz/Zhkl46XiR6yYwxFwzyHzit1LA2WUNOWZ3Kw2WzQpQVOnFQjFYJL85viSHp4cyujyQ9i8MzwBFtReOZkQUZZ4E4RDidJZ9mEN7fkvxO2VG+LT1lV4alku7W/Uk0rNaQHqVbpWYMpy3a7Dnww7wtEtVwxwox46Xk8PgVdRbaSzbeC5vUXShSUYqK2JLyJFa76QFW6FjJkc/qFvEg+Q4qYAFcukQABEAARD4R0lvN2u1VauOMXLRh9mOUfFZ82z630wt3UWOtNa3Hq478ZtQTXLSx7j4jBF3oiLB0h3ep9FS6Wl+2Mb/AEHqpIolijCKJootyqloWUUTxRhFEsUYLa0L2MSSMRFEsYmJK2ALFRM9EkUT1RMVnqqHQLZc3Q/SSnaW1jmqayf3pbOS8R0NuxTk68lioPCP29bfcsPHgXIq62sc13Rsw6z6DmrGkpGuGu/uC0rPdNnp5Ro01x0U3+882bVOnGK0YpRW5JJb9SMgVRcTmbqyDQMggAMV6gACIbUXisTVMp2iNODlJ4JflJcT0C+AXhIaLnJa182zqoYJ9qWS4byrE9stLqzc5bdS3biOlTcmoxWLbwRbwR9EzHvXH11UamW4yGAHzaT6DYun0fsmlPrHqjq5vV5ZlmNaxWZUoKC2a3ve1myVk0nSPuumoab9PCGHPM7/AGyQAGpS0AARADmXtePVLRj771cFxMmMLzqha5pWRML3mwC5fTK7p22n/hqM4RlGcZz0scMMJJLJPPFp9xUV7ObR/q0PGX/qXLo/m6jeb7Of72J1yb+qlpv2mHAdg2gFQIYY6xgnkbib7TkCQF83l7PrQllVoS4YyX9hx7xuavZv11OUVqUlhKL+8su55n2Ewq04zTjJKUWsGmsU1uaZmzSkoP1gEeCyfoyIj6Lg+PmvjEESxR3Oldwf4WanTx6qby26MteDe7auT3Z8SBcskbI0PbkVVOidG4tdmFJFE8URwJYhZBZRRkD0xWwK/dFoJWaHHSb/AH2vRI6hxOiFoUqGhthJruk9JPzfgdw5ypBErgesq7hIMbbdS8ABpW1AAEQASkksW8Es2wiTmkm28Es2yuXjbXVluitSMryt7qvRjlBeZoFnTU+r9Ts/JcxpLSHTHo4/t6+v2HG1+pCx3JYNBdZJdprVu/7NW5btxwqTWS91b3xLGa6qf8G9/LmpOiqAi08n/UevLx6kABAV8gACIAecwi1bdalSi5PPYlvZUatVzk5SeLebNq9LZ108forKK4fj8jTRbU0Oo25zPyy5LSNb08lmn6Rl29Z5dm8rr9HX7/3f7jsGtd1h6mCb96XvfDwNkr53B0hI+YWXRUEToqdjH548ST6oengNKlrn9IrIq1mqw26LnH7Ue0vTDvPlkD7DUhpJxepprxWBVbR0Hp4foqsoP9pKS8sMCyoapkTS15tj89FX1lM+QhzBs+eqp8CWJPeV01bM8Kscnqks4vk9j4PM1ost2uDhdpuFWWLTYjFTHphFmQWYK6Fy3k7PU083F9ma3reuK/Osv9nrxqRU4NSi9TX51nzA2LFeVWg8aUnHetcXziyFVUfTfU3B3mpUFT0WDsl9MPCn0umkku3RjJ74zcV4NM9fTj/b/wA3/gV36Gf+PEc1N/WQ/wAuB5K4Apr6ef7b+b/wJLJ00nVlowsuO99dklxfVg0FQPx4t5rE11OBcu4O5K2VKiinKTSS2levG8HVeCyhu3kdstkqr7WS2RWpfneapIp6YM+p2fkqLSGkjNeOPBvE8h2ePUhNcsqda0dQ3i4xdSSWpYSilFve9LHDciuX/fqpY06TTqam9kPnLhsOh7JqLc7RWeLyhHF54tuUpZ9y8SXMwtgdJlhh3kD1UeghEk7Q4XHIEr6RqPQChXYIAAiAAIhx7/tehDQWuXojsFNvO0dZVk9mOC7svzzJNKzWfc7FW6VnMUGqM3Yd23l3rVO10fsOk+tksllHj/168jk0KTnJQWttFzo0lCKitSWBKq5dVuqNvkqnRNKJJOkdk3z2eGfgvaqy8zXNw1JLB4FYuoXgACIengCKK1WeNWDp1EpRawa/Op8T5nethdnqypPPDOL3xep/DmmfUine0Gkk6NTb24PksGvWXiWGjpS2XU2HzA9lCrow6PX2jyyVXUj3SNdSM9Iu7Ko1lLpHjkR6Rg5BNZZSkRSZPZ7POo8ILHe9i5s7VhumMO1Lty8lyXxPHPDc1oklazNcywXTKp2p4wj/ABPktnMsNCjGC0YJJfnXvZmR2m0Rpx0ptRX5yS2sjOe55UB8jn5qQrl99IMMadB8HNekfn4bzSvi+5VsYQxhDdtl9rhwOJJkiKDa5ZtitiVhNn132a2HqrEpPXUnKp3ZQj3YRx7z5Td9jlXqwow96clBcMXm3wSz7j75ZLPGlCNOCwjCMYRXCKwXoRNLy2YI+s37h7q50TFd7pOoW8fZTgAoVfIAAiAAIte11NGEpbk2uewpZb73/Uz7v6kVAsaEfST2rm9Nu/dYOzzPsuv0co4zc/q/HL0RZTg9F3lU39n+47xGqjeU93krPRTQKVpG25429EIa8dpMCOrFaYMpxwZiEQABEKT7RLUtOlSTzSlJ/eaUf6ZFqva86dlpurVeC1JL3pS2Ritr9D5PeNvlaKsq09cnjhsS1KK4JYIstGwl0nSbBxKrtITBrOj2ngPmHzHxSPdI8s9GdR4Qi5cvi9h2LJcL11ZYfsx+Mi6c4NzVI6VrcyuZTi5PCKbe5ZnWsdy7ar+6vi/kdaz2eNNYQiorzfN7SQjumJywUZ9S4/bgsadNRWEUktyMjXttup0VjOWG5LOT5Ird433Or2Y9iO5PN838DFkbnLU2MuxXYvK+oUsYx7c9y1Lm/gvIq9ttk6stKbxezcuCWw13IjlIlxxNbkpDWBmS9kyGTPZM6PR2552yvGlHFLXOX1YrW+exLeza5wa0udkF61pe4NaMSrf7Lrl962zWWcKWO/VOS/p75H0g17HZYUYRpU0oxjFRiuCNg5SpnM0hee7dsXVU8IhjDB8O1AAaFvQABEAARQ16enFx3rApTTTweTWT5l7K9ft3PF1YLHbJfHlvJlJKGuLTtVNpeldIwSN/HPd7LRuu2dTPF+6/e5fgWunNSWlFpp6mijk9ltc6XuSa4a8fEkT03SG4zVdQaSNONRwu3szHofmKuoK5T6QSWuCl3tfMmXSJf6b/AHvwIRpZRs4hXTdK0h/O28Hku3OOKwKRf/TGrYqrpVbG98Jqt2Zx3r9H4rYdt9Ilspvvl+By76tULXTdKrSjo60/pRe9S2M308Fn/usuN/IrTU6ThLP2pLO/48MQuOvaX/tf53/zMH08r1crPZknvWlVw8El4ntnuWzw1UovjLtf1YnQisMlkiwMNKPtj8SeaqTpSp/lwHJVqpdlrtMustE898ni0t0YRyiuCwOjZbgpQzljUfHJfur44nUBsMrrWGA7MFCdM9xuSvIQUVhFJLclgvA9OdbL8oU8tLTe6Ha89S8TiWzpJUnlTSprxl47D1sT3bFiGOKstqtcKSxqSUeG18lrZwLf0ilLKktBfWeDl3LUvM4E6rk8ZNtvW28X4sx0iQyBoxOK3NjaM1PUqtvFttvW3m/EiciNyMXI3gLaSs3IjlIxcjqXDcFe2z0aMeyn2pvKEeb2vgs/UOcGDWcbBeNDnnVaLlad22CpaakaNGOlKXgltlJ7Et59o6N3FTsNFU4dqTzqT2yl8IrYvi2x0euGjYaehSWMnnOo/ek/glsXq8Wdo52urjOdVv2+ft1BdDRUQhGs7F3l82lAAV6sEBzbLbnOtOk0sI6ntywxx8TpGTmlpsVrilbKNZvWR3g2QAGK2IAAiAAIuLeNyqXap4Re1bH8jhWizzpvCcXHnq7ntLuYyink8yVHVOYLHEKqqdExSnWYdU8PDlZUUFwq3bSnrpp+K9CP/wAPQ/0/4pfMkCtZtBVedCz3wc3jyPmqmC4K7qK/y15slhZ4LVGC5JI8Nc3YCsm6Ek2vHgTyVPpWac/di5cscPE3aVyVWsWlHcnLHHwxLUDU6sechbipcehYW/e4ngPU8V8m6QW+2WZtTs/VLUpv9InuwmuzjweZVrVeNWr+sqSlwxwX7qyP0BJJ5PPgcC8uh1ir5yoxg99NuH8K7L70TYNJxj72W7Rj548fBa5ND2xid3HmOS+LqR7pH0i1ezGk/wBVXnD7cIz9NE0Z+zGr9G003zhJfFk4aQp3fl4gqK7R9SD9t9xHrYqi6Q0i8w9mVXbaaS5Qk/ijcsvsxgv1tonPhCCh5ty9AdIUw/LwB5Lxuj6k/jxC+cORs3ddte0y0aFKc3q7KyX2pPKPez65d/Qmw0cH1PWNbajc/GPu+RYaVKMEoxSilqSSSXJIiy6XYP6bb78OGfEKVHolx/qOtu5+xXz64vZwlhO2T0tvVwbS+9U1vksOZfrLZ4UoqFOMYRWSjFJJdyJwVE9RJMbvPLw+FW8NPHCLMFvPxQAGlbkIq1VQi5vUliY2ivCmsZyUVx+W0rl63m6vZjioLxb3m6GEyHs61DrK1lO3H7tg59iju+26NZVJfSx0u/V8PAtxQzt3Ve6SVOrsyUuG5kuqgLrOaqfRVc2O8chwJuD25G+/z3qwgjpzUlimmt6zRIVy6RAAEQABEAARAAEQABEAARAAEQABEAARAAEQABENC8LLOpho1JU8McUtpvgya4tNwtcsTZGlrst5HliqrarnrR7S/Sd79Nfhic0vhxb7u5STqRWElm8NvHuJ0NWSdV/iqKs0QGNMkJOGYOPeNu+977Oo10yhByeEU23qSzZ5FNtJLFt4JcXqLZd1gjRjscnrl6JEiaYRjtVfRUbqpxANgMz6Dt8lybLc1bXpKn4s7dhoyhBRnNzeeb9DaBWyTvkzXS01DDTm7L95PllwQAGlTEAARAAEQABEAARAAEQABEAARAAEQABEAARAAEQABAq3ddlUbTJbIYtd7LIa1OzQjKVRLCUtbz9Nhsm2aTpHA9gUSipv08ZZ/cTh25cLIADUpaAAIgACIAAiAAIgACIAAiAAIgACIAAiAAIgACIAAiAAIgACIAAiAAIv/9k=;" parent="1" vertex="1">
          <mxGeometry x="1101" y="50" width="140" height="140" as="geometry" />
        </mxCell>
        <mxCell id="IxJhe6KXW2kEp1sRZauM-23" value="File Storage" style="shape=image;verticalLabelPosition=bottom;labelBackgroundColor=default;verticalAlign=top;aspect=fixed;imageAspect=0;image=data:image/png,iVBORw0KGgoAAAANSUhEUgAAAO4AAADUCAMAAACs0e/bAAAAeFBMVEUAeNf///8Ac9YAcdWGs+cAdtcAb9Woyu5VmeCew+y00fAAddfy+f260PAzi9wAbdS+1vIhg9rs9PwbfdhyqeQAatT3+/7R4/bk7/rb6fh/r+Yvh9tfneFloeLV5veJtujH3PSRu+pPld+bwOvC2fN4q+Wlxu1FkN4Co8F8AAAMpElEQVR4nOWdbVviOhCGS0uLSzlGYAFFUVAX/v8/PECb9CVvM8mkqZfPt3WRcpuSZibPTJLJr1Li8buL/TSC9otIuHuWRhDbx8F9ZkkUsecouA9lHNzyIQbuLtLgXod3FwH3NY+Fm78OjzuPNrjX4Z0PjhsP9qahcU9ZTNrsNCzuoohJe+V1XGs44v5N4+Kmf4fEfYk4T1ViLwPifkZ7CHHln8Phfkcf3Ovwfg+Gu4w+uNfhXQ6Fe448LVcqzsPgbkcwtndtB8GdRn4IcaXTIXBXm9icXJvVALhvkcJcWeVbeNx4Ya4sfOCLxn0cy0R1Vf4YGnc+iocQFzrwxeLGBuwrLG7cMFdW9hUSdzGSR26jEhf44nD/jQ43+xcON36YKwsX+KJw44e5snCBLwb3OMLBvQ7vMRDuGMJcWagkOwJ3NqoVRqNiFgR3lGN7Ux4C92NkK4xG2Qc97mqkt/JNBTjwBeMeRrfCaJQeqHHfR/kQ4mLvxLhjCnNl5Rda3KdRD+51eJ9IcdejHtzr8K4pcb9G+xDiAga+INwFIPmYpxmxcDdUDgp8Qbh72+Dm2eb13/k/Wr2hbqkM5C6D4D7bEulseXbYwLDqAcW7gbjLILgWv1i6djbCWPSJWdqA3GUAXEuYy/C5fLAumPGFBL4AXLNfjJ28oQy6IMYXEvjacc1+sQKZ+cTqEcELSLLbcY1XyBwdMHBheAEwthcYE+lujgGcXuE7jnZ3mQ13ZZwsPLynYG2XCF5b4GvDNfrF2hus2/PhkUyv7fQTgtfqLrPgmhPprTDznGZlTqbiT/tDLOApUFuS3YJ7MV2o9c2d0gaIWQd3sgAHZLbA14xrDnOblNiR2K/Rw50sEiivJfA145rvokIsY6id633cyQo6vpZnhRHX4hdjfB4krzmRcCfP0PE1u8tMuFvLijXjL5xTR/8y7uQ5B/KmpuDMhGsLc0X2fjYA7uSlhPFmJneZAffZlkgfFnfyAsxvFIbA14Br9YsNjHvlBf2yyV2mx7X7xYhwy1TKTKlxJ++w6xiWtnpc+8MFgVtmVb2i9B8pSw5fs/n59JkWzd2kwZ28gzaqDIGvFhdQFgXHZYfV4qbtsvcO2VSMxPbpUPC/sA53sgPx6gNfLe7a/q5Q3DQVS53uuiVfd2eVFU9eaHGBhgltkl2HC/GLAXHZW/Mk7ODmiZQbrrei9LgwXm3gq8FdQCYFEG6Ztu+sDq5i366OwAy4k2/I/ZxqkuwaXFBZFAQ3++xcuI1bnBQXriZIE+7kD2AodIGvGvcFFOEAcMveZVu4whB1Xue52AOo3sqIC1qyapLsalyYXwyAm/VcMS1c/nQ8b24/E/lbItxcnWRX4gL9YhDcOj7Zz/q4PFLjS9Wyns/utsvMFNbAAhJ1kl2JC0yWgHFnyUbC5ZMnnyX4YN8Xc9lpsZKEw1UHvipcqF8MeDMfX1mSzfu4HE+8sk6NbO8Xz5ikDZ/zgOGm0l2mwgUnhuy4yfp4Ydf3k3HLmo5PiqKuQHdrlUhcpbtMgQsuiwI9d6uFoYTLc2grMU3wqqA3KlyVu0zGNSfS20KECBJueejj8p/sNX9tNK4qyS7jwv1iPrjpvo/L5xbdKgKPq3CXSbjv8ByqDy6fmGVc3ZvhcZONtEqVcBF+MS/crwFw5SR7HxfT/cPrZtbi6mgccOUkex8X4xcbP6601ujhovxio//uyovvLq4tkd5VmJn5TImbZN0kexcXVxZF+9zluLo8iiNu113WwUXu9fjgyqsqXlt+0KS33XB7SfYOLrK/mA9usuzj8v1E3ZayI243yd7GxZZFeeFmfVweIpGFCL33lXCxZVFeuKyaQxZiEVenW7a6t3DF7TyMWrjosig/3Po71f9U2hyoK24n8G3h4t4k8cTlX9W/9e/ybegn3R/dGbfdT6TBxZdFeeGmdTS6qLYrxC2nm5g9cFuBr8CFh7lCXrjC0fd0z0Ru6tXtVjtdeoxuE/gKXIeyKAhubdnnqbl1cf/n7X8Kvnz/XhZFwr9fJ+3H8MBtAl+O61IWBcBNP+qUYv31qf7xdGNqNb1osoyGHT4P3GZ7huMa/WIaOaTV6zv2PoSKXWftUyjxwxWBb43rVBaFSKt3Va0tFD1NLoZlnQ+uCHxrXKeyKOfRrZdS6aW3T2esLfHC5WVVFa4u6LK8hx03VZbW8pVjWU4by+Z2vjR+Ci9cHvjecXFhrhBoZlb9sLllU7ben793x/9OD8ziI/LDrd1ld1xrWZRaNM6bNCtYAagJ88StAt8brtUvplE4X5VKnrhV4HvDdW2j/bNw72VViUd/sZ+Fe3/OJx5m5B+Ge3OXJZOZsxn5h+EmbPb7cH/ZzfxrpqrN7jc+iH7bMiP8IjJPC3ZdKXr1kSFbRNbhNlpA3Dxjn1/fu91xvk+YfKUceG/RhQiODaZhuOVy3iQ+X6Z5b6LIXuuE89HyGegCwHDh/fVTPna3HLedfgl5U8uuTTDzN6IL74Mlb67XkaqYWs/5bNmE90Fxe8mbUKm5JJWNtuI5n7N2hVNI3H5qLlTitfGdNslXnlvP151UZEhcKfEaJq0utiveb/l0zl4bQPKuqS0grpxWD7Npwng2vcrN1Lt+i+pO4uUg2+C4ik2TEFti3IDBl6ncblNte9W4s3VoXNWWWIgNz6yeD3kFP0+kP91ff8c8LovguMoNzwDb2UX9CYVbq765K8vL9RH18sDyJDSuZjub3KwgdkWEf4nXc99fXx727HZXB8bVmRXIrSiimEdUJfFt3uopn1c/DoyrtaJQG41E/7e/4n2L6tqd0uCwuHqjEbWNTOyHtXCryavjzguLa7CREZsE9bgfg+GaTILEFlD+TZVxO77HsLgmCyitwXcEuGaDL619Oz6uzb5Nas6Pj2s151OWXuinqoFw7aUXlIU1KtzqOLuPYXABhTWI06SsuHyeaGq9a1vvfpAHEaRsirAoTpxtJkaXr6IPg6yqQEVxdCWPOV+/idHlNdOdzFgoXFjJI2FBK38MiHs3rc+X6fxBQ+ECC1rpypX5kkb8f52t6u45BsIFlyuTFaPzBCA/U4E3o+nWzoTBVTe+CdpqQMxV9eKlUFZXhMFFtBogaySR8lfckjRJUc/L3Xs5D4KLaSRB1iakEA1gzssy+aq/yg/1HzNNbi0wS47Lrv9ISu1TH4eLahNC1QRGeS7hiQ+j8soPuhsLhYtrAkPW4kfRxWfH7xx1lyVd6T0SF9fih6qBkzw/rsToqXG1CRUMrvaUhNDtudJL90v0vLbgkowuuj0XWfO1nB2eRAJlN20ZefPdQtZW1zYDg+vQfI2utV5ZlJ/Tr9mfj7eeNaNut9eV9qpwXJfWeqSNE/M0zbLU75xiOK5T48SYbTFVAuO6tcWM2fRUSQHFdWx6Opla3ndY3ByIazww3diw2LK0EiviQXDFLq2tK6Vrw2JrO2r+xjYHGIWa6dZc9OTejtoW+Io29foqVDo1bZe1C5GbfJqN21rJi6f5W/hDAjciz2a0gLFvD1zzWwuniYttB6mNuEe3pm+O30EBlmMgRHP1yTHzW0NYlG9O4lLGidnzGAhz4NvczZPnC6M+Ok2oYI+tdZJpV8f3kA/zbdqZF1bzP4H01E6PG/No3ke4mANf86wfRKaHhf8BPbbjlyDHs1HK7O2z/rrn4VpDnL/UlvHJSHK4ljnwTVHnsPvK2Fqd5ug0S5I9ewSdJkkic4YFcvQVANfiLisTZb4+gMyHHpnCXCEIru1QS/ZmebiTaLY2L93IDrW0llWVm8s86BS93X2Uls9Ad2Qp4EDaPGPry0MgfT5mzLooJzyQFuYuozs5TZL94sZu7Fjc8R8mDXz+A3F/2VHhTmVVw4n6IHinsqrhpNho9MN1KasaTAq/mC/uaoBso6sKW5iLx3UoqxpKKr+YNy7YXTa4VH4xf1x0WdVAUvrF/HHRZVXDCBLmOuFiy6qGEeT8dydcoLtsWOWodAoK15xkjyOGijxRuMiyqiGU/UMB4HAXo8MtcZkyHC7IXTaktH4xGlx8CXdgYT8+8vXzUa01AIl0P1xMWVVwKQ21tLjOvcsCCJJI98RFlFWFVgkOcz1wV/CqucDagMNcD1x4WVVgGf1idLjbsUxWJr8YHa5j7zJqOTkHXHBHEfi6baQ74X6P4GFk8YtR4o4g8MWFuZ648QNfm1+MFBdWVhVQVr8YLe4i8uScORpCHHEjB752vxgxbuTA1/lTu/5izMAXHeb647o37fYWKpFOhRsv8MWHuQS4zk27fVWqC69D4yJ7l5EJl0gnw53smapmMbQYyC8WAHexn0bQ3sdy6oP7A/U/DlblX4mjmR4AAAAASUVORK5CYII=;" parent="1" vertex="1">
          <mxGeometry x="1096.07" y="475.25" width="149.87" height="133.5" as="geometry" />
        </mxCell>
        <mxCell id="IxJhe6KXW2kEp1sRZauM-25" value="" style="shape=image;verticalLabelPosition=bottom;labelBackgroundColor=default;verticalAlign=top;aspect=fixed;imageAspect=0;image=data:image/png,iVBORw0KGgoAAAANSUhEUgAAAZkAAAB7CAMAAACRgA3BAAAAdVBMVEX///8kg8UbgMT6/f4Xf8P0+v1mp9cAfMNXndEAesPf7PYnh8mYwuNsqdf7/f7u9vu82O2v0Ok9ks5Gl9A6jcuDtdzl8PjF3e+Jut+ozOfP4/LX6PS21Ovg7vfN4vFOmdB2r9qexuRfodQAdcGRveC2z+h+stwwG3H+AAAQ7klEQVR4nO1d65qyOLOVomLQqCAgKNiijtv7v8SdEwhJoHWm1f5s1o+Z92k5xKykslKHOJmM+Fvw5+9uwQg3tnT/7iaMcGGHAOW7GzHCRu55HsTZu5sxwsQ8Bk4NHt/djhEGSICeAF28uyUjOlgdFTHcoEXvbsuINk41MZyaUQX8IqxvxHiQjtuaX4M5A69FTTIKtF+CMGgTw6k5k3c3aYTEFL0ucPnuJo0QWFDPxKidfwMimxhu0NbvbtaI0sELZ4YV727YX4efgpua0YP2ZgTm6t+ogGoUaO/EtY8YTs323Y37yzi5Vv+GmlEFvA1OWdZaa/J3N/CvomSDxHiQfr27iX8TZY8sa1EzCrR3wE++I4YvNcEo0F6PY78sa1FzfHcz/x4WNjHAYf5t9KC9GnuTA0SWBEHMLL/zmIP2UhyYEZKBYx6uJpNVuUhNKT160F6IuSHLMLhFmFeX7rQBNgq0l4FUBjFHv/1xbsyn0YP2MiyNWREYnx+6Bo2OIc4XwQpiWskyhnCju3c08+8hMmSZw6lMjF3omB74CuSmXmahfdGuO61gdG4+H6Whlz1wrSJfBnuQjgLtychia4vpCsOY5owLtJGap8I/W04Zp6FaBRaB01E7PxNbh7fsPmbG6PNTsXMEMd3WrLJDBPiodg45fqLVfwCmXlYdvnFcmbnCnexBgRYzlvxIuz8ec1OWKWsWOy7du4I3D4Y4SwoAhx9q+0eDWLJMd7hjGzl1XvpYiPOEjDkn5AgDfUl/EPjmpWVPIBqvq/vfV+HmjPGo6L7Fpje6TK36P7LsuRjvD3HOkeYnHJ0H32Lbm1vm0lzE3vfoi+8OcS4o+gV9OJHAb+Qc+RvTbd0/Y5x9nfWlPN1dYJtgMFnFGOueDo/Tpcb0yP+2nS51z6+nU/nM7XQx8bcplTeUx9hj1ek/fuv/AeR9Mwa8HnPjFnL3hzgLELGDLYImPvOoAgJ6/BEVRc3MllKpQQK6JAnFmWBmM6NU3PDxCW+9SX/AdGwmqmfOV6LdMM7Nj3e3QNvK/i9o7TANN9eNRAVScgTgNcygZGZJlxsKlXDQHSlcS5ItPr4iIexL+gOmbdOO6qkQeUC10nV4ciTo9J53pigipX4MadcPEKbKb+1gBlMvlgNlTfGimoX0sw1ar9JKdK8tqHaL7SnnsO6NY48JpHd40HLdp5fGnGlUqOyngxkAphKpU6zUR3712ZPGkfSn7ZImRrjTIBBbFSXJdGf2CrQ7os9bRDkdC6NQekN1bqGLGe00LWYNmxe0Q+GfA6enxWv59S/C1kEi9ptq719XadrBHA34LgeNxBATn4NUnaBbRHGqNqsuZqh6LKcjCjOBcPHJ0dRDTy0G1alMK7XTUZ4A7ZWBWJmV4t8KtAK9NKg4grTtzC69ZtlxMTNTTz2iB4ACAEA/tr5q3jPu6VGN3ZVeTTrMNIauT6BBMuzf5+oBtUj2YFm7dPwYaT0FnMyoh/JGxDd86pzJemQZbFW/hGe9zHeZ4d2pPj/1mkLL2dYCN2Zsr7BOmyOG/CPSS33JADNLZCVp8MMd8lsQ9i3iWn5lVa2/DGY8elVXXPpUwHXgtTncvDJHrM3ZhbbUQACgpx0XC11mLn/B29ZTu1x7v+Zp87nJTLM89GlnHNhpXG9WSyz6io8IIL3NAL7e671UAAYzh9nnl+24BzwwHZFpZzhZzHj6KlL1zJr+ECdJgTXhArG1FD3+lYLX8rmd6t1kxPdSXWZW6ccf4eHWyw0xeVt52czU60PYJ9B6c9AiaA/6I4rYHN8cwc7Xa8dKyb69L5wOzEPJccPMZE0hrQfPR64zhdGTqqSs2SFEXue8OYsZDxO1yh8UwVzIGjm1fQKNG7NWnJTztFHJ1ImWW9IndKQA1ZKvc3ttXG/M8BUJsNosLtfqIydPx5EPFOLzNGGUMh2aNwSxg5lGgHGDA5RNr9dpiu1pSI/OF4eMQmuoh+ksJpPzjDb4R3Q3mYp/zuIym82kT+E8+6eZhGsmL5zN6AdmVHfcmBjv5N6R7De1D9NMwnQw0wiwLZ3mkiQ/7xxThxfnm/f7zhJU7KNQ/KfBXm+WtpvLnvA27aXZPOz3Nz5JdNpsNqfoE6MA7S7Ejbn7sEKcTmaaAtrWkQ3r9iUf7gp+Ci50oP98Wwq7mfEczpFD5/PP33n8MNqyzMp7dSVg9DDjcl52zxD+xCX6iWiPa0hM5bmYWcT0M+PZgf/2IQ8Qf7Cb/ufx1ZZl9mZ97nA/9zHDibUeP2/bwvEElAcQdvLFmXXi0spFQC8zjuzajv+69lqP+BZk2R7TUNle4dMDzLgSYLvuuHuizyMELp3udVX7rR9gxiWMDX8cfuB28Bkw9pD/mRlH0N86ZmMUaHcgN7v8bF/ziDVz2SrzBC4zdWmEC9Ym0tFrFzvm0scMrRxHNloRbOdSU+T5XXMpzB86FZJkJX9yfig73+sr//WDo4kfN31ub9PJBcy9ppsZpCdHVLk0iUVXlmuIlLI7FDUJZo/UtM9TD2SOAbDg0rDxxWbJUPz7d2CL30qASTal3/uagU6do9l0IeDZNV5z/gYYKB3I9kptc54f8fHMGQBlacooRfRqh+D/UW/26I9NZdHLuYy6sS73947izsh3xWdid0ZRZBBDN84NzQaTdCBsfPWomlCrYBY/YInmDM8ZISScr5cIqM8pyNKZXaA1jGuTifBCzJNO59l7TQF/0TZpFjNAt+6vWnQ9CNCjmUlKT0fsT0ybYp08M8ke6VPOTGMEyhjrDGD/4XjBFF3nujwbq+5ms61qw00jg9smzWQGb67KImlbq24olE+snlU+p7Rc0/5EPm4S/5XvoM2MCELRf1sK+h5mRAJxmxq60I3wRbQwjuo+yWN0MgPQTBh/MeMrbn1/ueyu/u4lRoDPl8kXGJp9nkf5XJwKSXw+Z0JCxFt8mVTWTi3ziX47KaLIWD46zEyKutBEPUo8mN9e6NjcJMujoiNCQv7AQnwoGsCy20tJHrUulQ1YHURcr9OsH3ERnjo6gKbX9aGILpIJoOe6Gpxc9JrUYQarZiLMA0kFZdPLeretDE0H7iVGdEGKV76EILt1LNnxET6jXpxPChAmkXHwjyvGZRVJWFpfemBMVoKEF8avx6ojI7rM8AEgnRREnz2w8AJ/Xql49iQKkN/Pts3gKY4iio3sKl6hGgCS12wj3xSfdNcvWTUpK/xnPpkyVk97fs/5RzSDoQNUNms9J/BYO+/LqaSwxQywRTM29s1DhFQ1UzRYf1FAJFPOTvRWBco7DJGLKuAfFDOVLAKiYiBBkYe2xeYE4iOVyW5ZRSE5V6xbRGMwE1E5LQmg9LyeZsGcLz4zwcyOq/ZgmiKtM0kuIlU6TcUhhweqGzAT/VDGFNMk5n0U6NRqfk/KHzOfrBHrab+hQzl2j6DoyxSTROGlXjPXYiKpKg3ODJ9QzTAPr4M/tpEOiN0lir1Mho05y/g3DfaZTwrOe3g4VODlxeHAL0pkhmABje+VyT/4Z252RbdV2K6+NpjJAISyI9onvqYJ79XFKRP/pFf+iX/iTMiZveVboEVJyHyXT8ihCIBFqgGcBODm2i/PqGMaG0w3/DH8jyQGqjpqlf6cq4NYv/rX7dhTXd16Zbpbpojpupmxt1XIeX8wIIcIQ2mQzljXG/JHX9u24KYAFDOTAKjSkDmVUdgd1bmGWdpO1TWYCVNgHWa4JZRfK2S1ZL9QWUyVQzcAq8aO+pf+XbeQt0FOC1GirzO7t3Uy9uHxQu1++BfbD9YyRjTe6b7KK6qsGV02IUp/4Q3djcuh5ZAbM/llTxSUOTtw7jtr0rJRzZqZU90FRxRnRPtVkzS1wZYvwWQmNpipExQXFPXIyWTJ1GqKXX3faLOMgq5xmxw8SFbyjY1Tq2Q6KMyn3E/61NeDvQu00jKNnOSMX94MKZfUA3d6fbsdjaMsoJU7drUD7GYHThzMZLoLiCoGnN86MqL0Nti/mzN1PCnAJuRXiaVCtKTTgIaZU2v9CMATE3eDt+SJKVKhl/wUrbD9f0IxaJH4GnjWiwVp/iMRpUP3gTdcEMj7KyklKqVq/cCshrKYEVUDYj3J1SZoTb3teiew3rZZNdcZxWdrzuzrFlTq9t0uRm6q92AcANIwc8RbGsoGpMdk05pfETfDoln4wAEidyHrq59tOnlqL+Rf12FLlnzjRO6k7ogByY1O3J1kNjP8u2/kB7LH+OpAZwqUzm7C2WAmVxqjxUykL/Ng1tzP382NZdeJ1zBTNbX3Ij4ir+LMNKdMiWKgTLSH/XQuChcnw780g9Yr98MTTWqeQXDpUWlw1UckM0l362MzI2o6CZ8EypBs0dsualxuLTSY2ej9jMlMya1Bc/tiNxlmpnFf3Zi5DdcF8sHlJ8/4zeT9MDVoFvgTHFycvlf1c2FifAmRLVLIXv/WmonOi4TYlRp5R91lzV1mslSdaWAxw0V6tyd3vdaMD6NGlWtKOswIgzk5PKfcanixsY+SGfrVILjjaMBdq+xPjjhBhK0AtHlrmJGdHqBKo8qp+3jILjO8C4/i/xYzPn9q5z5LHDbMLFoKQA+gDjO8qfi1pelTYgZZX1Wg5wxHH/rnDCZ3hEHOcAuWlGohWKORxDO154z4WwY68YBv/5yHdXSYOYE+BsRiRojBzoGEJAHsjKllzcx81uTU8T2PFNBdZiJu4hLqzK7/AfQV9TnL+kjcdzGd3rEN5tP/lqTGe0R0Hl9Hu/lR12Znf2MmQji2KmvBZTZbzJANBT2xbGb4QtM99m5HoRMOuTarfIX6KcJ1LRejLjN8jalcuao/hBPtmQjosE72ocCamLtc7m1j1pgzLqJolWdhdlAeRt5R5zIUS8mNGa4TbvyRGHFZkNWKzLet4SAjZ2EYfuVbUWulLZ7NjKiZZuuQ357tJcN+wFtwmYdhuYj0pZVqQMbXTv4K/5Cg/t2QLjOiwtuV6PJTyPuq+hwK2H2OJnj3KfozYuuZBahBvme8Z7yU0ZnsmC/GWWBigiiPpsSGS+XmVuFnpGkcM/pPq5uEHPbSNEWkCEE9kGuPZosZQQ1CHKfeTG0Rw4oCZ4s3QJrJTAwDRmUTGVIvFo88qpYYzGTMVRTxc5i7dYBLc5ydp9Sy+7wTWeq1FbJ/9lQ0eX5UFYU6xJCLnhCmvvIas1Myr5VGnW0ZCAc3CzoeTXnABvVYsr21nDBPMrNrN3JdKQd5rP0V/i4B6W5WA6wQDZipN02FLx6SWldvjHPfKnhulI0sXYuNa51JXdfds/Z/04BSx60k/DzKv4kRk5Jf062iXX0VeRTxvzq7yggXffFLD+13iNBds9i0GxCKmF5fM8rnZwgvHDsVsCXQwUEMnX5iZd59mGov4DOxd50OaC00R0cZzeL3p3M9C1d4xc+KFom12Fhuh8L+wY307yaVkyvCS46dDu1wmpGvZ58ihPHTxPxvB1cN2E5meOq77DNPOqKrtILUdPnrc4afh4TS/y597sXO9HCC12QIryJr2zN4LNPH48IuLyx3zK2wGI0XRUbI1zowXQXwx2v+X/wbOjqLrE0AeixNPUtV3+NaHvGDIEOO/hYwGYvKXw3rl2hd+NNr/9uwg+EgtCDmWTGJEYMo2Te5G/f/pMmInwUZTCnD8cdN3whHKW1jyY7jEvNO9KbVjL8d926UznDaUP3FiBfBlVYDQ/UXI14F39p00mrcXv4KrAwPJ2zGE8t+C9r+ZYBxiflFKJtI52CJ34jXoz6tZlxifh2ILBwct5e/EWtAevm7CTK/GYfp6MEcMWLEK/H/xVDmXN25yQUAAAAASUVORK5CYII=;" parent="1" vertex="1">
          <mxGeometry x="414" y="-110" width="396" height="119.09" as="geometry" />
        </mxCell>
        <mxCell id="IxJhe6KXW2kEp1sRZauM-26" value="" style="rounded=0;whiteSpace=wrap;html=1;" parent="1" vertex="1">
          <mxGeometry x="1320" y="17" width="220" height="413" as="geometry" />
        </mxCell>
        <mxCell id="IxJhe6KXW2kEp1sRZauM-27" value="&lt;font style=&quot;font-size: 36px;&quot;&gt;Tecnologias&lt;/font&gt;" style="text;html=1;strokeColor=none;fillColor=none;align=center;verticalAlign=middle;whiteSpace=wrap;rounded=0;" parent="1" vertex="1">
          <mxGeometry x="1398" y="40" width="60" height="20" as="geometry" />
        </mxCell>
        <mxCell id="IxJhe6KXW2kEp1sRZauM-28" style="edgeStyle=orthogonalEdgeStyle;rounded=0;orthogonalLoop=1;jettySize=auto;html=1;exitX=0.25;exitY=1;exitDx=0;exitDy=0;entryX=0.5;entryY=1;entryDx=0;entryDy=0;fontSize=36;" parent="1" source="IxJhe6KXW2kEp1sRZauM-27" target="IxJhe6KXW2kEp1sRZauM-27" edge="1">
          <mxGeometry relative="1" as="geometry" />
        </mxCell>
        <mxCell id="IxJhe6KXW2kEp1sRZauM-29" style="edgeStyle=orthogonalEdgeStyle;rounded=0;orthogonalLoop=1;jettySize=auto;html=1;exitX=0.5;exitY=0;exitDx=0;exitDy=0;entryX=1;entryY=0.5;entryDx=0;entryDy=0;fontSize=36;" parent="1" source="IxJhe6KXW2kEp1sRZauM-27" target="IxJhe6KXW2kEp1sRZauM-27" edge="1">
          <mxGeometry relative="1" as="geometry" />
        </mxCell>
        <mxCell id="IxJhe6KXW2kEp1sRZauM-31" value="" style="shape=image;verticalLabelPosition=bottom;labelBackgroundColor=default;verticalAlign=top;aspect=fixed;imageAspect=0;image=data:image/png,iVBORw0KGgoAAAANSUhEUgAAAQYAAAEYCAYAAAC+6VjXAAAAAXNSR0IArs4c6QAAAARnQU1BAACxjwv8YQUAAAAJcEhZcwAADsMAAA7DAcdvqGQAACEQSURBVHhe7d0HeJRVvgbwN5lJ7ySkQWghVOlIE1CsCGK5XBex767yyLXs3dW13Gtdy3pBF6+6rqJeXVdF7GADRUTpXboUgQRIQhppk2RS73cmBwtfJiSZ+eq8v33yMOcLKykz73zn/E8JKi0tbQIR0S8Eyz+JiH7CYCAiFQYDEakwGIhIhcFARCoMBiJSYTAQkQqDgYhUGAxEpMJgICIVBgMRqTAYiEiFwUBEKgwGIlJhMBCRCoOBiFQYDESkwmAgIhUGAxGpMBiISIXBQEQqDAYiUmEwEJEKg4GIVBgMRKTCYCAiFQYDEakwGIhIhcFARCoMBiJS4TH4AaShoRGFRyqVjzKUFdegwlWJymoX3NUNaGpsQl1dHULDQj1/NyzCiZiIKHRKiEVMYgRSMuLQKS1SecZ4Pk02x2CwidKCahzNLsTudbk4uKUQde4G1Cov9Fp3PepqGj1t8eL3lcMZDGdYMEIjHAgNCUFImBNRsWHoNzIdfUelILVLIiLjnfJvk1UxGCymsQHYueYodm7KRmVhLY5nl6HgaLlfXvT+Eh4VguSucUjKiEZSWiyGnd0dGX07yc+SFTAYzEz5zeQrL/z9u3ORs/0E9u/IRUl+FRprrfcrC4kKRnqPBPQZmo4ufePQZ3AXxCaGy8+S2TAYTMZV6cahbcXYu+0oNn9zEOX5bvkZ++k6IB4jz+6NnoMS0b1vMpyhHAs3CwaDwZqUn35ZURUKc6rw3nNrkftjifxMYAl2BmPkpF44/+rBiE8JQ2RM8yAoGYPBYATlJ15X14ADmwvx9vPf4UROtfwEndRnbDKunD0WyRmxngFP0heDQWfHsyvwyoPLUZxbgdqaBnmVWhIU1DyQOeis7rj6zglwRjTKz5DWGAw6cFfV44t/bsf3Kw6jSAkE6phu/ZMwflofjJvaR+l78GmrJQaDhrJ3F2P5e7uwY20Oal28O/CX+ORIjLywF86+oh8SkqPkVfInBoOfNTY0YefGHHz34Q/4YV2+ZzyBtOEMdSh3D1kYf1lfpPeKV57N8hPkMwaDn9TXNuDHnQX44JmNyD10Ql4lvQyf1BOTbxiC9EwlIJjGPmMw+KihvhE5e0vw+hMrUJzjklfJKEMmdMeMu0YjtlOEvEIdwWDwgbsceGDmAlSV18orZApKl2LAmV3wH0+fLy9QezEYOqC8uBovPfg1cnaWmGqNAv1aaLjTU8G44vYRcDg4F6I9GAztILoNi17dhNUf74O7klUGq0hMi8Hlt4zAsHO7yyt0OgyGNtr2bQ4+fnEzCo8q/QeypH6j0vDvt41Bas9YeYW8YTCcRnlRDT58biM2LT8or5CVOUOCMW3WCJz3mzOAYM6k9IbB4IXoNuxel4f5D3yNpnr+iOwmKT0Gs548B2k9OnmmXtOvMRhaUFfd5FnPsGvdUXmF7Gr6HaMw8Yq+XKh1CgbDKfZuzMPLD32Dmoo6eYXsLr1nAv7494sRERMirxCDQRJlx7fnrsWGJQeUbgR/JIEmIjoUV/5hDEZN7imvBDYGg6Ks0I35/70M2XuK5BUKRMGOIIw4vyeuuWccnCEOeTUwBXww7Fp7DK898i1qXOw6ULMe/TvjpscnIb5z4E6rDthgaGoAvn5vJz5+YTPX3JBKREwoZinhkDUsVV4JLAEZDOKMhbeeXINNyzg3gVp33X1nY/SUHrIVOAIyGB6e+SGKjnInJWqbCZf1x4y7RslWYAioYKh1KaFw9bsoL+Hmq9QOQUDW0FTc/syFCA4OjNlQATOr4/jhSjww8x2GArWf8ta5f2s+5t78WcAMUgdEMOzfWoAnb/kIrhP2PbyFtHdkXzHm3boEpYVV8op92T4YxCGvL/z5S9S5uGCGfHfsxxK8cNcylB2395uMrYNh78Z8LHx6rdIv5Dx48p/cgycw785PUFFk326FLV8xTU1NOLyzGG/PWe3ZtTkyOhRhkZwHT/5TlO3CnFmLUF9jz8FIWwZD3qFyvPbICk8onBShBEM4w4H86EShCw9f865s2YvtgqEwuwov3fv1r0JBCAoK8gQDw4H8qbSgCg9Mfx/uKnt1K2wVDAXZlfjHvUvRWN/yQKMIh4gopVsRwXAg/zlR4MK825agqsI+u4XbJhhO5Ffjjce+80x3Ph3PmAPDgfzo6P4S/PPRlaitqZdXrM0WwSCSWgw0lhW3vb7McCB/27X2KBa9uEV5ZP0BScsHgxhLWDBnDfIPl8orbcdwIH/79oM9WPrmdtmyLssHw3vzNuLwro5vsCLCgQOS5E+fvLQFe9blypY1WToYNi49pNy+5chWx7FaQf72ykMrUF5YI1vWY9lgOH64HJ/M34wmP6wNPVnK5CQo8hdRvpxzyyeeYwisyJLBUHnCjVcfXOGXUDhJhEMkS5nkR2KOw9/vXIaGOuuFg+WCoV75IX/w/AZUV2pTM+aAJPnTvi15WPP5j7JlHZYLhnWfHsSBrcdlSxuecGC3gvxk4VNrcGhnoWxZg6WCIXtPMZb+63vZ0pboVnBAkvzllQdWoK7Gj31fjVkqGN5/Zr18pA9WK8hfyoqq8N6z62TL/CwTDO8+tV73nXO48Ir8ac2n+7DpG2uMN1giGA7vKMbuDcdkS18/LbxiOJCvlJ7ER89uQUOt+adMmz4YRB34nb+tNrwe7CllMhzIR6JL8fLDX8mWeZk6GMQ8hcUvboWrzBzLWRkO5A+71+TiyJ4y2TInUwdDQU45tiw/JFvmwGoF+Uos/Hvq1sWmXqJt3mBoCsYbj62SDXMRYw4MB/KFmA257MNtnv1Jzci0wbB1xSGUt2N/Bb2xWkG++uLFnTh+zJxdClMGQ1V5LT5/bZtsmRNLmeQrcbPw3nPmnNtgymD49v09qNFoLYQ/sZRJvtq75jh2rzff3g2mC4bS4zXYsNRai064KpN88enLW9HYYK4VmKYLhs9e3epZQWk13AmKOipnbxHWfrlftszBVMFQWlCNvZuNmeHoD6xWUEcte3uH6iwUI5kqGBY+tdavm68YgQOS1BGFh11Yvtg8m8iaJhjqa4KRe+iEbFkXqxXUUasWmmdszRTBIO4SXnlomalupXxxslrBcKD2KMqtwIYlB2XLWKYIhsriWuQeKJEt+2Apk9pFeV/86B8bTVGhMEUwLHtnh+XHFrzh2gpqj4qSGuTtr5Qt4xgeDOXF1aZbKOVv7FZQe7x0/5eG3zUYHgw7V1u3PNkeDAdqq5LjLhTklsuWMYwNhsYgLH93p2zYnwiG8CiGA53ep29slo+MYWgw7FqXC3eVPY4NbwtPKTOCpUw6vW1fHdN9j9NfMjQYNi2z3kEcvmIpk9qiqaEJe9bnyZb+DAuGE/nVOLAtX7YCD0uZdDpfvbVdCQjZ0JlhwbBh6X5P3TaQsZRJrSk4Wo7DPxhzgpVhwbB3U+DeLfwSuxXUmg1LjOluGxIMuQfKUXjM2HKMmbBaQd5sX3VEPtKXIcGw+rM98hEJP1UrGA50CnEOxc41+s/1MSQYDu+21sm/evBUKyLZrSC1zSv0X1ilezCIueAVxW7ZolNxzIFOtXdjHoLgkC19BJWWlupaG3hv3gZsX5kjW+YR2ykCwY7Wc7KytFq3beeqXbWoqaqTrZ9FRId6tpFrSXlJNepqO17fEuXT6Ngw2dJXWbH42bb8tTtCghGfGClb5tXQ0ITSIpf/q21BwENvXYHOGbHygvZ0DYamxibMveVzVBRVyyvmEB7jxJyPb5At77atPIzX/rIcjcr3oYeWwuHe+Vdg4JgM2fq11x9fjq8XdnCKufLke/itK5F5Rpq8oK8PXliDj1/cJFu/dv71A3HDXefJlnmJ58WDMxcge0+RvOI/QyZ2x82PnyNb2tO1KyHezVwnamTLRNp4+PCQCT0w/PyesqU9T7filAFJZ6h2v7KktDj5SH918N69DA0y5i6mvYKDg5QPbX4/uT/qu1+JrsGQ80OJ5Xdpmj57rNLl0O8Yc1YrSBArLvWkazCI/fOtLio2HNfcPVG2tMeFVyQ01Ddix4Zs2dKebsHgVvrKBUfNffR3Ww0/pyf6jNCvL86FVyR8/qp+u0jrFgyVZW44TjPqbxUOpwMz7xyv8/1W85iD6MfaUbDO5Tgryttfijq3PquqdKtK7Fx9FAufNucBnuGxTsz56PRViVN9++EufPB3fb+nO+ZNQe/BLd+t+FqVeH75TYjzUhasqXFj5aLdsuVnyr+96atD2L3+qLzwa70GJWP8pX1lq2OcTifGT+uPkFCnvPJrP2w5iiP7fZt4J/YtXfTiJk/ZWAtByhvR4x//BrEJEfKKdnQLhn8+ugoHtppz4VRHg6GxsRGPXv8+ivMq5BXtGRUMudmFuGfaAtmyIOX7m7f0BiSltlx5mf/YF1j5rrmOiWvJ/a9PR2pmtGxpR5eb4SYlSrN3F8iWtYhNOcXX3xJRmrrj6akIsufdPZnQ4nfWykfa0iUYSvJcSt/IegfVCmKS0Zdvfy9bagkpURg31bfbXKK22rdR6e40av9OpEswFOl4q+1vYpr0kn99j6pK7xNw/u3WsUjpZtzkIAocNcV1qHJpP0lQl2CoKrPuhq8OZ7CnmrLy8x3yilpIqEMJh9GyRaSt4lztD6TRJRgO7rDubk3OEIdnGvJnL21DwbFSeVWt/8gMjJnSR7aMoeeMTDJOeXGtfKQdXYLhwPbj8pH1iIHFk3MHPpm/yTMDzZvLbh6JcC8rH/UQxhmSAaEoT/vdzzQPhobaILjKLL7/gnwj3rYqGxu+OtDcaEFUbASuv+9sr1UMPbS08IrsZdfqlud7+JPmwVBeUeFZbm1lDsfPs/Lef3YN3NXqfRJOGnBmV3QbHi9bxmheeGXcnQtpa88mGwRD/gF7bfoqlo7/68kVsqUmqhiz/muyof395oVXTt452JS4Ia2u9P7m5A+aB4PYG99udq49gh1rvK90i02Iwow/jZUtY3APSXtzVWp7fJ3mwVBVpm2yGUHsKbHwmdVeByLFi3Ls5P5I75UgrxiHqzLtqThf25Kl5sFQU6V9acUI5cXVWPC3la1u8/a7R85FSLjxqwYZDvZTXqjtgL7mwVBRoe/OM3ra+OUB5GefkC215PR4jJls7NyGkxgO9uIqtXowFNrzjkEQg0BP37YYtTXeZ3ZOv3Us0kzQpRCaS5msVthBWZG206I1DwZxy21ndTUNWPGx9+nSYnLUdBNNl26uVjAcrK6y1OLB0NriI7v4/NWtOLTL++zOrCHpmDDdHCswm6sV3GDW6ioqLTz42FTv0O2AFiOJAcgPXljn9cAU8WKcfM1wRMWZZxt0ljKtrbLSwncMrgpta61mkvNDEZYu3CJbajFxkZh511myZQ4ckLSu6gptx+40DgY3nE7NeyumsWLhHhTne997YuDo7sjokyhb5tDWcHA4ncjom4hufv5IytB+mzI7qq3SdlNYTfd8PLK3BPPvWy5b5tXano9iQdSDV73jOY68Lbr3T8KfnrvU031oSZXLjQdnLEBtdcd+sa3t+bjwf1dh9eK9stU+NdV1mPvJ9V73fNRK3uES3H3pm7KlIeXXYYc9H0+KSQjHXxfPkC3/0/TtvL7W/uMLpxLnFm5avk+21ETf/rJZo2TLPMTCKyMEwhiUFrT+uWkaDK3tXWBnC/+2zuvcBnEnIbYxF7flpmLcmi/qAEsHg9hhORCJUHj+7s+8fv8iHG74r0meLeGIzChwRgZ1dnhXEXas974CM7lrHM79zRmyRdQ+4kwTLWkbDF4G4ALFG499i7IS72tFLrxmmClWYBqJ+1R2jFbH7Z+kaVXi0I4i/N9D3jc1MQt/ViVONWZKFq764wSvZ04e2J6PZ//0mfIPyQunoVVVQowxPLpwpteqRFVlDb58Z6vydfr3hXw8uwyrOvo1t4fyZdupKhERHYq5X8yULf9juVKhZTAIN8+ZhEEjesmW2gcvrMa3H/wgW60zKhh4RJ25RMaFYc6nV8mW/2l6PxIa0fIBooHmvXnep0sLk68bIR+ZV2houHxEZhAWru1rS9NgEDX7+gAtWf5SaV413n9+jWypRcWE49a5F8uWOQUp/+OqTPMIjdF2jEHT/3pUHN9lTlq/5ACy93o/2DdraCqyhrfcRTALrso0j/BoC98xOJTnkIOjzh5istdrf/E+3iJGmWc9eiEiY8z9ruxZlclwMFxUrLYrdbW9H1FEavwNWElJvguf/N8Gz4BmS0S/8dKbzTdd+lRcsm28mEhtF59pHgwx8RHyEQnLFuxEyXHvm2yII/WzhqXKlnlxmzhjRcdb/I4hujPfWX5JnMo1d/aiVteR3HDfJDic5u+CiW3iRECQ/jp1jpWPtKH9HUOsvst4raCq3I21S7zPW4hNjMTk3w6VLfMSaz7CGA6GCLdyVUKIjOYYQ0s+eG498nO8bz1/zuWDTLepS0tEOIjxBg5I6is+JUo+0gaDwSCiK/Hh/HVeV2CGhYdg+u3qY+7MupSdA5L6ik/VdiqA5sHQOSNGPqJT/bA2F2s+8z6FudeAFEy6cqBsNTPzUvbmAUmGgx5ioi1+x5DSreW56dTs89e3oKLU+9kbF18/HKGRP+/bUKXxJqC+ap7nwDEHLYkVqVrfiWseDLGdWK5sTWVZDV57xPvEp3DlhXbHvIt/WsHubuXUK7MQMyQ5IKmd3oNSlFeuZmsfPTQPhtBwh/LBxVSt+XFHPnZv9L6pS0ZmMjIHN89tcFdZ4/RwT7UimuGghYETtZ86r3kwiOWuvYeYf8KOkcREyDf/ugp1bu8H1sx6/ALEJESgvl7bbcP9xVOtiBDVCoaDvyWndpaPtKN9MCj6mHxxkBmILsU/n1zu9Vj98IhQXHzjMNTVWeOO4SQuvPK/2CTtf566BEN0AkuWbbH9uxwc2pMnW2pnTemHtEzrDeZy4ZV/dUrV/pAeXYIhIdn/sx9DwhxKvzsF/Ud3Re+hqYjpZI8l3q8+thw1VS0fBBwUHIShY3rLlrWwWuEfoXEOXdYf6RIMYkfk4BD//VM9BiVh7ic34A/zLsHsJy7CHU9PxcNvXYURU7rJv2FdlQVuLHt3m9cVmCIcrIrVCt9lnpGsPAm0rUgImu75+Ev/uP8r5O4uk62O6zE4EX/822Wewa1TiQVKrzyyDDtW5cgrbaP1no8dcdeLl6JbVvsGmbTc89FV7sai+es9f88f3NXqsRJXWS3WL9Vo30Xl67bDno93PDMZfUakyJZ2dAuGjUsPY/FLm2Sr4+76xzR066OkphflJVW4/8r2bVpqxmDIyErEnS9c5nV36ZZoGQx6qHbVYvaE+dpM+7ZBMIj3wsc/vhKxnbT/HenSlRB6nuH7giCxuWyXzCTZapko6SV31XZJqh6O7C/GZ6/5HqRkH8GOYIRF6tMV0y0YouJ8r0zEKUnpUH44rRFdjBgdElUP3y3ahaK8ctmiQNe5SyzCwvSZLKhbMIhBJ/Fu7ovSYhfqaluf4CPGGY7nlMqWtbldDXj14a9lKwB4GXClZufd2M/TJdKDbsEgvqELfttfNjqmrqYBP+70XucXSgoqUVlaI1vWd+xACTZ+vc9rlcJOxAnOgfB9doSoRp053rfXT3voFwyKIaOyfE68959d2+KItlDrrsdLf1kiW+0jnpAtfTR/zvOHYd56cpVnZmRLX98vP3yi/N/F3VZL/139PuTXoqGW/13lHzbvanaP+JQIOMP1+yJ1q0oIYrrvnN9/CldZyxN42iqmczhunzsZqRk/D2iWFFTglQeW4ajyDttuSlh1zUxEnZd1CAXZpcqTRzYMIrYLj0mMbH4Se1FxohpVPvxsE1KjPTtVG/WtBgcF4dDuAlRXarO0PKVbfIuno4nKT+7hEtRVm3cdSv+RXXDrvPNlS3u6BoN4xr35+Grs3dJ6d6AtROmmU3oUnA4nGhoacSLf5fmTrK+mqs5TuqSf3f3yNHTr10m2tKdrV0K8M0/93QjPi9pX4o2z+JgLx3PKUHSsgqFgI9xD8tei4sPQTef9P/UNBkVCerjnGyVqDddW/Kz3MO03ZjmV7sEgZPQ3/+7HZDyurWg2aHxX+Ug/hgTD2Ml95COi1oluRSCHg5gYOObCLNnSjyHB0POMJMQl2WN2ImnPEw4Buk3cGWMz5CN9GRIMQtbQdPmI6PREGTUQw2HYBQEWDGMvyZSPiE7v5B6SgdStEDus9xum//iCYFgwiPMm0jMTZIuobQKplHneVYPg9OMGR+1hWDA0oRHjLukrW0RtJ0qZtr9zUF6Zgw2oRpxkWDAIfYanwBlm6JdAFmX3akXPoYmGHu9o6KsyIiYEZ03tJ1tE7WPnasX1fzpXPjKG4W/XQydZfwNXMo4tqxXKq1LMEDaS4cGQmBbl2QaeqCPsWK2Y9fi5hg06nmR4MIgNKKbNGiZbRB1jlzGHyJhQDBzTRbaMY3gwCAmpUYhP56nY5Bs7hMP5Vw+Cw2n8y9IUwSA2yrjunonK3YO8QNRBVg4HMaFp8rVDZctYpnkpJmfEICXDeucykvlYtVoxenJvNKJetoxlqvfoK247Uz4i8o1nQNJC4RCTHIbLZg+XLeOZKhjSM+PRa5D3U6aI2sNKpcxJM/TbAbotTNern/I7pY/lh63fiKxSyuycHoNzLhsoW+ZgumBI6R6LEZN6yRaR78w+IDn1pmEI1emEqbYyXTAIE6f3Q0ioQ7aIfGfWcBDbHI48z3xvhKYMhk5pkZhwBddQkH+ZMRyuv+ds5VVo1Eke3pkyGISzLs1CGLcQJz8zUylz5NTuSMs0bgVla0wbDOLEoN8/dJ5sEfmPGaoVDmcQZtw2TrbMx7TBIKT0ikKvQVxgRf71U7XCqHAIAmY9dr6pS6mmDgYxVfqa+8YiVEl4In8zqpTZc0AyBp5l7s2QTR0MggiFqbdwbgNpQ+8ByYjYEPz24YmyZV6mDwZh+MQe6D2EXQrShp7hMOW6YeiUGiVb5mWJYBCuvXciImPN2ycja9OjWjFwTAYmXWWuqc/eWCYYHKFNuOQm8ywyIfvRckAyJNKB6+8/S7bMzzLBIAw6qytGX6z/OX4UOLQqZd706DmecyitwlLBIAYgL7h2IFK6xcsLRP6lRSnzomuHov9I47draw9rBYMiLMKJmXePQ7CDZQrSjr9KmeLEtYtuGOgpvVuJ5YJBSEyPxMw/j2MJkzTla7VClCbvfmWqJefhWDIYhH6j0jB+Go+4I211NBzE6uBbnrhAucO15nofywaDcNGNg5DRN1G2iLTR3lJmkHInO2XWEGQO6SyvWI+lg0G4+YlzkJgWLVtE2hDVCnHmQ1uMmZKF838zSLasyfLBIEaRb37yHOWXZp1SEFmPeJ6FhZ/+zmHQuAzMuHO0567ByiwfDEJUTDhufHAinNz1iTTWWimzW58kXPvAODhDrP88tEUwCGmZcbj6nnE2+o7IrFoqZcakhOI/nroAUdHGHkbrL7Z6GWUNS8GMP46RLSLt/LJaERHnxMOvz0B0QtvGIKwgqLS01Hwbzvlo6/JsfPTCJjQ12u5bI5MJcgThnpenISrePqEg2PLGe9i53XHxDUMtPwBE5hYS7sR/PjfZdqEg2LZHPnZaJqb8lsfrkzbEQPct/3OeJfZW6AhbD9WNuSQTl88eKVtE/iE2Kr758Umeg5jtyvZj+CMu6IHpt48KgO+U9CBKleJOQZyzame2HHxsyZ71uVgwdy0HJKnD4jtHYvbcCxEZa//NiQMmGIRj+0vx2sMr4K6ul1eI2iY9MwGzn7wQcDTIK/YWUMEg1FcHY94fFqO8qEZeIWpd5tBU3PjgeNkKDAEXDCc9/59f4XhOmWwRtUwsiJp60xDZChwBGwz1dQ349JVt2PzVQXmF6Ndm3DkGA8d1Dcj5MAEbDIIYiNyyPBuLXtzMQUn6SXh0KG58YAK6ZCXIK4EnoIPhpCN7S7BgzhpUnOC4Q6DrPTgFM/48BuEBftI6g0FqrA3CW3NWYt+WfHmFAomYyTjukixccO0Z8kpgYzCc4tv39+K7D/egtoYlzUARlxSJf//DKPQYmCSvEIOhBWWFNXj5/uXKn1XyCtlV35HpuPbe8UBwo7xCAoPBi4b6Rqz8aB++XrBTXiG7mf3kRUjrHY0gi535oAcGQ2uUn0zBkXK8+cRqnChwyYtkdYMndMPU3w/lIcmtYDC00calh7D0jW2cTm1hCSlR+LdbR6PHGZ3kFfKGwdAO4q7hq3/two41OZ67CbIGcRLU+Mv6YPzlfRESxg2D24LB0AGHdhTii9e2I+/wCXmFzEicFzlgdAam3jwY0fH22KRVLwyGDgvCtm9ysPSt7agoqZbXyAzEFGZxmOxVd49DYpo9d1jSGoPBD9Z++iOWvPE9Guv5ozRabGIErv/vs5HSg6eT+YLB4Cfu6jrsXp2Pxa9sRH0ta+J6i0mIwFV/HoMuvRPgcHK7Ll8xGPzM7WrAvs0F+OiFdairDYxNPYyUkZWIi64bhq79YhkIfsRg0EhjXRB2bcjBms/24egPHKT0JxEAA85Kw+gL+qD7AJ52rgUGgw6y9xRjy9fZ2Lkmh2swfCD2XBw0PgNjLu6D2CQeYqwlBoOOmuodWLloN3asPoLj2aVo4k/+tMS8gy6ZnTD+0r7oe2aq8oyVnyBNMRgMUnnCjW/ebQ6JGlctQ+IXgp1BiIkLx/jL+2HM5Cyl78DBXL0xGAzW2NCI6so6fLNgD7asOBTQA5ZiEtK5MwZg6Nnd4QwN5uImAzEYTKRJeWMszq9A3o/lWPHeLhQcLZefsa8Bo7tg7NS+SEiN8OyLwLnm5sBgMK0guMprkHewFNm7i7Fv91Hk761Q7jCs++sKiXSg5+AkZA1MR9c+CUjpFo+QMJYYzYjBYCF17gYc2VeM49nlKDxSgYO7ClBaWImGOvP9CsWgYVqPBPQYmIzY5FBkZCZ5BhGbwPECK2AwWF2DAxVlVdi3OQ85e4tRVe6G212LsoIalJdUw11Th6CgIM+CIn9plDtqR8WGecYF4pIiEBoWgphOYcgckopeShhERIUpEcDSrFUxGGyuwR2E0qJKlJW4UFJahopiN1wF9T+FhttV5zljo77+53dyZ4gDIeEOhEeEeF784Z2DERUTjsTUaMTHxihBEIW4hEhWC2yMwUBEKhz5ISIVBgMRqTAYiEiFwUBEKgwGIlJhMBCRCoOBiFQYDESkwmAgIhUGAxGpMBiISIXBQEQqDAYiUmEwEJEKg4GIVBgMRKTCYCAiFQYDEakwGIhIhcFARCoMBiJSYTAQkQqDgYhUGAxEpMJgICIVBgMRqTAYiEiFwUBEKgwGIlJhMBCRCoOBiFQYDER0CuD/AQNrNh72KnYtAAAAAElFTkSuQmCC;" parent="1" vertex="1">
          <mxGeometry x="1353.15" y="105" width="149.71" height="160" as="geometry" />
        </mxCell>
        <mxCell id="IxJhe6KXW2kEp1sRZauM-32" value="" style="shape=image;verticalLabelPosition=bottom;labelBackgroundColor=default;verticalAlign=top;aspect=fixed;imageAspect=0;image=data:image/png,iVBORw0KGgoAAAANSUhEUgAAATUAAADHCAYAAAB4MsSiAAAAAXNSR0IArs4c6QAAAARnQU1BAACxjwv8YQUAAAAJcEhZcwAADsMAAA7DAcdvqGQAACv3SURBVHhe7Z0HfFzVne//09WsLluWezcGjCF0HBxKCnlhCZvySGGTDZAsCdn08rLZsCmb8ElYUvctLw4hi0kIyVLS6ISA6RAMdoy7LdnqsnqbmTv3zvv9zswYYUu2JM+MRnf+Xzi+ozvtzrnn/M7/f8r/eIaHh+OiKIriErzJo6IoiitQUVMUxVWoqCmK4ipU1BRFcRUqaoqiuAoVNUVRXIWKmqIorkJFTVEUV6GipiiKq1BRUxTFVaioKYriKlTUFEVxFSpqiqK4ChU1RVFchYqaoiiuQkVNURRXoaKmKIqrUFFTFMVVqKgpiuIqVNQURXEVKmqKorgKFTVFUVyFipqiKK5CRU1RFFehoqYoiqtQUVNyjjhSLJkcnlCUCeAZHh5mGVKUjEJxGojF5WDEka5oXNojcWnG40EoVyfOtyF12yiKSRVLFUpP8uhF81vo9Ui1T2RmAEemkFeqg4nHNQUeKQ9oG62oqCkZIhaPG/GqH3Jk+6Aj9Xh8EKnfissAxKsPj3sgZGGUvgEnLr22yCCOY5lmHqhbEKI2A6JW6vNICfSLxxl+QfJIKQStMiCyDEK3tNgrcwu9UgXBK8RrlPxCRU1JG30QrOYwBMykuLTiuI+ihrSPggbhSphg+IdH6g3VajK6Y8Qv+TnAA8EL4XOW45/lELX5ELV5sN4W4DgfQjcHx1IIoJffp7gaFTVl0sRhjcHYMq7kfriSu2GRbYFyPd9nyyY8jrJTjMC6MuKVaViSU6UZ11aG711W5JXTYd6dXOqTpXi8oMArNRA+WnAqb+5ERU2ZMDYEIwyrqweWWUvUkb90xOQOpJ2wyChyRsBypXuL1wO31ovjokKPvLsmIOtq/LIElltFwCPFED613tyFipoybmiZ0eujm/lSry23HojKPZ12whOkiMEFzHmourjWN5X75Oq6gFwEgZsBq81oMMRN5W36o6KmjJtey5FHYZH9utWSp/sdGYK1NnzI3wPTweKBMJMQUhFEmC7pJyBuf4dUgL9V1KY/KmrKuLi/zZI7kV6CmLXBUuvjSGVKAqajEqTEDUI8L4QEd/Sf6vyytsIvlcFc8Z2VyaCipozJsB2XnQO2/KIlJq/02/LqkCO9dN9okbnFpEmWfs78OK3IA7fUL5fAJT2l1CdFfrf8yPxCRU0ZlZZhRzZ2x+S+gzH5fZct+DOBm+s5RHxO0CNvKPPJW6v8cnGlX+bDPVWmFypqyuuIwq3cM+jII50xuQvu5nNwN00ver6MELI2IJ0Aq+1/w2K7pCYgJ5Z6Ycmp1TZdUFFTDjEE13LroC2/arbkdx0xabFwMl8NFYh7JXzSt1f65J8WBGVFMdxRnf4xLVBRU8xUjSgMsk29tvxrfUSe7E76mvnueaFm+JEWh0RuWlUoZ5T6pESFLefRDgNFoqi4T3fH5OPbwjjaiX4zrbeGGPJhV0TkA1uG5XftlgykVkkoOYuKWp7DuWcPtFny6e1h2RNxxEkJmoraoTyI49gH4/X6fVFZ3xw1kUaU3EVFLY9pDzvyp7aYfLs+KrthrkV5Ul2r15MUePbRtCCPft5syc+QuumvKzmJilqe0oNK+Thczp82RWXzECw0nlRBOyZ7w3H5FSzbWyBsnMfH/kglt1BRy0MYrPHxbls2tKSmbEDMVNDGza7huGxoteQP7ZaJzquylluoqOUZrIAv9Nny3xC0hzkooEEUJ8V+CNsPG6LyCvIyzIi9Ss6gopZntEUcWd8YTQjadIiqkaOEnbhsG3Tke7sjJrqvZdbCKrmAilqewL4fxkH70d6IPN9jJ+KeKZMHDcIw2gQuIbsXVi+XlWn/Wm6gopYncLDuPlS+B7pi0qKKlj58It+H5bux15Z+ncOWE6io5QG00Lhj03f2R2VvNBHoUeehpQEOriD14yEHXZ7tVVXLBVTU8oBOCNlvm6KyY8iRCI00HelML8jPTX22PAlXdD/yWJlaVNRczjAstO0DjvwSlkTEnFFBywRccfBwd0z+gqSyNrWoqLmc1ogjj3fGZMtwXGyeUE3LDF6PbBmMy2PdthyYhLVGA5rvGpm053NyaJQOFxO14yYu2jd3R+Rl43cqGQVZfHKRR66pC8jV87kLwpFtCPs3I2hdhnBvBpEG8JgBOKN4M4VsJIV4N/cyZcgjbg5T6PdIAR7jf3i82jqNhYqai9k/6MitTVG5oSEqoqGps4If4nRRhV9+eXKhMGguxYe71UeNeMVNOPTGcFy299myC4pGC3pn2JGeUcYYZvpF5gY9srzQKyfN8MqKEp/MLfZKFQSugAmf79PNYo5ARc3F/KHVkh82ROSpAdgAOtE2O0C4VkPN/n1JyGy/R1FrhCn2JCzmu9tj8nhfTIYtGHUQJU5rY1QURgEZjdRp7lnqwYs9OPrxvotLvfLmSr9cBNVbUOwzlpvyGipqLoXuzQ/qI3IjrLRhVg/VtOwA8amA8FxY7pOvLy2Qn6BReabXNjtwcZntEEQvUeFG3JBj3RvzhlQ19ZhAlfBypQTW9xtLfXJFrV/OgHVYjO9VVNSmDGY6+1D6LUf6oijwcEvYv8w9AkbCvSiLUFhLUYAr4IqMd4ejLb0x+UGDJb/qgFmgVlpWoeVUhn9WwYraOWRLFwTNzHdmP1i6bkWymFTBRZ0PP3Ql3NIPwnI7DydCeX6/VdSyBMWqF4W7JRyXxogju6BgjRQznOOCaJw2s/7Z/zIS6JgEUBnYf8KWuSTgkSUhjywu9EpdyCu1BRC8oPeIYez/PhCV/9dsyaZBfKhqWvYZeRszmf/J76H1dhaEbR3c0sshbtwFK5in4qailiGYqUwc3q8fdmQ3UgNSK9SrCerFv5ujSRHjC035G60QJp8neJqt8GKI2iKIWR3EbGahR+ZC4FZA9bjbeBWeg0bKV3ZG5PZWS3pT71XcTbLPrQ6t4DuqKWwBWQPXtAyNYL6hopZmYrDIOFTPEa7dsMi2dNvyUj/SgCNtsMwMdEOOd4YglYvgo2aiIJ9T4pXzyn1ywgyfcVW/sy8iD3RpJI68BGXjMgjbB2cH5FyUiUpY9PmEilqaYCbSlWwOO/K3AVse6ojJhoOxRMcZdSWT4sIvh5iy6C6ApXYKBG7zUNxEadXp1XkKhG1dmU+umROQi2sCeWWxqailAU6ohDcpj7THZH1TVP7cAwuJucoeY1pl2SYlpPlTjpXRQEN3arFXPjc/KO+E1cb2LR8m7aqopYGNnTH57oGovAAxY9z66MhyMxWFKHVHVdTyGzS2fhxOKvTK95aH5KwKvwTyoDtCRW2SsIO/PRqX9fVReag7Jjvg6g2mpmPkQWuoTBNQTgtQHE+EsN28qlCWwXILuXw+m4raJOizHHmx15aftVjy1x5HmvG3WeWiYqbkIhC2AA5vqfLLt5cWGGFzc0nVbuQJwr0yH+yIyY/hbv7hoC37ObGSRUQFLfuwOaZ1zJFgHtmXqE30kaBsWiijD3ba8vBBS1pRht2MWmoToHHIMVEv7miz5AlYajpdIsOkSiYsjUOggnK2fgma4xK4UTA6zPKgYr+YxuWJHlvMzBm9Na+HeYJ0VolHvrQ4JBdU+s2ieDeiojZOaKHd1WrJbXA5X+YsfZf3S2SUI0rcayc4Osd1jZxaVYRGoxDHEP7mjATOkA/5PTIXvtTsgFdqgx4zR29mgUeq8YIeWGzv2RI2R7WcxwB585n5QblqTlCWsEVwISpqx4A7BA3DKNvQGJWbkbZz7pcK2tF5XYlK/ZHIM2pNEEeOyjEbTeJjJC/qGGOGLYZAMeQOV0jMK/DKbIjWLPxdg8cVwdErIreoa4Alve7FIemiK6qiNjpoj1cXeuTTC4Ly3roA8t99+aSidgw4ReMhuJtf2hORBvo1LANaYY4OS1SqVBmBwTGZZ2VQs5NQqZbC/Jpb4JMFXMMK0arB39Uwz7hon4KXeksqpw8dx8h7FbVxwqxBmb52blA+vyiIBsN91pqK2lEYiMXlpZ6YfHRbWJrMgADQypIQLAoHj6wTyX5neIQQLY/Mo5UFoZoNkaqC1bVv2JE3VPjkzAq/cSnpTuIl4sfr/chPupbGYsPftBwmk8MqahMA+bO21CcfnxeQy2tpN7sLFbUxYCX5a78tn90ZkVdwNPU2XypKSrRGgj8D8BHnQagWQZGq6Q5CjWhZVcElLAuIzICgsdOeEV9LIF4MPc3urT/A0l1T7jMRJDLl7qioTQBkDwdbrpwdkBuWF7guyKSK2hhsh5Dd0mjJT5ot5BJO5FEdWQyhWgkXsQIiVQHhKkaixcVJm1U4xxheJgwSBQw1ohiPGfcthMe0vEbSB2v3tsaorIZlcD5ELVOoqE0Q5BGjedy4tEAWuGzAQEVtFDojjtwD6+Kmhqjsi+JEHokaW+331/jlill+KYeQldP6okWGxCU2E80GxpDb0KSilnMgj86e4ZMvzg/KJbWcmuse3CXRaYDLn17os83E2n3cgYk5lEf1g7JzwgyvXFgTkNPK/bK4xCez4HJyOoXKhIuA6HegwdnC7axchoraYRyMxuVPB2PyUDduNnuvFcWNoGi3Q9Q2DzqmC9VN7pqK2gg4J+3hdks2cbWAoricfjsuByKOWFyxMXLVxjRHRW0EPWi57oeF9soQbrAaaUoewH0x2sOpHa7cgYraCBjkce9QKuKGOaUoroa7XHVC2VTUXAZvKB3Ouw/GZB+XQSlKnsCBYi4DdJH3qaJGuFnK33pteRVWWh9ni6qVpuQJbMwHYa65qSlXUQMRJzHrvYe2uM5vUvKFZFl3k6CRvBc1B3b3EKyz+7ti0su1UKppSh7B3pY9w47sG3SkO+qYSczTnbwXNRpnHdG47ITrGXHBDVWUcYMGfD/K/r/VR+VH3Ce23ZJtA450wHVhQ88GfzqS96I2BFXb2mebhdeKkm+w2HNHx1s6bLlqW0Te9OKgfHJbWJ7ojAna+WlJ3otaP0Ttpd6Y2Op2KvkMyn/cB3cUDx/pjsm128Ny+ctDcvuBqHTBLeXettOFvBc1GGnyfD9umulMU2VT8pBU0fd4JI40CP1qRWP/Yp8j39sflSu2hOVnODZxx+5pQF6LGhevM579tuF4Ml6aOa2kEQ6wabZOM8xN80gY9WNn2JGN8GTWN1vyr3si8psWS9pyfDeqvA49NAhB+3NXTN67GUa3aakS5/OZENKn5gXkqtnpiYjK9YX3tlmyqsQrZ5T5zWTPTMAGqjniyHs2D0sPv4MVU0kfyFPGdzgd9/EdVX65qMonpzI2ew6S16LWHY3LfQctufpViBptVq0IRtQ+MNMvl1Wnp8ByYufGbtvsXERhszLUyHOghzvmf3FPWPpU1DIHWqU5QY+8tdIv76sLyJoZPhMo1JtD+Z3X7mcUN6jfQg3IW1kfHbbIQRTUtCSUMD8+j4l7GIz6mjQkfraX9UrFLLMgk5sskTvaY/LlnWH5S3dMOtGYcFVOrpDXltr+IVt+3WLJ9fX5F7J7LGipXb84KJ9ZwEfHD5edbTgQlZM18q37oHIg/efyoFxSE5CZIU/G9qCYCHltqcXgCoVNSA4lU8SRx3nbauYD0LAv7orI+v1Rqecm3zlAXosaMdNvjOmsVU9RJkTSuxnE4RZ4PL+AX7qzn0vkpxZXi1oYrk972JHdyOiXe2PyXFdMnu+OyQvJtBXnOxglTz0VRZk8cDnbY3H5bYcltzZbsmOKhc0VfWr8AVy32TrsSFMkLm0RR/aGIWjRuAwjs7mOjb8SDw0pt59xpBohettSMdRU3NLep6a7SeURyPeFIY+8uyYg187n7u8e3Ibs34dpLWqsMI0Qsr0QpgaIWdOQLQ0QqGYkThrs5sjmSEz+jpLJee+Ev4aKmnJcIO8XQNiuqgvIxyBs3Bs229M9plV1pkRxDRpdyufhTv4R5u7PDkTl67sj8oVdYfnBAUvuOQg3k2FU2GfJuQkjE8f8+YsPT4qipAfUsQZ4SD9ptOTxLlsG4Q1l22qaNlWa82DY6u8aistdLZZ8dGtYPrYtLDfj8VYam2wNUsKF/xVFmSJQF7vtuHx1Z1h2QtWyHdJr2ohaG9zLW/dH5NTnBuWze6OyAy6mTQEzQpZ8kaIoOQF7fnbC2LhpT0R2D2R3qkfOywED1tHF/MDmIfkejga1xBQl9/GJPNhjy186Y2YQL1vktKg9hcz4xu6I/ABixr04TT8ZBS2VFEXJTdgdhGTmsLVa8mSfnYiEkwVyTtTofXPH6DuaovKj/VH5PYRtT9gxwet0REtRphmos7uGHNmIerw9S/PXckrUOBjAQHQUs/9qtORRmK6c1KdipijTF0rZ4922PN4VM0EkMk3OiBrnGe2FoN3WEpVv7I3KCwOOicCpgqYo0xyvR3agbj/Za5tdqzJNTogaLbR6/Og72iz5ZoMlZjiAV6Z6lnVY5PpgHXOAptdyZACP2bpyZ6HMt7GKa4GwcaeqBztixoDJJFMuanFOpo3G5efNltwAQVOmFt6BZ+D23w73/8H2mDzXE5M9g7a04R71WHEjeAz8OGzHJYLEAsoJ0byPKnrKmMBA2QbD5U9wQdlgZpIpXybFkNpf3xuRX0DU+rM1PKIcFT9KRACF0BjLECtz9HtkHk4uDHpkftAr8wvxd6FX5hZ5pRrnakJeKcZrDm8lNZ6acgjclxUFXvnMvKB8aH56wsWPxpSL2n/si8htLZbsCqOl13KYGxwqEa8vGkEIBSPZsjjyMXQMx7j48TjACLRwMRjqeRUKbl3II7ORgj6PPNMdkzMhaOuq/OY1eGnaUVGbBqCBLML9P6vUK/edVpw8mX6mTNTortzXFpMb90dl06AjEV6FlsPpwUjRSz3GvfPgvxIoVgWErBh/F+KxH4W4B+5qJcSuForIvTrqYPHNZiqg8HmlAs9V4rkZODdZwVNRmyag3i9CY3fv6iJZWOw1jVy6mRJRYwHk1I0v7AjLxj5Heul2ahl0DyxRKLyHSAoMXVN4rFIO5aqE8FVA4MohZozkMAOPi+C+FuFxNY7c94VubRke8/lSHiF6dHFHQ0VtmoByUY37+eV5Afkg3NAybi6RZrIuavyyg1FHftQQlfVNFgRNC2DewUJA0eMxdeuTxaAQBX4mhGsmRG0WRK0cj0shZhQ1Hils5XgNBdEIHR7PQGLdYBy9t20alm4tU7kLbg0MdDmtyCMbTimSugIXiBoDNr7Qa8tlLw9LhCe07CmHwxJp0pFFk0EH5wTFuDC1cF1nQeQ4SFEKkeOg2rfQWJr101quchfcVw/u0XNnFssJJV7TRZFOsipqnOu0CyXu/6Lg/bQtlih4WviUyTBypDxl9RF2yqmVlttQ1GyRX55YKBdW+6SMo09pJP2231HgdgBbBm35aYuVnC+QOK8oE4blJ5Xgfh7aXFQFbVrANmgXtGAgA8tBsypq2/ptebhd96RTlLwHbc92iFp/LP2OYtZEjd7C5iFH7u+BNE923F5RFBcARfN6ZPtwXAY4qJNmsiZqDVDlv/U50sF1OOoiKEr+kqz+eyNxYTSikd2j6SBrovZSn22S9qNlETaCbAlTaZTRREWZGhJ7jvQyYIKd3nKZFVHj4udXBhzZCvdTRS1LQMCq4eafXOSVNxQnEmf6q+ev5AzQsp5o3Gw6nk6yImqtYceEFqIqK9mB84DOmOGVT84JypcWhOQL84OyFn+X8I7rbVByARg4A7DW0h20Iyui9iqstFYosvalZQlkNZcTnVvplyshZpfODsgltQH5x7qAVAf0Hii5AMqh1yOwd8SajqLGqRwtXLGu9Sk7IKtplZ0C1zMFp3CdXeWXkqDeBCV36IKxw1VG6SQrosbNhpu5EaDWp+wQj8vpZT45ccZrPWjMeq6VvBD+55wA/khvOVKUSZGJYphxUWNI6E4kDhYo2WFuyCMrSnxSjePBiCOv9MZkGCY+b/b/mhmQRVxErCOhypSC8mfKYPrLYcZFrQVWGsM/axXKAsxkiNdaWGlLChnQ0SP7oGb3tFmyb9AWtisnwXpbWpgcMFAUF5J5UYOlQCtByR5rK3wyD9YY9xDgDl0PdtqyscsW9gCUBTxyygyvLDDWWvINY8Hn05HIaOeOxaH5dXg82ntS5w9/no9Hzs9jGo2Rr6PVwL9HnhvrfUoa8OB/Rk/2mKW76STjUTr+pykqN+yPmn417VPLIMnsrQ2I3L66UM4o9UlbOC6/QP7/sCEq58F6+znOl0PUXumz5Sac+5+OGJq1MW4KPo8BHecFGcDRc6i+jwd+IvWgEyraEnVMwZ2dDPjIoAbt+IdBWgyjfX1SYBYwnhqu14vC3w1rv37kYBMeMpDkTDzPGGzD+MLtEHAHn1+D72E4cQo4w9oM47278dxBe8RvwHeU4Lk6fEcNUiHew6zg8zE0BvQuOqJx4V5Ah7RtjKxSJgHvMe7VtxYH5QoU2jlF6ZtBmXFRW18fkR83J/Yg0EKRQVBIgsjiD8/0y2eXhGQBCsmjB2Pyn2hQ7u+KSRkE6uHTi2V5sddsLnvjvoh8H8+FeVNGuy+oyex7+/ScgJwMl9VBdR9vQeHHDeNL7oLbezeEc27IK1fODsi55T5pDjtyb7sld1Jh6CeMNs2HBR5Pc27d+bA66UY/1h1D45iM7kJQIS6t9MnlULYl+E3cBfyTu8JSiKcuq/LL5fi+1RB2RtOtH3Tkm3jugT7HWKs4JdB4MyH572v8sq46IHVw1wO4FjoVA5Yj9fi8x2DhbsC17kMVYfE1v3+0vFImTvIef395SN41KyA1aQwWmb5PGoMwWjybJUXJOBzUfGdtUKqCXpSZuLw0YMujvbTGxFTmxyAw3OKOIbNXo0Kv4ZQPFq4xgJcqZ0GIzoCwnFPpN/PexkrnJdPaKogXjishhK9CTDg9kRbVifgwbr5yKtRk4XhcX7CqNPGesyBey0eM5KagNbYan8fXnAgBi0OUPlYXlK8uK5CL8KW0wPAzzb4JTN7kd3L093PzgnLryYXyDzhyZyx+ug0hZ76VQPUoiJ9aHJL7TiuSs3HteImSAUIoi4E0+5+45ZmFbkP0KBVHSQ+o37ICIrUKFZCWfCMsjSakKM0yEMGd/m2HJQepMoDW19kQK2OajAE3097Ua8vLcFef77LluTHSk50x2YUXDya/qxGWzW2NUbM0LszymiFBoFtIESLUydPw+z8M6666wGOCJ/ypNSZ/bo+9bldw5tN1C4JyJZSN7ukQrvmvsAK/sT0sn98alv/zalhugwW7w4TPFanCa26B+C2DOqa770cRmYV7VYJGL51kXNRYNFTSMgxqdxlctEtgsZi9N2GxbIWVtie11hZ/c+STltM+uH/sL5pT6JXlMF+CNFFGA+9pgnl3Y6Mln9gWln/eGZZPHZ52JNKX90TkAMQSXqb0RB15GiLx8xZLIodEIHNqwLLFMsZNWj42N2AK9KdxTR/dPixfg4v9JVzbF5Eegchx4fQXIWhvhzVZCbGi2P0Yr7lue0RugxV7F677NxDoGw9E5d/2hOWeliiELBE2nG74KgbXP9TBphwvIZS9xEBBestHxkWNG2NwX0gls3DrubfN9BthocH0FCrxK0bUXsv7IdTHF7pts0FJAe7LMlg2HEAYteXB27iEZQ9eyzh4W0ZLw0gQhgsgpnQpvSigz/UnIhtTEFOCmmn4DZxYfE65X75bH5HfQ6BoJXLg4FUkBlKgx3AmrNi3VPlkLsSpBT/uAbxuQ6slm/GaVjx/EJ46Y5gyJM5fkE+/aYvJHvweWoMXw51dgPxSay1NoFysQMMKLz/tTV7GRY2WAxpFJYNwN6WVqHArUWlZ6ZpRSXegInekhMWAByhID8MaqefG0ThDIbqY2zIZF+5wVQN8L0WJw4KHJ/zP0dG3o7K/vzYg8yAUr8JN/SOE4DkIauI1SFmA30IDqsNy5HcQqi7+7sOulRswX1rjl/lQfQ48vIBr5OgvBezQteJ/k/A3t23cAmv3ya6YsXKr8b7VyOM6xtMfJauUCcDyhht2Klx6ehjpJvOihlpmWjftV8sMyFdOS7gAVkqJH9YSKueLPTEzyvg6TGUV2QzLitMbBmCZ0GVjhzi71iakP7iV7Dg/Ear2z3D5FuHI2Fj3tVvyKNy3ZNdaVmFY6Mdhag3hOFpJ4yDK+RBgbpjch2t9AQL8V0Yo5O+mIh6e8D+yUZ7ttc2fZE2J1+xipaJ2/DCKzCrkJ6cLpZuMi1oFChFbSSUzeFDBuCxqXZXfuEkR1MDHO205kJrTxcZkRLJQj7ehojZA3OiCzoeFdQ5cUNO1xteME1os758VkLUQCh9K0WMQswdg1ezjQESayqm5nHFeEvsJn8fvssyXH3kBvMZFRT7zm7uijvjxucshxqvGSrDKFrIPbcRHzUQ+c3BBSQ8c0eY+rukm46I2GwWjwNQYJe2gYrKSzkUlXMEpDTjVCVHZDivNgs9UgfJyRMK92MEBA1hrZBYq6gdnByR4mGE3JlAaTpM4pdQr1ywKGctwLz5vfbMlz/bjQ9LoTkCnjjY4+zo423IbXO4Yv/6wS2BHtJmIi8d8qgIWKn/zT1cVHDX9eGWBfHJ+UGAAGzj9IGFYMKeVSYGsYxZytHppsW/MHfePhyyImlcKWdC1HKQf5ClH5BhmKHUjOZ3jhqUhuWt10ejplCK5Hs+fxh5aQPP/jEpYW+NtMaEyF8Cy+8r8UGJuF9K39kbMgMEoBtJxwV3Xx1tA2Y3WaCWu53C4zvUcVCDTDQI4qLAEJ9fgdxwtnYK0EvmUugYffqB5rGX5uChGI/MOtK5oF9NdZAzjLTOTpgqWQAgtY+a/KQ+B1bQClfXMCr8pHEwUKU58XVM+duKE1Zl0rfgeFDBooryvkn1rOHe0Cgvr73y894pZflkKUei3HLl5b1ie77PNBhrpHhigUE1EP8Z6LS8rJWiEy5+e67bljy0xub/12Inz3f7YYskTnZbGBTxeUGbZyPz9rIBZ7ZGJrMy41HCk6YSQV2ZpX0Ta4VyrZUUemQf300ZhobCwr6wJrmXLMdIBjo7CTeVdKcA9uqw2kBS1MaQBhhjXb76lym/67yg4f+215WdNlrTBTxyvmzgReCljCdVEgPZKKy449dMYXv7eNku+3RCRbzVEx53WQ9y2Iu/SLd55BbKuEOX23Gp/xrqlMi5q/AJ2us6mqKWGkZTjB1l5Gl0oWGVc0M3Rx7ubo/IduILfRPrGONKdrZYZNaSbd2qp3wwasK9jVHD7LpsZkLfW+M0i850Qzx8esGQnrB4K3NGaXE6JSN169sFxwuUxm2i83kwHSkMJ5eDJXghZSnj5/Zz2sXkgMZdvvGlHOC7Q8WNfuzI6uKcVuKfnwDXgFJl0T7pNkXFRIytQ+WrpgiYLtpIGUFHZL3Yi8pbZ2g5xuQUu0q87YnJn+zhSW0we6IzJnkHbCA07z8/F582kioy8TzRv8F3ryr3yrlq/uZcHULnv67DkwS7brLc8luXSj/fTayMoy2YqybEo96MCQDz5+uOFAUEOQsQoZDFcSy2UuxrJy8/mpUw0KZMDZWku7uk70TCmsj4TpKHIHJulxXA/UTozJMz5BcUBCeXCRNyYhcrJuGnNELUXYXmY0T+6kcdKuPPNUJpnul/rWn8zXAJOoj0EvocewkIUxOvqgma7Pe7+8wTE8N5DsYOOTQuurSc5f4zW1yKuo0w8dSQo+Jymcl65z3RZpGs1CrRMtvTZZn0qR0JX4hqW4vcc03vg00iZrIR5AfKwGBYyV7GcywnfGSQrokZTk/0+dFsOdWwokwT5Zywnn1nAzj7LTojTZorTRDq28L4miM2T8Ke47yLnuJ0ES41hgowhha/hoRwC+JHZAbP4vQCC9DS+h5F0E3u48l4i8Z6OmURgPEo7xJAh3Slqy0pw7bD4GOrn8NezuNfhNf8IEZ0T8uAUzh83Hoki/RHXzfDmDj7zIlSsf4A7XU2BH/H9I5MHCcXWxJSbg7Jr9B5PKZMAebkEGXghym1VOszvo5AVUSPrynyyjsNsE6l4yuigYr2x0i8LUONY6RtRUf/cBeWAGEzEHO6DyLBvbEc/K7qYkDtnQWyWma6CxHw09ttdtzhkGiYOQlDQHoOwcUJ1EDp6tJQK9UN24jt2DeAkqIVY3X5ioZk0HEB58CdTAK+fjWv42qKQrK3yiw+CA909fvBzIsi02+F2b4cYM9bbHDQI74VYf2Z+0DQM5jrwXeZacOS1lOKtZyETbjkhZBa0m9UEysRBXrL9Y//vpbO4tiOzZDxIZApuwMKAhd/cF024P8rkgNjQYrh3TZGsRavHkb27ITQf3xaWCCrnhMBn1UJEPgRf9svLC8xE3s29MbmxISq/hXvJeVq3rCyQEzgPDmLJwYgOCOgge/6PAnWVi+dv3huR+3oc6cfjhVDBT8wNynULQ0aIObF2PxfL99jSlCyCnAjMuGi06v8M824ehGcJEkfJ7oYgfWRr+LVmGL/7mlq/XDM3ICeX+WVzvy0XvDgkQ8mnjwDfSc6Glch5euejUXCg5DQ4uUZ2c3dM2mDxcnUZl3dy0vhifDejmXBt7a+aLPlJU1Re5bVq8Z0YyNM1RR65FvfqAygDmRogSJE1S41WwMlo9U9n848fqUwCVExaER+G27QAlhMLB6NNMPZXqiN+YsB1hdXyB7igfD8/Yikq/XxU5NNLvXLt7MR8tFQRZNyr+ajoJ6DFPVpaic9YUuCVWbD4UjrbjLaMwvTLxqg4uG4aldwn4cLqgLy3LpHeDHFlBI0tfTH5j4aINCannLANHG0UlJ9NsR0XfB0S177eVB+Vu1stI86c18flULyOd+Ea3geL7D048m/O9yvH85z+8lRPzLjQyuS4oNovF9UEMi5oJGuWGuGORhuaLfkOLAG11iYBRQ2Hq2f65RRYNJwZvxsV7kFYGU/THJpMluJt0C35GtywmRAhisfDnYlIHm+CpbYcTx7DMDsClttBeMN3t1uyEYJLa4iw92EJBJMbw7wNViYFtBhWGMWJr28YduQZ/JZHYb1xIflHagPyBohrAC94FpbYfzXjRanfiGt6S5lX3lzhlzqIUj0E8N8brLEttRR4H7RKlhVyaoHPrHulCNfASmSR5Mezj5Gb7DKM90v43i34DZvgOrNv0Ep8ijJekJeXVPnkOpQvWsfZCEOWVVFjYXkKhfZfdkXkldTXZv43ugpm14moxDR42epxVJGxyxgqZ1LgNnAkcgU+E3XbdN534jOH4JpxMi7j4U30o3mNdC/r4V7SEkz0pAGc43PQYxMimzteceIvyzlHcDlKuhUCwjllfOFSPF8F4ebzHfjAPYeZozAkpTbgkSJ8Rj/evw1CPG7RSf4+hmxilJGKwGtWH9fN9uL7ODq8A9fShuuK86nk88o4SN6qxcjXf1kckrfBUqvM8ABBiqyKGmGsrztbovKVfSh+pqAkzisTJKU06czDwz+TJeN4SsdY12Y+F/8c/tk02Ua+fuT3H/WzEg8n3Jly6L34J/UZh6MexeRI5u3n5gbkKoanokmeJbIjnSPgmsO3zQrI8uJk8MhkB64yQXjnmNJZ5w7/TB5T5yaTxro287n4h4IxMuH/18G/x/VZyTRRDr0XDw6/llRSJg7qNOs2N9v5AASNAz7ZJLvfBuhTz4MZ+p1FIZkN8TbD/qpriuIOkv2+dDtvXh4y2yxmO5x/1kWN0BLlSNc7Kv1SzWEwRVHcgSNmnuNXF4bMdohZ6kZ7HVMiagx3Qy373NKQmcWuVr6iuAAnbpbSXTM3KG+ZldjZi3U920yJqBnwY7mwmDO610LR1QVVlGmMHZfVhV75YG1A3glBKw1w1HpqrJUpEzX+XH455wldXReQ88vwF9fqKIoyvYCgvaHEK1fODsils/wyG+I2lUzttwMucL640icfgsKfxVmRqmuKMj3gzAUYIpxz+CEI2t/BQsvm1I2xyPo8tbFg9IRHDsbkR02WbBpITpjSvjZFyT2SisH1/acWe+QTc4JmGVSmo2+Ml5wRNdJncZmMLZ/fE5H9kbhER04GVRRl6oF1xg1o6FStKvbKd5eFZFVJIvpyrpBTokYsmLONw468Z8uw7MGlJRZa458p6nRUFAUkVcIHUWNo/kthmV2/rEBK/ayauVU3c07UGJaGawU7rbj8tD5iwk6bNX8670NRpo6k1/SOSp9cVReQcyr9MoOChnMqauMgdUHc9YgL4G+HsD3EIIh8QsVNUbIHBwNgZbyxzGumaqyt8JsAADPMGsfcJCdFbSTdUcfsvP1kty0PdVjyFEPsENNEJB4qipJGWMUgZgWoX9xT4N0zA3JGqdf0nVWa8FS5XfFyXtQIL7A94shzsNo29jpmA41Ng44JR2362lTcFOX4SYoZ+8wY0HU1RIyL0i+Aq1mFc/4cF7MU00LUUnB7s24rLs9C3J7osWXHUNwEB+ROSibE9EjfXoVOUcYmKWCEfWLc4GlhiBskeeQkWGdnl/nM2s0qxjafZkwrURsJBxP+1mvLY50xeRaWWwPEjTuUc3NeBkyMJG/YkajaKfnC6HWAmzmXoBqU+hJTM2bApVxRAIus3CfnVfnNtovTT8peY9qK2kgGIWT7hx15CdbbKxC6p4dss4kG57nRgHNwAx08iONmmh877X+xohwd0yuTLOfctJkhvhhEwot/5gRE1hT6TKj0k2CNLStmaHi+xx0NvitEjdNA+CNMwj8cfe6Dm8pNSVohbgfhnrbjcRjPDUEAdYmp4nZCsMK4BJMbHlXBEuNu99wZi+syYYiZEO6p7uiUlKmo5Tg21C0GdYOGGWuNf/OHqqAp+YARK/xD8eLeC5wJ5YeY0VqjeLlDvkbHtaKmKEp+Mp37AxVFUY5ARU1RFFehoqYoiqtQUVMUxVWoqCmK4ipU1BRFcRUqaoqiuAoVNUVRXIWKmqIorkJFTVEUV6GipiiKq1BRUxTFVaioKYriKlTUFEVxFSpqiqK4ChU1RVFchYqaoiiuQkVNURRXoaKmKIqrUFFTFMVVqKgpiuIqVNQURXEVKmqKorgKFTVFUVyFipqiKK5CRU1RFFehoqYoiqtQUVMUxUWI/H8BFhFxIN0AEgAAAABJRU5ErkJggg==;" parent="1" vertex="1">
          <mxGeometry x="1353.15" y="310" width="170.8" height="110" as="geometry" />
        </mxCell>
      </root>
    </mxGraphModel>
  </diagram>
  <diagram id="rFXMPKzwW8LATz_nC2rE" name="ArquiveSe - Class diagram">
    <mxGraphModel dx="2261" dy="758" grid="1" gridSize="10" guides="1" tooltips="1" connect="1" arrows="1" fold="1" page="1" pageScale="1" pageWidth="827" pageHeight="1169" math="0" shadow="0">
      <root>
        <mxCell id="0" />
        <mxCell id="1" parent="0" />
        <UserObject label="" mermaidData="{&#xa;  &quot;data&quot;: &quot;classDiagram\n    IUseCase~TRequest, TResponse~ &lt;|-- ICreateAccountUseCase\n    ICreateAccountUseCase ..|&gt; CreateAccountUseCase\n    CreateAccount -- ICreateAccountUseCase\n\n    class CreateAccount{\n        &lt;&lt;Azure Function&gt;&gt;&gt;\n    }\n\n    IUseCase~TRequest, TResponse~ &lt;|-- IDownloadFileUseCase\n    IDownloadFileUseCase ..|&gt; DownloadFileUseCase\n    DownloadFile -- IDownloadFileUseCase\n    DownloadFileUseCase -- IManagedFileRepository\n    DownloadFileUseCase -- IBlobRepository\n\n    class DownloadFile{\n        &lt;&lt;Azure Function&gt;&gt;&gt;\n    }\n    \n    IUseCase~TRequest, TResponse~ &lt;|-- IUploadFileUseCase\n    IUploadFileUseCase ..|&gt; UploadFileUseCase\n    UploadFile -- IUploadFileUseCase\n    UploadFileUseCase -- IManagedFileRepository\n    UploadFileUseCase -- IUserRepository\n    UploadFileUseCase -- IBlobRepository\n    \n    class UploadFile{\n        &lt;&lt;Azure Function&gt;&gt;&gt;\n    }\n\n\n    IManagedFileRepository ..|&gt; ManagedFileRepository\n    IUserRepository ..|&gt; UserRepository\n    IBlobRepository ..|&gt; AzureBlobStorageRepository\n\n    BaseRepository~TEntity, TId~ &lt;|-- ManagedFileRepository\n    BaseRepository~TEntity, TId~ &lt;|-- UserRepository\n&quot;,&#xa;  &quot;config&quot;: {&#xa;    &quot;theme&quot;: &quot;neutral&quot;,&#xa;    &quot;arrowMarkerAbsolute&quot;: false,&#xa;    &quot;flowchart&quot;: {&#xa;      &quot;htmlLabels&quot;: false&#xa;    },&#xa;    &quot;sequence&quot;: {&#xa;      &quot;diagramMarginX&quot;: 50,&#xa;      &quot;diagramMarginY&quot;: 10,&#xa;      &quot;actorMargin&quot;: 50,&#xa;      &quot;width&quot;: 150,&#xa;      &quot;height&quot;: 65,&#xa;      &quot;boxMargin&quot;: 10,&#xa;      &quot;boxTextMargin&quot;: 5,&#xa;      &quot;noteMargin&quot;: 10,&#xa;      &quot;messageMargin&quot;: 35,&#xa;      &quot;mirrorActors&quot;: true,&#xa;      &quot;bottomMarginAdj&quot;: 1,&#xa;      &quot;useMaxWidth&quot;: true,&#xa;      &quot;rightAngles&quot;: false,&#xa;      &quot;showSequenceNumbers&quot;: false&#xa;    },&#xa;    &quot;gantt&quot;: {&#xa;      &quot;titleTopMargin&quot;: 25,&#xa;      &quot;barHeight&quot;: 20,&#xa;      &quot;barGap&quot;: 4,&#xa;      &quot;topPadding&quot;: 50,&#xa;      &quot;leftPadding&quot;: 75,&#xa;      &quot;gridLineStartPadding&quot;: 35,&#xa;      &quot;fontSize&quot;: 11,&#xa;      &quot;fontFamily&quot;: &quot;\&quot;Open-Sans\&quot;, \&quot;sans-serif\&quot;&quot;,&#xa;      &quot;numberSectionStyles&quot;: 4,&#xa;      &quot;axisFormat&quot;: &quot;%Y-%m-%d&quot;&#xa;    }&#xa;  }&#xa;}" id="iIdyZgc0uXk-Rc0uo_Ki-2">
          <mxCell style="shape=image;noLabel=1;verticalAlign=top;imageAspect=1;image=data:image/svg+xml,PHN2ZyBhcmlhLWxhYmVsbGVkYnk9ImNoYXJ0LXRpdGxlLWdlTWVybWFpZE91dHB1dC0xNjgyODk5NTc5MDYzIGNoYXJ0LWRlc2MtZ2VNZXJtYWlkT3V0cHV0LTE2ODI4OTk1NzkwNjMiIHJvbGU9ImltZyIgdmlld0JveD0iMCAwIDEwNDcuODQzNzUgNTI5IiBzdHlsZT0ibWF4LXdpZHRoOiAxMDQ3Ljg0Mzc1cHg7IiBoZWlnaHQ9IjUyOSIgeG1sbnM6eGxpbms9Imh0dHA6Ly93d3cudzMub3JnLzE5OTkveGxpbmsiIHhtbG5zPSJodHRwOi8vd3d3LnczLm9yZy8yMDAwL3N2ZyIgd2lkdGg9IjEwMCUiIGlkPSJnZU1lcm1haWRPdXRwdXQtMTY4Mjg5OTU3OTA2MyI+PHRpdGxlIGlkPSJjaGFydC10aXRsZS1nZU1lcm1haWRPdXRwdXQtMTY4Mjg5OTU3OTA2MyI+PC90aXRsZT48ZGVzYyBpZD0iY2hhcnQtZGVzYy1nZU1lcm1haWRPdXRwdXQtMTY4Mjg5OTU3OTA2MyI+PC9kZXNjPjxzdHlsZT4jZ2VNZXJtYWlkT3V0cHV0LTE2ODI4OTk1NzkwNjMge2ZvbnQtZmFtaWx5OiJ0cmVidWNoZXQgbXMiLHZlcmRhbmEsYXJpYWwsc2Fucy1zZXJpZjtmb250LXNpemU6MTZweDtmaWxsOiMwMDAwMDA7fSNnZU1lcm1haWRPdXRwdXQtMTY4Mjg5OTU3OTA2MyAuZXJyb3ItaWNvbntmaWxsOiM1NTIyMjI7fSNnZU1lcm1haWRPdXRwdXQtMTY4Mjg5OTU3OTA2MyAuZXJyb3ItdGV4dHtmaWxsOiM1NTIyMjI7c3Ryb2tlOiM1NTIyMjI7fSNnZU1lcm1haWRPdXRwdXQtMTY4Mjg5OTU3OTA2MyAuZWRnZS10aGlja25lc3Mtbm9ybWFse3N0cm9rZS13aWR0aDoycHg7fSNnZU1lcm1haWRPdXRwdXQtMTY4Mjg5OTU3OTA2MyAuZWRnZS10aGlja25lc3MtdGhpY2t7c3Ryb2tlLXdpZHRoOjMuNXB4O30jZ2VNZXJtYWlkT3V0cHV0LTE2ODI4OTk1NzkwNjMgLmVkZ2UtcGF0dGVybi1zb2xpZHtzdHJva2UtZGFzaGFycmF5OjA7fSNnZU1lcm1haWRPdXRwdXQtMTY4Mjg5OTU3OTA2MyAuZWRnZS1wYXR0ZXJuLWRhc2hlZHtzdHJva2UtZGFzaGFycmF5OjM7fSNnZU1lcm1haWRPdXRwdXQtMTY4Mjg5OTU3OTA2MyAuZWRnZS1wYXR0ZXJuLWRvdHRlZHtzdHJva2UtZGFzaGFycmF5OjI7fSNnZU1lcm1haWRPdXRwdXQtMTY4Mjg5OTU3OTA2MyAubWFya2Vye2ZpbGw6IzY2NjtzdHJva2U6IzY2Njt9I2dlTWVybWFpZE91dHB1dC0xNjgyODk5NTc5MDYzIC5tYXJrZXIuY3Jvc3N7c3Ryb2tlOiM2NjY7fSNnZU1lcm1haWRPdXRwdXQtMTY4Mjg5OTU3OTA2MyBzdmd7Zm9udC1mYW1pbHk6InRyZWJ1Y2hldCBtcyIsdmVyZGFuYSxhcmlhbCxzYW5zLXNlcmlmO2ZvbnQtc2l6ZToxNnB4O30jZ2VNZXJtYWlkT3V0cHV0LTE2ODI4OTk1NzkwNjMgZy5jbGFzc0dyb3VwIHRleHR7ZmlsbDojOTk5O2ZpbGw6IzExMTExMTtzdHJva2U6bm9uZTtmb250LWZhbWlseToidHJlYnVjaGV0IG1zIix2ZXJkYW5hLGFyaWFsLHNhbnMtc2VyaWY7Zm9udC1zaXplOjEwcHg7fSNnZU1lcm1haWRPdXRwdXQtMTY4Mjg5OTU3OTA2MyBnLmNsYXNzR3JvdXAgdGV4dCAudGl0bGV7Zm9udC13ZWlnaHQ6Ym9sZGVyO30jZ2VNZXJtYWlkT3V0cHV0LTE2ODI4OTk1NzkwNjMgLm5vZGVMYWJlbCwjZ2VNZXJtYWlkT3V0cHV0LTE2ODI4OTk1NzkwNjMgLmVkZ2VMYWJlbHtjb2xvcjojMTExMTExO30jZ2VNZXJtYWlkT3V0cHV0LTE2ODI4OTk1NzkwNjMgLmVkZ2VMYWJlbCAubGFiZWwgcmVjdHtmaWxsOiNlZWU7fSNnZU1lcm1haWRPdXRwdXQtMTY4Mjg5OTU3OTA2MyAubGFiZWwgdGV4dHtmaWxsOiMxMTExMTE7fSNnZU1lcm1haWRPdXRwdXQtMTY4Mjg5OTU3OTA2MyAuZWRnZUxhYmVsIC5sYWJlbCBzcGFue2JhY2tncm91bmQ6I2VlZTt9I2dlTWVybWFpZE91dHB1dC0xNjgyODk5NTc5MDYzIC5jbGFzc1RpdGxle2ZvbnQtd2VpZ2h0OmJvbGRlcjt9I2dlTWVybWFpZE91dHB1dC0xNjgyODk5NTc5MDYzIC5ub2RlIHJlY3QsI2dlTWVybWFpZE91dHB1dC0xNjgyODk5NTc5MDYzIC5ub2RlIGNpcmNsZSwjZ2VNZXJtYWlkT3V0cHV0LTE2ODI4OTk1NzkwNjMgLm5vZGUgZWxsaXBzZSwjZ2VNZXJtYWlkT3V0cHV0LTE2ODI4OTk1NzkwNjMgLm5vZGUgcG9seWdvbiwjZ2VNZXJtYWlkT3V0cHV0LTE2ODI4OTk1NzkwNjMgLm5vZGUgcGF0aHtmaWxsOiNlZWU7c3Ryb2tlOiM5OTk7c3Ryb2tlLXdpZHRoOjFweDt9I2dlTWVybWFpZE91dHB1dC0xNjgyODk5NTc5MDYzIC5kaXZpZGVye3N0cm9rZTojOTk5O3N0cm9rZToxO30jZ2VNZXJtYWlkT3V0cHV0LTE2ODI4OTk1NzkwNjMgZy5jbGlja2FibGV7Y3Vyc29yOnBvaW50ZXI7fSNnZU1lcm1haWRPdXRwdXQtMTY4Mjg5OTU3OTA2MyBnLmNsYXNzR3JvdXAgcmVjdHtmaWxsOiNlZWU7c3Ryb2tlOiM5OTk7fSNnZU1lcm1haWRPdXRwdXQtMTY4Mjg5OTU3OTA2MyBnLmNsYXNzR3JvdXAgbGluZXtzdHJva2U6Izk5OTtzdHJva2Utd2lkdGg6MTt9I2dlTWVybWFpZE91dHB1dC0xNjgyODk5NTc5MDYzIC5jbGFzc0xhYmVsIC5ib3h7c3Ryb2tlOm5vbmU7c3Ryb2tlLXdpZHRoOjA7ZmlsbDojZWVlO29wYWNpdHk6MC41O30jZ2VNZXJtYWlkT3V0cHV0LTE2ODI4OTk1NzkwNjMgLmNsYXNzTGFiZWwgLmxhYmVse2ZpbGw6Izk5OTtmb250LXNpemU6MTBweDt9I2dlTWVybWFpZE91dHB1dC0xNjgyODk5NTc5MDYzIC5yZWxhdGlvbntzdHJva2U6IzY2NjtzdHJva2Utd2lkdGg6MTtmaWxsOm5vbmU7fSNnZU1lcm1haWRPdXRwdXQtMTY4Mjg5OTU3OTA2MyAuZGFzaGVkLWxpbmV7c3Ryb2tlLWRhc2hhcnJheTozO30jZ2VNZXJtYWlkT3V0cHV0LTE2ODI4OTk1NzkwNjMgI2NvbXBvc2l0aW9uU3RhcnQsI2dlTWVybWFpZE91dHB1dC0xNjgyODk5NTc5MDYzIC5jb21wb3NpdGlvbntmaWxsOiM2NjYhaW1wb3J0YW50O3N0cm9rZTojNjY2IWltcG9ydGFudDtzdHJva2Utd2lkdGg6MTt9I2dlTWVybWFpZE91dHB1dC0xNjgyODk5NTc5MDYzICNjb21wb3NpdGlvbkVuZCwjZ2VNZXJtYWlkT3V0cHV0LTE2ODI4OTk1NzkwNjMgLmNvbXBvc2l0aW9ue2ZpbGw6IzY2NiFpbXBvcnRhbnQ7c3Ryb2tlOiM2NjYhaW1wb3J0YW50O3N0cm9rZS13aWR0aDoxO30jZ2VNZXJtYWlkT3V0cHV0LTE2ODI4OTk1NzkwNjMgI2RlcGVuZGVuY3lTdGFydCwjZ2VNZXJtYWlkT3V0cHV0LTE2ODI4OTk1NzkwNjMgLmRlcGVuZGVuY3l7ZmlsbDojNjY2IWltcG9ydGFudDtzdHJva2U6IzY2NiFpbXBvcnRhbnQ7c3Ryb2tlLXdpZHRoOjE7fSNnZU1lcm1haWRPdXRwdXQtMTY4Mjg5OTU3OTA2MyAjZGVwZW5kZW5jeVN0YXJ0LCNnZU1lcm1haWRPdXRwdXQtMTY4Mjg5OTU3OTA2MyAuZGVwZW5kZW5jeXtmaWxsOiM2NjYhaW1wb3J0YW50O3N0cm9rZTojNjY2IWltcG9ydGFudDtzdHJva2Utd2lkdGg6MTt9I2dlTWVybWFpZE91dHB1dC0xNjgyODk5NTc5MDYzICNleHRlbnNpb25TdGFydCwjZ2VNZXJtYWlkT3V0cHV0LTE2ODI4OTk1NzkwNjMgLmV4dGVuc2lvbntmaWxsOiM2NjYhaW1wb3J0YW50O3N0cm9rZTojNjY2IWltcG9ydGFudDtzdHJva2Utd2lkdGg6MTt9I2dlTWVybWFpZE91dHB1dC0xNjgyODk5NTc5MDYzICNleHRlbnNpb25FbmQsI2dlTWVybWFpZE91dHB1dC0xNjgyODk5NTc5MDYzIC5leHRlbnNpb257ZmlsbDojNjY2IWltcG9ydGFudDtzdHJva2U6IzY2NiFpbXBvcnRhbnQ7c3Ryb2tlLXdpZHRoOjE7fSNnZU1lcm1haWRPdXRwdXQtMTY4Mjg5OTU3OTA2MyAjYWdncmVnYXRpb25TdGFydCwjZ2VNZXJtYWlkT3V0cHV0LTE2ODI4OTk1NzkwNjMgLmFnZ3JlZ2F0aW9ue2ZpbGw6I2VlZSFpbXBvcnRhbnQ7c3Ryb2tlOiM2NjYhaW1wb3J0YW50O3N0cm9rZS13aWR0aDoxO30jZ2VNZXJtYWlkT3V0cHV0LTE2ODI4OTk1NzkwNjMgI2FnZ3JlZ2F0aW9uRW5kLCNnZU1lcm1haWRPdXRwdXQtMTY4Mjg5OTU3OTA2MyAuYWdncmVnYXRpb257ZmlsbDojZWVlIWltcG9ydGFudDtzdHJva2U6IzY2NiFpbXBvcnRhbnQ7c3Ryb2tlLXdpZHRoOjE7fSNnZU1lcm1haWRPdXRwdXQtMTY4Mjg5OTU3OTA2MyAuZWRnZVRlcm1pbmFsc3tmb250LXNpemU6MTFweDt9I2dlTWVybWFpZE91dHB1dC0xNjgyODk5NTc5MDYzIDpyb290ey0tbWVybWFpZC1mb250LWZhbWlseToidHJlYnVjaGV0IG1zIix2ZXJkYW5hLGFyaWFsLHNhbnMtc2VyaWY7fTwvc3R5bGU+PGcgdHJhbnNmb3JtPSJ0cmFuc2xhdGUoMCwgMCkiPjxkZWZzPjxtYXJrZXIgb3JpZW50PSJhdXRvIiBtYXJrZXJIZWlnaHQ9IjI0MCIgbWFya2VyV2lkdGg9IjE5MCIgcmVmWT0iNyIgcmVmWD0iMCIgY2xhc3M9Im1hcmtlciBhZ2dyZWdhdGlvbiBjbGFzc0RpYWdyYW0iIGlkPSJjbGFzc0RpYWdyYW0tYWdncmVnYXRpb25TdGFydCI+PHBhdGggZD0iTSAxOCw3IEw5LDEzIEwxLDcgTDksMSBaIj48L3BhdGg+PC9tYXJrZXI+PC9kZWZzPjxkZWZzPjxtYXJrZXIgb3JpZW50PSJhdXRvIiBtYXJrZXJIZWlnaHQ9IjI4IiBtYXJrZXJXaWR0aD0iMjAiIHJlZlk9IjciIHJlZlg9IjE5IiBjbGFzcz0ibWFya2VyIGFnZ3JlZ2F0aW9uIGNsYXNzRGlhZ3JhbSIgaWQ9ImNsYXNzRGlhZ3JhbS1hZ2dyZWdhdGlvbkVuZCI+PHBhdGggZD0iTSAxOCw3IEw5LDEzIEwxLDcgTDksMSBaIj48L3BhdGg+PC9tYXJrZXI+PC9kZWZzPjxkZWZzPjxtYXJrZXIgb3JpZW50PSJhdXRvIiBtYXJrZXJIZWlnaHQ9IjI0MCIgbWFya2VyV2lkdGg9IjE5MCIgcmVmWT0iNyIgcmVmWD0iMCIgY2xhc3M9Im1hcmtlciBleHRlbnNpb24gY2xhc3NEaWFncmFtIiBpZD0iY2xhc3NEaWFncmFtLWV4dGVuc2lvblN0YXJ0Ij48cGF0aCBkPSJNIDEsNyBMMTgsMTMgViAxIFoiPjwvcGF0aD48L21hcmtlcj48L2RlZnM+PGRlZnM+PG1hcmtlciBvcmllbnQ9ImF1dG8iIG1hcmtlckhlaWdodD0iMjgiIG1hcmtlcldpZHRoPSIyMCIgcmVmWT0iNyIgcmVmWD0iMTkiIGNsYXNzPSJtYXJrZXIgZXh0ZW5zaW9uIGNsYXNzRGlhZ3JhbSIgaWQ9ImNsYXNzRGlhZ3JhbS1leHRlbnNpb25FbmQiPjxwYXRoIGQ9Ik0gMSwxIFYgMTMgTDE4LDcgWiI+PC9wYXRoPjwvbWFya2VyPjwvZGVmcz48ZGVmcz48bWFya2VyIG9yaWVudD0iYXV0byIgbWFya2VySGVpZ2h0PSIyNDAiIG1hcmtlcldpZHRoPSIxOTAiIHJlZlk9IjciIHJlZlg9IjAiIGNsYXNzPSJtYXJrZXIgY29tcG9zaXRpb24gY2xhc3NEaWFncmFtIiBpZD0iY2xhc3NEaWFncmFtLWNvbXBvc2l0aW9uU3RhcnQiPjxwYXRoIGQ9Ik0gMTgsNyBMOSwxMyBMMSw3IEw5LDEgWiI+PC9wYXRoPjwvbWFya2VyPjwvZGVmcz48ZGVmcz48bWFya2VyIG9yaWVudD0iYXV0byIgbWFya2VySGVpZ2h0PSIyOCIgbWFya2VyV2lkdGg9IjIwIiByZWZZPSI3IiByZWZYPSIxOSIgY2xhc3M9Im1hcmtlciBjb21wb3NpdGlvbiBjbGFzc0RpYWdyYW0iIGlkPSJjbGFzc0RpYWdyYW0tY29tcG9zaXRpb25FbmQiPjxwYXRoIGQ9Ik0gMTgsNyBMOSwxMyBMMSw3IEw5LDEgWiI+PC9wYXRoPjwvbWFya2VyPjwvZGVmcz48ZGVmcz48bWFya2VyIG9yaWVudD0iYXV0byIgbWFya2VySGVpZ2h0PSIyNDAiIG1hcmtlcldpZHRoPSIxOTAiIHJlZlk9IjciIHJlZlg9IjAiIGNsYXNzPSJtYXJrZXIgZGVwZW5kZW5jeSBjbGFzc0RpYWdyYW0iIGlkPSJjbGFzc0RpYWdyYW0tZGVwZW5kZW5jeVN0YXJ0Ij48cGF0aCBkPSJNIDUsNyBMOSwxMyBMMSw3IEw5LDEgWiI+PC9wYXRoPjwvbWFya2VyPjwvZGVmcz48ZGVmcz48bWFya2VyIG9yaWVudD0iYXV0byIgbWFya2VySGVpZ2h0PSIyOCIgbWFya2VyV2lkdGg9IjIwIiByZWZZPSI3IiByZWZYPSIxOSIgY2xhc3M9Im1hcmtlciBkZXBlbmRlbmN5IGNsYXNzRGlhZ3JhbSIgaWQ9ImNsYXNzRGlhZ3JhbS1kZXBlbmRlbmN5RW5kIj48cGF0aCBkPSJNIDE4LDcgTDksMTMgTDE0LDcgTDksMSBaIj48L3BhdGg+PC9tYXJrZXI+PC9kZWZzPjxnIGNsYXNzPSJyb290Ij48ZyBjbGFzcz0iY2x1c3RlcnMiPjwvZz48ZyBjbGFzcz0iZWRnZVBhdGhzIj48cGF0aCBtYXJrZXItc3RhcnQ9InVybCgjY2xhc3NEaWFncmFtLWV4dGVuc2lvblN0YXJ0KSIgc3R5bGU9ImZpbGw6bm9uZSIgY2xhc3M9ImVkZ2UtcGF0dGVybi1zb2xpZCByZWxhdGlvbiIgaWQ9ImlkMSIgZD0iTTIzNC40MjQxNTYxMzA3MjUxOCw3Ny41TDIxMC45NzU4NTkyNzU2MDQzLDgzLjU4MzMzMzMzMzMzMzMzQzE4Ny41Mjc1NjI0MjA0ODM0Niw4OS42NjY2NjY2NjY2NjY2NywxNDAuNjMwOTY4NzEwMjQxNzIsMTAxLjgzMzMzMzMzMzMzMzMzLDExNy45NTQyNzY3OTMzOTI0NywxMTIuMDgzMzMzMzMzMzMzMzNDOTUuMjc3NTg0ODc2NTQzMiwxMjIuMzMzMzMzMzMzMzMzMzMsOTYuODIwNzk0NzUzMDg2NDIsMTMwLjY2NjY2NjY2NjY2NjY2LDk3LjU5MjM5OTY5MTM1ODAzLDEzNC44MzMzMzMzMzMzMzMzNEw5OC4zNjQwMDQ2Mjk2Mjk2MywxMzkiPjwvcGF0aD48cGF0aCBtYXJrZXItZW5kPSJ1cmwoI2NsYXNzRGlhZ3JhbS1leHRlbnNpb25FbmQpIiBzdHlsZT0iZmlsbDpub25lIiBjbGFzcz0iZWRnZS1wYXR0ZXJuLWRhc2hlZCByZWxhdGlvbiIgaWQ9ImlkMiIgZD0iTTEwMy43MzQzNzUsMTk3TDEwMy43MzQzNzUsMjAxLjE2NjY2NjY2NjY2NjY2QzEwMy43MzQzNzUsMjA1LjMzMzMzMzMzMzMzMzM0LDEwMy43MzQzNzUsMjEzLjY2NjY2NjY2NjY2NjY2LDEwMy43MzQzNzUsMjIyQzEwMy43MzQzNzUsMjMwLjMzMzMzMzMzMzMzMzM0LDEwMy43MzQzNzUsMjM4LjY2NjY2NjY2NjY2NjY2LDEwMy43MzQzNzUsMjQyLjgzMzMzMzMzMzMzMzM0TDEwMy43MzQzNzUsMjQ3Ij48L3BhdGg+PHBhdGggc3R5bGU9ImZpbGw6bm9uZSIgY2xhc3M9ImVkZ2UtcGF0dGVybi1zb2xpZCByZWxhdGlvbiIgaWQ9ImlkMyIgZD0iTTEwNS42NjMxOTc3NTc2MzM1OCw4OUwxMDcuMDA4MzkzOTY0Njk0NjYsOTMuMTY2NjY2NjY2NjY2NjdDMTA4LjM1MzU5MDE3MTc1NTczLDk3LjMzMzMzMzMzMzMzMzMzLDExMS4wNDM5ODI1ODU4Nzc4NywxMDUuNjY2NjY2NjY2NjY2NjcsMTExLjYxNzU3Mzg1NDY2NzMzLDExNEMxMTIuMTkxMTY1MTIzNDU2OCwxMjIuMzMzMzMzMzMzMzMzMzMsMTEwLjY0Nzk1NTI0NjkxMzU4LDEzMC42NjY2NjY2NjY2NjY2NiwxMDkuODc2MzUwMzA4NjQxOTcsMTM0LjgzMzMzMzMzMzMzMzM0TDEwOS4xMDQ3NDUzNzAzNzAzNywxMzkiPjwvcGF0aD48cGF0aCBtYXJrZXItc3RhcnQ9InVybCgjY2xhc3NEaWFncmFtLWV4dGVuc2lvblN0YXJ0KSIgc3R5bGU9ImZpbGw6bm9uZSIgY2xhc3M9ImVkZ2UtcGF0dGVybi1zb2xpZCByZWxhdGlvbiIgaWQ9ImlkNCIgZD0iTTMwMy44NTA4NjE3NjA0OTYyLDc3LjVMMjk0Ljk2NjIxMjkyNTQxMzQ2LDgzLjU4MzMzMzMzMzMzMzMzQzI4Ni4wODE1NjQwOTAzMzA4LDg5LjY2NjY2NjY2NjY2NjY3LDI2OC4zMTIyNjY0MjAxNjU0LDEwMS44MzMzMzMzMzMzMzMzMywyNjcuNzgzODU3OTQwMDIwOTQsMTEyLjA4MzMzMzMzMzMzMzMzQzI2Ny4yNTU0NDk0NTk4NzY1LDEyMi4zMzMzMzMzMzMzMzMzMywyODMuOTY3OTMwMTY5NzUzMDYsMTMwLjY2NjY2NjY2NjY2NjY2LDI5Mi4zMjQxNzA1MjQ2OTEzNCwxMzQuODMzMzMzMzMzMzMzMzRMMzAwLjY4MDQxMDg3OTYyOTYsMTM5Ij48L3BhdGg+PHBhdGggbWFya2VyLWVuZD0idXJsKCNjbGFzc0RpYWdyYW0tZXh0ZW5zaW9uRW5kKSIgc3R5bGU9ImZpbGw6bm9uZSIgY2xhc3M9ImVkZ2UtcGF0dGVybi1kYXNoZWQgcmVsYXRpb24iIGlkPSJpZDUiIGQ9Ik0zNTguODM5ODQzNzUsMTk3TDM1OC44Mzk4NDM3NSwyMDEuMTY2NjY2NjY2NjY2NjZDMzU4LjgzOTg0Mzc1LDIwNS4zMzMzMzMzMzMzMzMzNCwzNTguODM5ODQzNzUsMjEzLjY2NjY2NjY2NjY2NjY2LDM1OC44Mzk4NDM3NSwyMjJDMzU4LjgzOTg0Mzc1LDIzMC4zMzMzMzMzMzMzMzMzNCwzNTguODM5ODQzNzUsMjM4LjY2NjY2NjY2NjY2NjY2LDM1OC44Mzk4NDM3NSwyNDIuODMzMzMzMzMzMzMzMzRMMzU4LjgzOTg0Mzc1LDI0NyI+PC9wYXRoPjxwYXRoIHN0eWxlPSJmaWxsOm5vbmUiIGNsYXNzPSJlZGdlLXBhdHRlcm4tc29saWQgcmVsYXRpb24iIGlkPSJpZDYiIGQ9Ik01MzkuMTMwODU5Mzc1LDg2LjQ5Mzk1NzcwMzkyNzQ5TDUzMC4yMTcxMjIzOTU4MzM0LDkxLjA3ODI5ODA4NjYwNjI0QzUyMS4zMDMzODU0MTY2NjY2LDk1LjY2MjYzODQ2OTI4NSw1MDMuNDc1OTExNDU4MzMzMywxMDQuODMxMzE5MjM0NjQyNDksNDg0Ljc3NzU2MDc2Mzg4ODksMTEzLjU4MjMyNjI4Mzk4NzkxQzQ2Ni4wNzkyMTAwNjk0NDQ0LDEyMi4zMzMzMzMzMzMzMzMzMyw0NDYuNTA5OTgyNjM4ODg4ODYsMTMwLjY2NjY2NjY2NjY2NjY2LDQzNi43MjUzNjg5MjM2MTExLDEzNC44MzMzMzMzMzMzMzMzNEw0MjYuOTQwNzU1MjA4MzMzMywxMzkiPjwvcGF0aD48cGF0aCBzdHlsZT0iZmlsbDpub25lIiBjbGFzcz0iZWRnZS1wYXR0ZXJuLXNvbGlkIHJlbGF0aW9uIiBpZD0iaWQ3IiBkPSJNMjgzLjk1MzU5NTE5Njc1OTI0LDMwNUwyNzMuMTk0MDc2NzI2NDY2LDMwOS4xNjY2NjY2NjY2NjY3QzI2Mi40MzQ1NTgyNTYxNzI4LDMxMy4zMzMzMzMzMzMzMzMzLDI0MC45MTU1MjEzMTU1ODY0LDMyMS42NjY2NjY2NjY2NjY3LDIzMC45Mjc2MDc3ODM1NjQ3OCwzMzBDMjIwLjkzOTY5NDI1MTU0MzIsMzM4LjMzMzMzMzMzMzMzMzMsMjIyLjQ4MjkwNDEyODA4NjQsMzQ2LjY2NjY2NjY2NjY2NjcsMjIzLjI1NDUwOTA2NjM1OCwzNTAuODMzMzMzMzMzMzMzM0wyMjQuMDI2MTE0MDA0NjI5NjIsMzU1Ij48L3BhdGg+PHBhdGggc3R5bGU9ImZpbGw6bm9uZSIgY2xhc3M9ImVkZ2UtcGF0dGVybi1zb2xpZCByZWxhdGlvbiIgaWQ9ImlkOCIgZD0iTTQyOC4zNTU3MjE5MzI4NzA0LDMwNUw0MzguMzQzNjM1NDY0ODkyLDMwOS4xNjY2NjY2NjY2NjY3QzQ0OC4zMzE1NDg5OTY5MTM2LDMxMy4zMzMzMzMzMzMzMzMzLDQ2OC4zMDczNzYwNjA5NTY4LDMyMS42NjY2NjY2NjY2NjY3LDQ3OS4wNjY4OTQ1MzEyNSwzMzBDNDg5LjgyNjQxMzAwMTU0MzIsMzM4LjMzMzMzMzMzMzMzMzMsNDkxLjM2OTYyMjg3ODA4NjQsMzQ2LjY2NjY2NjY2NjY2NjcsNDkyLjE0MTIyNzgxNjM1Nzk3LDM1MC44MzMzMzMzMzMzMzMzTDQ5Mi45MTI4MzI3NTQ2Mjk2LDM1NSI+PC9wYXRoPjxwYXRoIG1hcmtlci1zdGFydD0idXJsKCNjbGFzc0RpYWdyYW0tZXh0ZW5zaW9uU3RhcnQpIiBzdHlsZT0iZmlsbDpub25lIiBjbGFzcz0iZWRnZS1wYXR0ZXJuLXNvbGlkIHJlbGF0aW9uIiBpZD0iaWQ5IiBkPSJNNDUxLjcyMDA3NjkzMjI1MTksNzcuNUw0NzMuODUzOTcwMzYwMjA5ODcsODMuNTgzMzMzMzMzMzMzMzNDNDk1Ljk4Nzg2Mzc4ODE2Nzk0LDg5LjY2NjY2NjY2NjY2NjY3LDU0MC4yNTU2NTA2NDQwODQsMTAxLjgzMzMzMzMzMzMzMzMzLDU4My4zODE0MDYwNTEyMDg2LDExMy40MTMxODYyNTY0MDQ0NEM2MjYuNTA3MTYxNDU4MzMzNCwxMjQuOTkzMDM5MTc5NDc1NTMsNjY4LjQ5MDg4NTQxNjY2NjYsMTM1Ljk4NjA3ODM1ODk1MTA2LDY4OS40ODI3NDczOTU4MzM0LDE0MS40ODI1OTc5NDg2ODg4M0w3MTAuNDc0NjA5Mzc1LDE0Ni45NzkxMTc1Mzg0MjY1OCI+PC9wYXRoPjxwYXRoIG1hcmtlci1lbmQ9InVybCgjY2xhc3NEaWFncmFtLWV4dGVuc2lvbkVuZCkiIHN0eWxlPSJmaWxsOm5vbmUiIGNsYXNzPSJlZGdlLXBhdHRlcm4tZGFzaGVkIHJlbGF0aW9uIiBpZD0iaWQxMCIgZD0iTTc5MC43NTU4NTkzNzUsMTk3TDc5MC43NTU4NTkzNzUsMjAxLjE2NjY2NjY2NjY2NjY2Qzc5MC43NTU4NTkzNzUsMjA1LjMzMzMzMzMzMzMzMzM0LDc5MC43NTU4NTkzNzUsMjEzLjY2NjY2NjY2NjY2NjY2LDc5MC43NTU4NTkzNzUsMjIyQzc5MC43NTU4NTkzNzUsMjMwLjMzMzMzMzMzMzMzMzM0LDc5MC43NTU4NTkzNzUsMjM4LjY2NjY2NjY2NjY2NjY2LDc5MC43NTU4NTkzNzUsMjQyLjgzMzMzMzMzMzMzMzM0TDc5MC43NTU4NTkzNzUsMjQ3Ij48L3BhdGg+PHBhdGggc3R5bGU9ImZpbGw6bm9uZSIgY2xhc3M9ImVkZ2UtcGF0dGVybi1zb2xpZCByZWxhdGlvbiIgaWQ9ImlkMTEiIGQ9Ik04MTAuNzU1ODU5Mzc1LDg5TDgxMC43NTU4NTkzNzUsOTMuMTY2NjY2NjY2NjY2NjdDODEwLjc1NTg1OTM3NSw5Ny4zMzMzMzMzMzMzMzMzMyw4MTAuNzU1ODU5Mzc1LDEwNS42NjY2NjY2NjY2NjY2Nyw4MDkuMjEyNjQ5NDk4NDU2OCwxMTRDODA3LjY2OTQzOTYyMTkxMzYsMTIyLjMzMzMzMzMzMzMzMzMzLDgwNC41ODMwMTk4Njg4MjczLDEzMC42NjY2NjY2NjY2NjY2Niw4MDMuMDM5ODA5OTkyMjg0LDEzNC44MzMzMzMzMzMzMzMzNEw4MDEuNDk2NjAwMTE1NzQwOCwxMzkiPjwvcGF0aD48cGF0aCBzdHlsZT0iZmlsbDpub25lIiBjbGFzcz0iZWRnZS1wYXR0ZXJuLXNvbGlkIHJlbGF0aW9uIiBpZD0iaWQxMiIgZD0iTTcxMi43MDExNzE4NzUsMjg1LjUzNzkwNTMzOTQwODlMNjUyLjA1NzYxNzE4NzUsMjkyLjk0ODI1NDQ0OTUwNzQzQzU5MS40MTQwNjI1LDMwMC4zNTg2MDM1NTk2MDU5LDQ3MC4xMjY5NTMxMjUsMzE1LjE3OTMwMTc3OTgwMyw0MDAuMjY3MDg5ODQzNzUsMzI2Ljc1NjMxNzU1NjU2ODE1QzMzMC40MDcyMjY1NjI1LDMzOC4zMzMzMzMzMzMzMzMzLDMxMS45NzQ2MDkzNzUsMzQ2LjY2NjY2NjY2NjY2NjcsMzAyLjc1ODMwMDc4MTI1LDM1MC44MzMzMzMzMzMzMzMzTDI5My41NDE5OTIxODc1LDM1NSI+PC9wYXRoPjxwYXRoIHN0eWxlPSJmaWxsOm5vbmUiIGNsYXNzPSJlZGdlLXBhdHRlcm4tc29saWQgcmVsYXRpb24iIGlkPSJpZDEzIiBkPSJNODY4LjgxMDU0Njg3NSwyOTkuMTEzNjkxMTMyODQxNEw4ODYuMTk0MzM1OTM3NSwzMDQuMjYxNDA5Mjc3MzY3OEM5MDMuNTc4MTI1LDMwOS40MDkxMjc0MjE4OTQyNSw5MzguMzQ1NzAzMTI1LDMxOS43MDQ1NjM3MTA5NDcxLDk1NS43Mjk0OTIxODc1LDMyOS4wMTg5NDg1MjIxNDAyQzk3My4xMTMyODEyNSwzMzguMzMzMzMzMzMzMzMzMyw5NzMuMTEzMjgxMjUsMzQ2LjY2NjY2NjY2NjY2NjcsOTczLjExMzI4MTI1LDM1MC44MzMzMzMzMzMzMzMzTDk3My4xMTMyODEyNSwzNTUiPjwvcGF0aD48cGF0aCBzdHlsZT0iZmlsbDpub25lIiBjbGFzcz0iZWRnZS1wYXR0ZXJuLXNvbGlkIHJlbGF0aW9uIiBpZD0iaWQxNCIgZD0iTTcxMi43MDExNzE4NzUsMjk2LjQzNzg3ODIyODI1ODFMNjkxLjMzODIxNjE0NTgzMzQsMzAyLjAzMTU2NTE5MDIxNTFDNjY5Ljk3NTI2MDQxNjY2NjYsMzA3LjYyNTI1MjE1MjE3MjEsNjI3LjI0OTM0ODk1ODMzMzQsMzE4LjgxMjYyNjA3NjA4Niw1OTkuMjMyMDU0MTU3MDIxNiwzMjguNTcyOTc5NzA0NzA5NjdDNTcxLjIxNDc1OTM1NTcwOTgsMzM4LjMzMzMzMzMzMzMzMzMsNTU3LjkwNjA4MTIxMTQxOTcsMzQ2LjY2NjY2NjY2NjY2NjcsNTUxLjI1MTc0MjEzOTI3NDcsMzUwLjgzMzMzMzMzMzMzMzNMNTQ0LjU5NzQwMzA2NzEyOTcsMzU1Ij48L3BhdGg+PHBhdGggbWFya2VyLWVuZD0idXJsKCNjbGFzc0RpYWdyYW0tZXh0ZW5zaW9uRW5kKSIgc3R5bGU9ImZpbGw6bm9uZSIgY2xhc3M9ImVkZ2UtcGF0dGVybi1kYXNoZWQgcmVsYXRpb24iIGlkPSJpZDE1IiBkPSJNMjI5LjM5NjQ4NDM3NSw0MTNMMjI5LjM5NjQ4NDM3NSw0MTcuMTY2NjY2NjY2NjY2N0MyMjkuMzk2NDg0Mzc1LDQyMS4zMzMzMzMzMzMzMzMzLDIyOS4zOTY0ODQzNzUsNDI5LjY2NjY2NjY2NjY2NjcsMjM5LjM2MDEzNDU0ODYxMTExLDQzOEMyNDkuMzIzNzg0NzIyMjIyMjYsNDQ2LjMzMzMzMzMzMzMzMzMsMjY5LjI1MTA4NTA2OTQ0NDQ2LDQ1NC42NjY2NjY2NjY2NjY3LDI3OS4yMTQ3MzUyNDMwNTU2LDQ1OC44MzMzMzMzMzMzMzMzTDI4OS4xNzgzODU0MTY2NjY3LDQ2MyI+PC9wYXRoPjxwYXRoIG1hcmtlci1lbmQ9InVybCgjY2xhc3NEaWFncmFtLWV4dGVuc2lvbkVuZCkiIHN0eWxlPSJmaWxsOm5vbmUiIGNsYXNzPSJlZGdlLXBhdHRlcm4tZGFzaGVkIHJlbGF0aW9uIiBpZD0iaWQxNiIgZD0iTTkwNi4zODI4MTI1LDM5OS41Nzg3ODIwNDQ3ODY3TDg3OC45NTM3NzYwNDE2NjY2LDQwNS45ODIzMTgzNzA2NTU2Qzg1MS41MjQ3Mzk1ODMzMzM0LDQxMi4zODU4NTQ2OTY1MjQ1LDc5Ni42NjY2NjY2NjY2NjY2LDQyNS4xOTI5MjczNDgyNjIyMyw3NzcuMjkyOTE0NDk2NTI3OCw0MzUuNzYzMTMwMzQwNzk3OEM3NTcuOTE5MTYyMzI2Mzg4OCw0NDYuMzMzMzMzMzMzMzMzMyw3NzQuMDI5NzMwOTAyNzc3Nyw0NTQuNjY2NjY2NjY2NjY2Nyw3ODIuMDg1MDE1MTkwOTcyMiw0NTguODMzMzMzMzMzMzMzM0w3OTAuMTQwMjk5NDc5MTY2Niw0NjMiPjwvcGF0aD48cGF0aCBtYXJrZXItZW5kPSJ1cmwoI2NsYXNzRGlhZ3JhbS1leHRlbnNpb25FbmQpIiBzdHlsZT0iZmlsbDpub25lIiBjbGFzcz0iZWRnZS1wYXR0ZXJuLWRhc2hlZCByZWxhdGlvbiIgaWQ9ImlkMTciIGQ9Ik01NjIuMjU5ODM3OTYyOTYyOSw0MTNMNTcxLjQ1MTg4MzE5ODMwMjQsNDE3LjE2NjY2NjY2NjY2NjdDNTgwLjY0MzkyODQzMzY0MTksNDIxLjMzMzMzMzMzMzMzMzMsNTk5LjAyODAxODkwNDMyMSw0MjkuNjY2NjY2NjY2NjY2Nyw2MDguMjIwMDY0MTM5NjYwNSw0MzhDNjE3LjQxMjEwOTM3NSw0NDYuMzMzMzMzMzMzMzMzMyw2MTcuNDEyMTA5Mzc1LDQ1NC42NjY2NjY2NjY2NjY3LDYxNy40MTIxMDkzNzUsNDU4LjgzMzMzMzMzMzMzMzNMNjE3LjQxMjEwOTM3NSw0NjMiPjwvcGF0aD48cGF0aCBtYXJrZXItc3RhcnQ9InVybCgjY2xhc3NEaWFncmFtLWV4dGVuc2lvblN0YXJ0KSIgc3R5bGU9ImZpbGw6bm9uZSIgY2xhc3M9ImVkZ2UtcGF0dGVybi1zb2xpZCByZWxhdGlvbiIgaWQ9ImlkMTgiIGQ9Ik02MjIuMjEwOTM3NSw0MDguMTk0MjYwMDg5Njg2MUw1OTguMTcwNTcyOTE2NjY2Niw0MTMuMTYxODgzNDA4MDcxOEM1NzQuMTMwMjA4MzMzMzMzNCw0MTguMTI5NTA2NzI2NDU3NDYsNTI2LjA0OTQ3OTE2NjY2NjYsNDI4LjA2NDc1MzM2MzIyODcsNDkyLjc5MjgwNTk4OTU4MzMsNDM3LjE5OTA0MzM0ODI4MUM0NTkuNTM2MTMyODEyNSw0NDYuMzMzMzMzMzMzMzMzMyw0NDEuMTAzNTE1NjI1LDQ1NC42NjY2NjY2NjY2NjY3LDQzMS44ODcyMDcwMzEyNSw0NTguODMzMzMzMzMzMzMzM0w0MjIuNjcwODk4NDM3NSw0NjMiPjwvcGF0aD48cGF0aCBtYXJrZXItc3RhcnQ9InVybCgjY2xhc3NEaWFncmFtLWV4dGVuc2lvblN0YXJ0KSIgc3R5bGU9ImZpbGw6bm9uZSIgY2xhc3M9ImVkZ2UtcGF0dGVybi1zb2xpZCByZWxhdGlvbiIgaWQ9ImlkMTkiIGQ9Ik04MDIuMDgwOTEwMDExNTc0MSw0MTNMODExLjEwMTYwNDY5NzE0NSw0MTcuMTY2NjY2NjY2NjY2N0M4MjAuMTIyMjk5MzgyNzE2LDQyMS4zMzMzMzMzMzMzMzMzLDgzOC4xNjM2ODg3NTM4NTgsNDI5LjY2NjY2NjY2NjY2NjcsODQ2LjQxMjc3ODUwMTE1NzQsNDM4Qzg1NC42NjE4NjgyNDg0NTY4LDQ0Ni4zMzMzMzMzMzMzMzMzLDg1My4xMTg2NTgzNzE5MTM2LDQ1NC42NjY2NjY2NjY2NjY3LDg1Mi4zNDcwNTM0MzM2NDIsNDU4LjgzMzMzMzMzMzMzMzNMODUxLjU3NTQ0ODQ5NTM3MDMsNDYzIj48L3BhdGg+PC9nPjxnIGNsYXNzPSJlZGdlTGFiZWxzIj48ZyBjbGFzcz0iZWRnZUxhYmVsIj48ZyB0cmFuc2Zvcm09InRyYW5zbGF0ZSgwLCAwKSIgY2xhc3M9ImxhYmVsIj48cmVjdCBoZWlnaHQ9IjAiIHdpZHRoPSIwIiByeT0iMCIgcng9IjAiPjwvcmVjdD48dGV4dCBzdHlsZT0iIj48dHNwYW4gY2xhc3M9InJvdyIgeD0iMCIgZHk9IjFlbSIgeG1sOnNwYWNlPSJwcmVzZXJ2ZSI+PC90c3Bhbj48L3RleHQ+PC9nPjwvZz48ZyBjbGFzcz0iZWRnZUxhYmVsIj48ZyB0cmFuc2Zvcm09InRyYW5zbGF0ZSgwLCAwKSIgY2xhc3M9ImxhYmVsIj48cmVjdCBoZWlnaHQ9IjAiIHdpZHRoPSIwIiByeT0iMCIgcng9IjAiPjwvcmVjdD48dGV4dCBzdHlsZT0iIj48dHNwYW4gY2xhc3M9InJvdyIgeD0iMCIgZHk9IjFlbSIgeG1sOnNwYWNlPSJwcmVzZXJ2ZSI+PC90c3Bhbj48L3RleHQ+PC9nPjwvZz48ZyBjbGFzcz0iZWRnZUxhYmVsIj48ZyB0cmFuc2Zvcm09InRyYW5zbGF0ZSgwLCAwKSIgY2xhc3M9ImxhYmVsIj48cmVjdCBoZWlnaHQ9IjAiIHdpZHRoPSIwIiByeT0iMCIgcng9IjAiPjwvcmVjdD48dGV4dCBzdHlsZT0iIj48dHNwYW4gY2xhc3M9InJvdyIgeD0iMCIgZHk9IjFlbSIgeG1sOnNwYWNlPSJwcmVzZXJ2ZSI+PC90c3Bhbj48L3RleHQ+PC9nPjwvZz48ZyBjbGFzcz0iZWRnZUxhYmVsIj48ZyB0cmFuc2Zvcm09InRyYW5zbGF0ZSgwLCAwKSIgY2xhc3M9ImxhYmVsIj48cmVjdCBoZWlnaHQ9IjAiIHdpZHRoPSIwIiByeT0iMCIgcng9IjAiPjwvcmVjdD48dGV4dCBzdHlsZT0iIj48dHNwYW4gY2xhc3M9InJvdyIgeD0iMCIgZHk9IjFlbSIgeG1sOnNwYWNlPSJwcmVzZXJ2ZSI+PC90c3Bhbj48L3RleHQ+PC9nPjwvZz48ZyBjbGFzcz0iZWRnZUxhYmVsIj48ZyB0cmFuc2Zvcm09InRyYW5zbGF0ZSgwLCAwKSIgY2xhc3M9ImxhYmVsIj48cmVjdCBoZWlnaHQ9IjAiIHdpZHRoPSIwIiByeT0iMCIgcng9IjAiPjwvcmVjdD48dGV4dCBzdHlsZT0iIj48dHNwYW4gY2xhc3M9InJvdyIgeD0iMCIgZHk9IjFlbSIgeG1sOnNwYWNlPSJwcmVzZXJ2ZSI+PC90c3Bhbj48L3RleHQ+PC9nPjwvZz48ZyBjbGFzcz0iZWRnZUxhYmVsIj48ZyB0cmFuc2Zvcm09InRyYW5zbGF0ZSgwLCAwKSIgY2xhc3M9ImxhYmVsIj48cmVjdCBoZWlnaHQ9IjAiIHdpZHRoPSIwIiByeT0iMCIgcng9IjAiPjwvcmVjdD48dGV4dCBzdHlsZT0iIj48dHNwYW4gY2xhc3M9InJvdyIgeD0iMCIgZHk9IjFlbSIgeG1sOnNwYWNlPSJwcmVzZXJ2ZSI+PC90c3Bhbj48L3RleHQ+PC9nPjwvZz48ZyBjbGFzcz0iZWRnZUxhYmVsIj48ZyB0cmFuc2Zvcm09InRyYW5zbGF0ZSgwLCAwKSIgY2xhc3M9ImxhYmVsIj48cmVjdCBoZWlnaHQ9IjAiIHdpZHRoPSIwIiByeT0iMCIgcng9IjAiPjwvcmVjdD48dGV4dCBzdHlsZT0iIj48dHNwYW4gY2xhc3M9InJvdyIgeD0iMCIgZHk9IjFlbSIgeG1sOnNwYWNlPSJwcmVzZXJ2ZSI+PC90c3Bhbj48L3RleHQ+PC9nPjwvZz48ZyBjbGFzcz0iZWRnZUxhYmVsIj48ZyB0cmFuc2Zvcm09InRyYW5zbGF0ZSgwLCAwKSIgY2xhc3M9ImxhYmVsIj48cmVjdCBoZWlnaHQ9IjAiIHdpZHRoPSIwIiByeT0iMCIgcng9IjAiPjwvcmVjdD48dGV4dCBzdHlsZT0iIj48dHNwYW4gY2xhc3M9InJvdyIgeD0iMCIgZHk9IjFlbSIgeG1sOnNwYWNlPSJwcmVzZXJ2ZSI+PC90c3Bhbj48L3RleHQ+PC9nPjwvZz48ZyBjbGFzcz0iZWRnZUxhYmVsIj48ZyB0cmFuc2Zvcm09InRyYW5zbGF0ZSgwLCAwKSIgY2xhc3M9ImxhYmVsIj48cmVjdCBoZWlnaHQ9IjAiIHdpZHRoPSIwIiByeT0iMCIgcng9IjAiPjwvcmVjdD48dGV4dCBzdHlsZT0iIj48dHNwYW4gY2xhc3M9InJvdyIgeD0iMCIgZHk9IjFlbSIgeG1sOnNwYWNlPSJwcmVzZXJ2ZSI+PC90c3Bhbj48L3RleHQ+PC9nPjwvZz48ZyBjbGFzcz0iZWRnZUxhYmVsIj48ZyB0cmFuc2Zvcm09InRyYW5zbGF0ZSgwLCAwKSIgY2xhc3M9ImxhYmVsIj48cmVjdCBoZWlnaHQ9IjAiIHdpZHRoPSIwIiByeT0iMCIgcng9IjAiPjwvcmVjdD48dGV4dCBzdHlsZT0iIj48dHNwYW4gY2xhc3M9InJvdyIgeD0iMCIgZHk9IjFlbSIgeG1sOnNwYWNlPSJwcmVzZXJ2ZSI+PC90c3Bhbj48L3RleHQ+PC9nPjwvZz48ZyBjbGFzcz0iZWRnZUxhYmVsIj48ZyB0cmFuc2Zvcm09InRyYW5zbGF0ZSgwLCAwKSIgY2xhc3M9ImxhYmVsIj48cmVjdCBoZWlnaHQ9IjAiIHdpZHRoPSIwIiByeT0iMCIgcng9IjAiPjwvcmVjdD48dGV4dCBzdHlsZT0iIj48dHNwYW4gY2xhc3M9InJvdyIgeD0iMCIgZHk9IjFlbSIgeG1sOnNwYWNlPSJwcmVzZXJ2ZSI+PC90c3Bhbj48L3RleHQ+PC9nPjwvZz48ZyBjbGFzcz0iZWRnZUxhYmVsIj48ZyB0cmFuc2Zvcm09InRyYW5zbGF0ZSgwLCAwKSIgY2xhc3M9ImxhYmVsIj48cmVjdCBoZWlnaHQ9IjAiIHdpZHRoPSIwIiByeT0iMCIgcng9IjAiPjwvcmVjdD48dGV4dCBzdHlsZT0iIj48dHNwYW4gY2xhc3M9InJvdyIgeD0iMCIgZHk9IjFlbSIgeG1sOnNwYWNlPSJwcmVzZXJ2ZSI+PC90c3Bhbj48L3RleHQ+PC9nPjwvZz48ZyBjbGFzcz0iZWRnZUxhYmVsIj48ZyB0cmFuc2Zvcm09InRyYW5zbGF0ZSgwLCAwKSIgY2xhc3M9ImxhYmVsIj48cmVjdCBoZWlnaHQ9IjAiIHdpZHRoPSIwIiByeT0iMCIgcng9IjAiPjwvcmVjdD48dGV4dCBzdHlsZT0iIj48dHNwYW4gY2xhc3M9InJvdyIgeD0iMCIgZHk9IjFlbSIgeG1sOnNwYWNlPSJwcmVzZXJ2ZSI+PC90c3Bhbj48L3RleHQ+PC9nPjwvZz48ZyBjbGFzcz0iZWRnZUxhYmVsIj48ZyB0cmFuc2Zvcm09InRyYW5zbGF0ZSgwLCAwKSIgY2xhc3M9ImxhYmVsIj48cmVjdCBoZWlnaHQ9IjAiIHdpZHRoPSIwIiByeT0iMCIgcng9IjAiPjwvcmVjdD48dGV4dCBzdHlsZT0iIj48dHNwYW4gY2xhc3M9InJvdyIgeD0iMCIgZHk9IjFlbSIgeG1sOnNwYWNlPSJwcmVzZXJ2ZSI+PC90c3Bhbj48L3RleHQ+PC9nPjwvZz48ZyBjbGFzcz0iZWRnZUxhYmVsIj48ZyB0cmFuc2Zvcm09InRyYW5zbGF0ZSgwLCAwKSIgY2xhc3M9ImxhYmVsIj48cmVjdCBoZWlnaHQ9IjAiIHdpZHRoPSIwIiByeT0iMCIgcng9IjAiPjwvcmVjdD48dGV4dCBzdHlsZT0iIj48dHNwYW4gY2xhc3M9InJvdyIgeD0iMCIgZHk9IjFlbSIgeG1sOnNwYWNlPSJwcmVzZXJ2ZSI+PC90c3Bhbj48L3RleHQ+PC9nPjwvZz48ZyBjbGFzcz0iZWRnZUxhYmVsIj48ZyB0cmFuc2Zvcm09InRyYW5zbGF0ZSgwLCAwKSIgY2xhc3M9ImxhYmVsIj48cmVjdCBoZWlnaHQ9IjAiIHdpZHRoPSIwIiByeT0iMCIgcng9IjAiPjwvcmVjdD48dGV4dCBzdHlsZT0iIj48dHNwYW4gY2xhc3M9InJvdyIgeD0iMCIgZHk9IjFlbSIgeG1sOnNwYWNlPSJwcmVzZXJ2ZSI+PC90c3Bhbj48L3RleHQ+PC9nPjwvZz48ZyBjbGFzcz0iZWRnZUxhYmVsIj48ZyB0cmFuc2Zvcm09InRyYW5zbGF0ZSgwLCAwKSIgY2xhc3M9ImxhYmVsIj48cmVjdCBoZWlnaHQ9IjAiIHdpZHRoPSIwIiByeT0iMCIgcng9IjAiPjwvcmVjdD48dGV4dCBzdHlsZT0iIj48dHNwYW4gY2xhc3M9InJvdyIgeD0iMCIgZHk9IjFlbSIgeG1sOnNwYWNlPSJwcmVzZXJ2ZSI+PC90c3Bhbj48L3RleHQ+PC9nPjwvZz48ZyBjbGFzcz0iZWRnZUxhYmVsIj48ZyB0cmFuc2Zvcm09InRyYW5zbGF0ZSgwLCAwKSIgY2xhc3M9ImxhYmVsIj48cmVjdCBoZWlnaHQ9IjAiIHdpZHRoPSIwIiByeT0iMCIgcng9IjAiPjwvcmVjdD48dGV4dCBzdHlsZT0iIj48dHNwYW4gY2xhc3M9InJvdyIgeD0iMCIgZHk9IjFlbSIgeG1sOnNwYWNlPSJwcmVzZXJ2ZSI+PC90c3Bhbj48L3RleHQ+PC9nPjwvZz48ZyBjbGFzcz0iZWRnZUxhYmVsIj48ZyB0cmFuc2Zvcm09InRyYW5zbGF0ZSgwLCAwKSIgY2xhc3M9ImxhYmVsIj48cmVjdCBoZWlnaHQ9IjAiIHdpZHRoPSIwIiByeT0iMCIgcng9IjAiPjwvcmVjdD48dGV4dCBzdHlsZT0iIj48dHNwYW4gY2xhc3M9InJvdyIgeD0iMCIgZHk9IjFlbSIgeG1sOnNwYWNlPSJwcmVzZXJ2ZSI+PC90c3Bhbj48L3RleHQ+PC9nPjwvZz48L2c+PGcgY2xhc3M9Im5vZGVzIj48ZyB0cmFuc2Zvcm09InRyYW5zbGF0ZSgzNDYuMjA1MDc4MTI1LCA0OC41KSIgaWQ9ImNsYXNzaWQtSVVzZUNhc2UtMCIgY2xhc3M9Im5vZGUgZGVmYXVsdCI+PHJlY3QgaGVpZ2h0PSI1OCIgd2lkdGg9IjI1OS40ODQzNzUiIHk9Ii0yOSIgeD0iLTEyOS43NDIxODc1IiBjbGFzcz0ib3V0ZXIgdGl0bGUtc3RhdGUiPjwvcmVjdD48bGluZSB5Mj0iMiIgeTE9IjIiIHgyPSIxMjkuNzQyMTg3NSIgeDE9Ii0xMjkuNzQyMTg3NSIgY2xhc3M9ImRpdmlkZXIiPjwvbGluZT48bGluZSB5Mj0iMTgiIHkxPSIxOCIgeDI9IjEyOS43NDIxODc1IiB4MT0iLTEyOS43NDIxODc1IiBjbGFzcz0iZGl2aWRlciI+PC9saW5lPjxnIGNsYXNzPSJsYWJlbCI+PHRleHQgc3R5bGU9IiI+PHRzcGFuIGNsYXNzPSJ0aXRsZS1yb3ciIHg9IjAiIGR5PSIxZW0iIHhtbDpzcGFjZT0icHJlc2VydmUiPjwvdHNwYW4+PC90ZXh0Pjx0ZXh0IHRyYW5zZm9ybT0idHJhbnNsYXRlKCAtMTIyLjI0MjE4NzUsIC0yMS41KSIgY2xhc3M9ImNsYXNzVGl0bGUiIHN0eWxlPSIiPjx0c3BhbiBjbGFzcz0idGl0bGUtcm93IiB4PSIwIiBkeT0iMWVtIiB4bWw6c3BhY2U9InByZXNlcnZlIj5JVXNlQ2FzZSZsdDtUUmVxdWVzdCwgVFJlc3BvbnNlJmd0OzwvdHNwYW4+PC90ZXh0PjwvZz48L2c+PGcgdHJhbnNmb3JtPSJ0cmFuc2xhdGUoMTAzLjczNDM3NSwgMTY4KSIgaWQ9ImNsYXNzaWQtSUNyZWF0ZUFjY291bnRVc2VDYXNlLTEiIGNsYXNzPSJub2RlIGRlZmF1bHQiPjxyZWN0IGhlaWdodD0iNTgiIHdpZHRoPSIxOTEuNDY4NzUiIHk9Ii0yOSIgeD0iLTk1LjczNDM3NSIgY2xhc3M9Im91dGVyIHRpdGxlLXN0YXRlIj48L3JlY3Q+PGxpbmUgeTI9IjIiIHkxPSIyIiB4Mj0iOTUuNzM0Mzc1IiB4MT0iLTk1LjczNDM3NSIgY2xhc3M9ImRpdmlkZXIiPjwvbGluZT48bGluZSB5Mj0iMTgiIHkxPSIxOCIgeDI9Ijk1LjczNDM3NSIgeDE9Ii05NS43MzQzNzUiIGNsYXNzPSJkaXZpZGVyIj48L2xpbmU+PGcgY2xhc3M9ImxhYmVsIj48dGV4dCBzdHlsZT0iIj48dHNwYW4gY2xhc3M9InRpdGxlLXJvdyIgeD0iMCIgZHk9IjFlbSIgeG1sOnNwYWNlPSJwcmVzZXJ2ZSI+PC90c3Bhbj48L3RleHQ+PHRleHQgdHJhbnNmb3JtPSJ0cmFuc2xhdGUoIC04OC4yMzQzNzUsIC0yMS41KSIgY2xhc3M9ImNsYXNzVGl0bGUiIHN0eWxlPSIiPjx0c3BhbiBjbGFzcz0idGl0bGUtcm93IiB4PSIwIiBkeT0iMWVtIiB4bWw6c3BhY2U9InByZXNlcnZlIj5JQ3JlYXRlQWNjb3VudFVzZUNhc2U8L3RzcGFuPjwvdGV4dD48L2c+PC9nPjxnIHRyYW5zZm9ybT0idHJhbnNsYXRlKDEwMy43MzQzNzUsIDI3NikiIGlkPSJjbGFzc2lkLUNyZWF0ZUFjY291bnRVc2VDYXNlLTIiIGNsYXNzPSJub2RlIGRlZmF1bHQiPjxyZWN0IGhlaWdodD0iNTgiIHdpZHRoPSIxODcuMDE1NjI1IiB5PSItMjkiIHg9Ii05My41MDc4MTI1IiBjbGFzcz0ib3V0ZXIgdGl0bGUtc3RhdGUiPjwvcmVjdD48bGluZSB5Mj0iMiIgeTE9IjIiIHgyPSI5My41MDc4MTI1IiB4MT0iLTkzLjUwNzgxMjUiIGNsYXNzPSJkaXZpZGVyIj48L2xpbmU+PGxpbmUgeTI9IjE4IiB5MT0iMTgiIHgyPSI5My41MDc4MTI1IiB4MT0iLTkzLjUwNzgxMjUiIGNsYXNzPSJkaXZpZGVyIj48L2xpbmU+PGcgY2xhc3M9ImxhYmVsIj48dGV4dCBzdHlsZT0iIj48dHNwYW4gY2xhc3M9InRpdGxlLXJvdyIgeD0iMCIgZHk9IjFlbSIgeG1sOnNwYWNlPSJwcmVzZXJ2ZSI+PC90c3Bhbj48L3RleHQ+PHRleHQgdHJhbnNmb3JtPSJ0cmFuc2xhdGUoIC04Ni4wMDc4MTI1LCAtMjEuNSkiIGNsYXNzPSJjbGFzc1RpdGxlIiBzdHlsZT0iIj48dHNwYW4gY2xhc3M9InRpdGxlLXJvdyIgeD0iMCIgZHk9IjFlbSIgeG1sOnNwYWNlPSJwcmVzZXJ2ZSI+Q3JlYXRlQWNjb3VudFVzZUNhc2U8L3RzcGFuPjwvdGV4dD48L2c+PC9nPjxnIHRyYW5zZm9ybT0idHJhbnNsYXRlKDkyLjU4Nzg5MDYyNSwgNDguNSkiIGlkPSJjbGFzc2lkLUNyZWF0ZUFjY291bnQtMyIgY2xhc3M9Im5vZGUgZGVmYXVsdCI+PHJlY3QgaGVpZ2h0PSI4MSIgd2lkdGg9IjE0Ny43NSIgeT0iLTQwLjUiIHg9Ii03My44NzUiIGNsYXNzPSJvdXRlciB0aXRsZS1zdGF0ZSI+PC9yZWN0PjxsaW5lIHkyPSIxMy41IiB5MT0iMTMuNSIgeDI9IjczLjg3NSIgeDE9Ii03My44NzUiIGNsYXNzPSJkaXZpZGVyIj48L2xpbmU+PGxpbmUgeTI9IjI5LjUiIHkxPSIyOS41IiB4Mj0iNzMuODc1IiB4MT0iLTczLjg3NSIgY2xhc3M9ImRpdmlkZXIiPjwvbGluZT48ZyBjbGFzcz0ibGFiZWwiPjx0ZXh0IHRyYW5zZm9ybT0idHJhbnNsYXRlKCAtNjYuMzc1LCAtMzMpIiBzdHlsZT0iIj48dHNwYW4gY2xhc3M9InRpdGxlLXJvdyIgeD0iMCIgZHk9IjFlbSIgeG1sOnNwYWNlPSJwcmVzZXJ2ZSI+wqtBenVyZSBGdW5jdGlvbiZndDvCuzwvdHNwYW4+PC90ZXh0Pjx0ZXh0IHRyYW5zZm9ybT0idHJhbnNsYXRlKCAtNTUuNjcxODc1LCAtMTApIiBjbGFzcz0iY2xhc3NUaXRsZSIgc3R5bGU9IiI+PHRzcGFuIGNsYXNzPSJ0aXRsZS1yb3ciIHg9IjAiIGR5PSIxZW0iIHhtbDpzcGFjZT0icHJlc2VydmUiPkNyZWF0ZUFjY291bnQ8L3RzcGFuPjwvdGV4dD48L2c+PC9nPjxnIHRyYW5zZm9ybT0idHJhbnNsYXRlKDM1OC44Mzk4NDM3NSwgMTY4KSIgaWQ9ImNsYXNzaWQtSURvd25sb2FkRmlsZVVzZUNhc2UtNCIgY2xhc3M9Im5vZGUgZGVmYXVsdCI+PHJlY3QgaGVpZ2h0PSI1OCIgd2lkdGg9IjE4MS43MTg3NSIgeT0iLTI5IiB4PSItOTAuODU5Mzc1IiBjbGFzcz0ib3V0ZXIgdGl0bGUtc3RhdGUiPjwvcmVjdD48bGluZSB5Mj0iMiIgeTE9IjIiIHgyPSI5MC44NTkzNzUiIHgxPSItOTAuODU5Mzc1IiBjbGFzcz0iZGl2aWRlciI+PC9saW5lPjxsaW5lIHkyPSIxOCIgeTE9IjE4IiB4Mj0iOTAuODU5Mzc1IiB4MT0iLTkwLjg1OTM3NSIgY2xhc3M9ImRpdmlkZXIiPjwvbGluZT48ZyBjbGFzcz0ibGFiZWwiPjx0ZXh0IHN0eWxlPSIiPjx0c3BhbiBjbGFzcz0idGl0bGUtcm93IiB4PSIwIiBkeT0iMWVtIiB4bWw6c3BhY2U9InByZXNlcnZlIj48L3RzcGFuPjwvdGV4dD48dGV4dCB0cmFuc2Zvcm09InRyYW5zbGF0ZSggLTgzLjM1OTM3NSwgLTIxLjUpIiBjbGFzcz0iY2xhc3NUaXRsZSIgc3R5bGU9IiI+PHRzcGFuIGNsYXNzPSJ0aXRsZS1yb3ciIHg9IjAiIGR5PSIxZW0iIHhtbDpzcGFjZT0icHJlc2VydmUiPklEb3dubG9hZEZpbGVVc2VDYXNlPC90c3Bhbj48L3RleHQ+PC9nPjwvZz48ZyB0cmFuc2Zvcm09InRyYW5zbGF0ZSgzNTguODM5ODQzNzUsIDI3NikiIGlkPSJjbGFzc2lkLURvd25sb2FkRmlsZVVzZUNhc2UtNSIgY2xhc3M9Im5vZGUgZGVmYXVsdCI+PHJlY3QgaGVpZ2h0PSI1OCIgd2lkdGg9IjE3Ny4yNjU2MjUiIHk9Ii0yOSIgeD0iLTg4LjYzMjgxMjUiIGNsYXNzPSJvdXRlciB0aXRsZS1zdGF0ZSI+PC9yZWN0PjxsaW5lIHkyPSIyIiB5MT0iMiIgeDI9Ijg4LjYzMjgxMjUiIHgxPSItODguNjMyODEyNSIgY2xhc3M9ImRpdmlkZXIiPjwvbGluZT48bGluZSB5Mj0iMTgiIHkxPSIxOCIgeDI9Ijg4LjYzMjgxMjUiIHgxPSItODguNjMyODEyNSIgY2xhc3M9ImRpdmlkZXIiPjwvbGluZT48ZyBjbGFzcz0ibGFiZWwiPjx0ZXh0IHN0eWxlPSIiPjx0c3BhbiBjbGFzcz0idGl0bGUtcm93IiB4PSIwIiBkeT0iMWVtIiB4bWw6c3BhY2U9InByZXNlcnZlIj48L3RzcGFuPjwvdGV4dD48dGV4dCB0cmFuc2Zvcm09InRyYW5zbGF0ZSggLTgxLjEzMjgxMjUsIC0yMS41KSIgY2xhc3M9ImNsYXNzVGl0bGUiIHN0eWxlPSIiPjx0c3BhbiBjbGFzcz0idGl0bGUtcm93IiB4PSIwIiBkeT0iMWVtIiB4bWw6c3BhY2U9InByZXNlcnZlIj5Eb3dubG9hZEZpbGVVc2VDYXNlPC90c3Bhbj48L3RleHQ+PC9nPjwvZz48ZyB0cmFuc2Zvcm09InRyYW5zbGF0ZSg2MTMuMDA1ODU5Mzc1LCA0OC41KSIgaWQ9ImNsYXNzaWQtRG93bmxvYWRGaWxlLTYiIGNsYXNzPSJub2RlIGRlZmF1bHQiPjxyZWN0IGhlaWdodD0iODEiIHdpZHRoPSIxNDcuNzUiIHk9Ii00MC41IiB4PSItNzMuODc1IiBjbGFzcz0ib3V0ZXIgdGl0bGUtc3RhdGUiPjwvcmVjdD48bGluZSB5Mj0iMTMuNSIgeTE9IjEzLjUiIHgyPSI3My44NzUiIHgxPSItNzMuODc1IiBjbGFzcz0iZGl2aWRlciI+PC9saW5lPjxsaW5lIHkyPSIyOS41IiB5MT0iMjkuNSIgeDI9IjczLjg3NSIgeDE9Ii03My44NzUiIGNsYXNzPSJkaXZpZGVyIj48L2xpbmU+PGcgY2xhc3M9ImxhYmVsIj48dGV4dCB0cmFuc2Zvcm09InRyYW5zbGF0ZSggLTY2LjM3NSwgLTMzKSIgc3R5bGU9IiI+PHRzcGFuIGNsYXNzPSJ0aXRsZS1yb3ciIHg9IjAiIGR5PSIxZW0iIHhtbDpzcGFjZT0icHJlc2VydmUiPsKrQXp1cmUgRnVuY3Rpb24mZ3Q7wrs8L3RzcGFuPjwvdGV4dD48dGV4dCB0cmFuc2Zvcm09InRyYW5zbGF0ZSggLTUwLjQ2ODc1LCAtMTApIiBjbGFzcz0iY2xhc3NUaXRsZSIgc3R5bGU9IiI+PHRzcGFuIGNsYXNzPSJ0aXRsZS1yb3ciIHg9IjAiIGR5PSIxZW0iIHhtbDpzcGFjZT0icHJlc2VydmUiPkRvd25sb2FkRmlsZTwvdHNwYW4+PC90ZXh0PjwvZz48L2c+PGcgdHJhbnNmb3JtPSJ0cmFuc2xhdGUoMjI5LjM5NjQ4NDM3NSwgMzg0KSIgaWQ9ImNsYXNzaWQtSU1hbmFnZWRGaWxlUmVwb3NpdG9yeS03IiBjbGFzcz0ibm9kZSBkZWZhdWx0Ij48cmVjdCBoZWlnaHQ9IjU4IiB3aWR0aD0iMTkyLjY0ODQzNzUiIHk9Ii0yOSIgeD0iLTk2LjMyNDIxODc1IiBjbGFzcz0ib3V0ZXIgdGl0bGUtc3RhdGUiPjwvcmVjdD48bGluZSB5Mj0iMiIgeTE9IjIiIHgyPSI5Ni4zMjQyMTg3NSIgeDE9Ii05Ni4zMjQyMTg3NSIgY2xhc3M9ImRpdmlkZXIiPjwvbGluZT48bGluZSB5Mj0iMTgiIHkxPSIxOCIgeDI9Ijk2LjMyNDIxODc1IiB4MT0iLTk2LjMyNDIxODc1IiBjbGFzcz0iZGl2aWRlciI+PC9saW5lPjxnIGNsYXNzPSJsYWJlbCI+PHRleHQgc3R5bGU9IiI+PHRzcGFuIGNsYXNzPSJ0aXRsZS1yb3ciIHg9IjAiIGR5PSIxZW0iIHhtbDpzcGFjZT0icHJlc2VydmUiPjwvdHNwYW4+PC90ZXh0Pjx0ZXh0IHRyYW5zZm9ybT0idHJhbnNsYXRlKCAtODguODI0MjE4NzUsIC0yMS41KSIgY2xhc3M9ImNsYXNzVGl0bGUiIHN0eWxlPSIiPjx0c3BhbiBjbGFzcz0idGl0bGUtcm93IiB4PSIwIiBkeT0iMWVtIiB4bWw6c3BhY2U9InByZXNlcnZlIj5JTWFuYWdlZEZpbGVSZXBvc2l0b3J5PC90c3Bhbj48L3RleHQ+PC9nPjwvZz48ZyB0cmFuc2Zvcm09InRyYW5zbGF0ZSg0OTguMjgzMjAzMTI1LCAzODQpIiBpZD0iY2xhc3NpZC1JQmxvYlJlcG9zaXRvcnktOCIgY2xhc3M9Im5vZGUgZGVmYXVsdCI+PHJlY3QgaGVpZ2h0PSI1OCIgd2lkdGg9IjEzMi4yOTY4NzUiIHk9Ii0yOSIgeD0iLTY2LjE0ODQzNzUiIGNsYXNzPSJvdXRlciB0aXRsZS1zdGF0ZSI+PC9yZWN0PjxsaW5lIHkyPSIyIiB5MT0iMiIgeDI9IjY2LjE0ODQzNzUiIHgxPSItNjYuMTQ4NDM3NSIgY2xhc3M9ImRpdmlkZXIiPjwvbGluZT48bGluZSB5Mj0iMTgiIHkxPSIxOCIgeDI9IjY2LjE0ODQzNzUiIHgxPSItNjYuMTQ4NDM3NSIgY2xhc3M9ImRpdmlkZXIiPjwvbGluZT48ZyBjbGFzcz0ibGFiZWwiPjx0ZXh0IHN0eWxlPSIiPjx0c3BhbiBjbGFzcz0idGl0bGUtcm93IiB4PSIwIiBkeT0iMWVtIiB4bWw6c3BhY2U9InByZXNlcnZlIj48L3RzcGFuPjwvdGV4dD48dGV4dCB0cmFuc2Zvcm09InRyYW5zbGF0ZSggLTU4LjY0ODQzNzUsIC0yMS41KSIgY2xhc3M9ImNsYXNzVGl0bGUiIHN0eWxlPSIiPjx0c3BhbiBjbGFzcz0idGl0bGUtcm93IiB4PSIwIiBkeT0iMWVtIiB4bWw6c3BhY2U9InByZXNlcnZlIj5JQmxvYlJlcG9zaXRvcnk8L3RzcGFuPjwvdGV4dD48L2c+PC9nPjxnIHRyYW5zZm9ybT0idHJhbnNsYXRlKDc5MC43NTU4NTkzNzUsIDE2OCkiIGlkPSJjbGFzc2lkLUlVcGxvYWRGaWxlVXNlQ2FzZS05IiBjbGFzcz0ibm9kZSBkZWZhdWx0Ij48cmVjdCBoZWlnaHQ9IjU4IiB3aWR0aD0iMTYwLjU2MjUiIHk9Ii0yOSIgeD0iLTgwLjI4MTI1IiBjbGFzcz0ib3V0ZXIgdGl0bGUtc3RhdGUiPjwvcmVjdD48bGluZSB5Mj0iMiIgeTE9IjIiIHgyPSI4MC4yODEyNSIgeDE9Ii04MC4yODEyNSIgY2xhc3M9ImRpdmlkZXIiPjwvbGluZT48bGluZSB5Mj0iMTgiIHkxPSIxOCIgeDI9IjgwLjI4MTI1IiB4MT0iLTgwLjI4MTI1IiBjbGFzcz0iZGl2aWRlciI+PC9saW5lPjxnIGNsYXNzPSJsYWJlbCI+PHRleHQgc3R5bGU9IiI+PHRzcGFuIGNsYXNzPSJ0aXRsZS1yb3ciIHg9IjAiIGR5PSIxZW0iIHhtbDpzcGFjZT0icHJlc2VydmUiPjwvdHNwYW4+PC90ZXh0Pjx0ZXh0IHRyYW5zZm9ybT0idHJhbnNsYXRlKCAtNzIuNzgxMjUsIC0yMS41KSIgY2xhc3M9ImNsYXNzVGl0bGUiIHN0eWxlPSIiPjx0c3BhbiBjbGFzcz0idGl0bGUtcm93IiB4PSIwIiBkeT0iMWVtIiB4bWw6c3BhY2U9InByZXNlcnZlIj5JVXBsb2FkRmlsZVVzZUNhc2U8L3RzcGFuPjwvdGV4dD48L2c+PC9nPjxnIHRyYW5zZm9ybT0idHJhbnNsYXRlKDc5MC43NTU4NTkzNzUsIDI3NikiIGlkPSJjbGFzc2lkLVVwbG9hZEZpbGVVc2VDYXNlLTEwIiBjbGFzcz0ibm9kZSBkZWZhdWx0Ij48cmVjdCBoZWlnaHQ9IjU4IiB3aWR0aD0iMTU2LjEwOTM3NSIgeT0iLTI5IiB4PSItNzguMDU0Njg3NSIgY2xhc3M9Im91dGVyIHRpdGxlLXN0YXRlIj48L3JlY3Q+PGxpbmUgeTI9IjIiIHkxPSIyIiB4Mj0iNzguMDU0Njg3NSIgeDE9Ii03OC4wNTQ2ODc1IiBjbGFzcz0iZGl2aWRlciI+PC9saW5lPjxsaW5lIHkyPSIxOCIgeTE9IjE4IiB4Mj0iNzguMDU0Njg3NSIgeDE9Ii03OC4wNTQ2ODc1IiBjbGFzcz0iZGl2aWRlciI+PC9saW5lPjxnIGNsYXNzPSJsYWJlbCI+PHRleHQgc3R5bGU9IiI+PHRzcGFuIGNsYXNzPSJ0aXRsZS1yb3ciIHg9IjAiIGR5PSIxZW0iIHhtbDpzcGFjZT0icHJlc2VydmUiPjwvdHNwYW4+PC90ZXh0Pjx0ZXh0IHRyYW5zZm9ybT0idHJhbnNsYXRlKCAtNzAuNTU0Njg3NSwgLTIxLjUpIiBjbGFzcz0iY2xhc3NUaXRsZSIgc3R5bGU9IiI+PHRzcGFuIGNsYXNzPSJ0aXRsZS1yb3ciIHg9IjAiIGR5PSIxZW0iIHhtbDpzcGFjZT0icHJlc2VydmUiPlVwbG9hZEZpbGVVc2VDYXNlPC90c3Bhbj48L3RleHQ+PC9nPjwvZz48ZyB0cmFuc2Zvcm09InRyYW5zbGF0ZSg4MTAuNzU1ODU5Mzc1LCA0OC41KSIgaWQ9ImNsYXNzaWQtVXBsb2FkRmlsZS0xMSIgY2xhc3M9Im5vZGUgZGVmYXVsdCI+PHJlY3QgaGVpZ2h0PSI4MSIgd2lkdGg9IjE0Ny43NSIgeT0iLTQwLjUiIHg9Ii03My44NzUiIGNsYXNzPSJvdXRlciB0aXRsZS1zdGF0ZSI+PC9yZWN0PjxsaW5lIHkyPSIxMy41IiB5MT0iMTMuNSIgeDI9IjczLjg3NSIgeDE9Ii03My44NzUiIGNsYXNzPSJkaXZpZGVyIj48L2xpbmU+PGxpbmUgeTI9IjI5LjUiIHkxPSIyOS41IiB4Mj0iNzMuODc1IiB4MT0iLTczLjg3NSIgY2xhc3M9ImRpdmlkZXIiPjwvbGluZT48ZyBjbGFzcz0ibGFiZWwiPjx0ZXh0IHRyYW5zZm9ybT0idHJhbnNsYXRlKCAtNjYuMzc1LCAtMzMpIiBzdHlsZT0iIj48dHNwYW4gY2xhc3M9InRpdGxlLXJvdyIgeD0iMCIgZHk9IjFlbSIgeG1sOnNwYWNlPSJwcmVzZXJ2ZSI+wqtBenVyZSBGdW5jdGlvbiZndDvCuzwvdHNwYW4+PC90ZXh0Pjx0ZXh0IHRyYW5zZm9ybT0idHJhbnNsYXRlKCAtMzkuODkwNjI1LCAtMTApIiBjbGFzcz0iY2xhc3NUaXRsZSIgc3R5bGU9IiI+PHRzcGFuIGNsYXNzPSJ0aXRsZS1yb3ciIHg9IjAiIGR5PSIxZW0iIHhtbDpzcGFjZT0icHJlc2VydmUiPlVwbG9hZEZpbGU8L3RzcGFuPjwvdGV4dD48L2c+PC9nPjxnIHRyYW5zZm9ybT0idHJhbnNsYXRlKDk3My4xMTMyODEyNSwgMzg0KSIgaWQ9ImNsYXNzaWQtSVVzZXJSZXBvc2l0b3J5LTEyIiBjbGFzcz0ibm9kZSBkZWZhdWx0Ij48cmVjdCBoZWlnaHQ9IjU4IiB3aWR0aD0iMTMzLjQ2MDkzNzUiIHk9Ii0yOSIgeD0iLTY2LjczMDQ2ODc1IiBjbGFzcz0ib3V0ZXIgdGl0bGUtc3RhdGUiPjwvcmVjdD48bGluZSB5Mj0iMiIgeTE9IjIiIHgyPSI2Ni43MzA0Njg3NSIgeDE9Ii02Ni43MzA0Njg3NSIgY2xhc3M9ImRpdmlkZXIiPjwvbGluZT48bGluZSB5Mj0iMTgiIHkxPSIxOCIgeDI9IjY2LjczMDQ2ODc1IiB4MT0iLTY2LjczMDQ2ODc1IiBjbGFzcz0iZGl2aWRlciI+PC9saW5lPjxnIGNsYXNzPSJsYWJlbCI+PHRleHQgc3R5bGU9IiI+PHRzcGFuIGNsYXNzPSJ0aXRsZS1yb3ciIHg9IjAiIGR5PSIxZW0iIHhtbDpzcGFjZT0icHJlc2VydmUiPjwvdHNwYW4+PC90ZXh0Pjx0ZXh0IHRyYW5zZm9ybT0idHJhbnNsYXRlKCAtNTkuMjMwNDY4NzUsIC0yMS41KSIgY2xhc3M9ImNsYXNzVGl0bGUiIHN0eWxlPSIiPjx0c3BhbiBjbGFzcz0idGl0bGUtcm93IiB4PSIwIiBkeT0iMWVtIiB4bWw6c3BhY2U9InByZXNlcnZlIj5JVXNlclJlcG9zaXRvcnk8L3RzcGFuPjwvdGV4dD48L2c+PC9nPjxnIHRyYW5zZm9ybT0idHJhbnNsYXRlKDM1OC41MjUzOTA2MjUsIDQ5MikiIGlkPSJjbGFzc2lkLU1hbmFnZWRGaWxlUmVwb3NpdG9yeS0xMyIgY2xhc3M9Im5vZGUgZGVmYXVsdCI+PHJlY3QgaGVpZ2h0PSI1OCIgd2lkdGg9IjE4OS4xOTUzMTI1IiB5PSItMjkiIHg9Ii05NC41OTc2NTYyNSIgY2xhc3M9Im91dGVyIHRpdGxlLXN0YXRlIj48L3JlY3Q+PGxpbmUgeTI9IjIiIHkxPSIyIiB4Mj0iOTQuNTk3NjU2MjUiIHgxPSItOTQuNTk3NjU2MjUiIGNsYXNzPSJkaXZpZGVyIj48L2xpbmU+PGxpbmUgeTI9IjE4IiB5MT0iMTgiIHgyPSI5NC41OTc2NTYyNSIgeDE9Ii05NC41OTc2NTYyNSIgY2xhc3M9ImRpdmlkZXIiPjwvbGluZT48ZyBjbGFzcz0ibGFiZWwiPjx0ZXh0IHN0eWxlPSIiPjx0c3BhbiBjbGFzcz0idGl0bGUtcm93IiB4PSIwIiBkeT0iMWVtIiB4bWw6c3BhY2U9InByZXNlcnZlIj48L3RzcGFuPjwvdGV4dD48dGV4dCB0cmFuc2Zvcm09InRyYW5zbGF0ZSggLTg3LjA5NzY1NjI1LCAtMjEuNSkiIGNsYXNzPSJjbGFzc1RpdGxlIiBzdHlsZT0iIj48dHNwYW4gY2xhc3M9InRpdGxlLXJvdyIgeD0iMCIgZHk9IjFlbSIgeG1sOnNwYWNlPSJwcmVzZXJ2ZSI+TWFuYWdlZEZpbGVSZXBvc2l0b3J5PC90c3Bhbj48L3RleHQ+PC9nPjwvZz48ZyB0cmFuc2Zvcm09InRyYW5zbGF0ZSg4NDYuMjA1MDc4MTI1LCA0OTIpIiBpZD0iY2xhc3NpZC1Vc2VyUmVwb3NpdG9yeS0xNCIgY2xhc3M9Im5vZGUgZGVmYXVsdCI+PHJlY3QgaGVpZ2h0PSI1OCIgd2lkdGg9IjEyOS4wMDc4MTI1IiB5PSItMjkiIHg9Ii02NC41MDM5MDYyNSIgY2xhc3M9Im91dGVyIHRpdGxlLXN0YXRlIj48L3JlY3Q+PGxpbmUgeTI9IjIiIHkxPSIyIiB4Mj0iNjQuNTAzOTA2MjUiIHgxPSItNjQuNTAzOTA2MjUiIGNsYXNzPSJkaXZpZGVyIj48L2xpbmU+PGxpbmUgeTI9IjE4IiB5MT0iMTgiIHgyPSI2NC41MDM5MDYyNSIgeDE9Ii02NC41MDM5MDYyNSIgY2xhc3M9ImRpdmlkZXIiPjwvbGluZT48ZyBjbGFzcz0ibGFiZWwiPjx0ZXh0IHN0eWxlPSIiPjx0c3BhbiBjbGFzcz0idGl0bGUtcm93IiB4PSIwIiBkeT0iMWVtIiB4bWw6c3BhY2U9InByZXNlcnZlIj48L3RzcGFuPjwvdGV4dD48dGV4dCB0cmFuc2Zvcm09InRyYW5zbGF0ZSggLTU3LjAwMzkwNjI1LCAtMjEuNSkiIGNsYXNzPSJjbGFzc1RpdGxlIiBzdHlsZT0iIj48dHNwYW4gY2xhc3M9InRpdGxlLXJvdyIgeD0iMCIgZHk9IjFlbSIgeG1sOnNwYWNlPSJwcmVzZXJ2ZSI+VXNlclJlcG9zaXRvcnk8L3RzcGFuPjwvdGV4dD48L2c+PC9nPjxnIHRyYW5zZm9ybT0idHJhbnNsYXRlKDYxNy40MTIxMDkzNzUsIDQ5MikiIGlkPSJjbGFzc2lkLUF6dXJlQmxvYlN0b3JhZ2VSZXBvc2l0b3J5LTE1IiBjbGFzcz0ibm9kZSBkZWZhdWx0Ij48cmVjdCBoZWlnaHQ9IjU4IiB3aWR0aD0iMjI4LjU3ODEyNSIgeT0iLTI5IiB4PSItMTE0LjI4OTA2MjUiIGNsYXNzPSJvdXRlciB0aXRsZS1zdGF0ZSI+PC9yZWN0PjxsaW5lIHkyPSIyIiB5MT0iMiIgeDI9IjExNC4yODkwNjI1IiB4MT0iLTExNC4yODkwNjI1IiBjbGFzcz0iZGl2aWRlciI+PC9saW5lPjxsaW5lIHkyPSIxOCIgeTE9IjE4IiB4Mj0iMTE0LjI4OTA2MjUiIHgxPSItMTE0LjI4OTA2MjUiIGNsYXNzPSJkaXZpZGVyIj48L2xpbmU+PGcgY2xhc3M9ImxhYmVsIj48dGV4dCBzdHlsZT0iIj48dHNwYW4gY2xhc3M9InRpdGxlLXJvdyIgeD0iMCIgZHk9IjFlbSIgeG1sOnNwYWNlPSJwcmVzZXJ2ZSI+PC90c3Bhbj48L3RleHQ+PHRleHQgdHJhbnNmb3JtPSJ0cmFuc2xhdGUoIC0xMDYuNzg5MDYyNSwgLTIxLjUpIiBjbGFzcz0iY2xhc3NUaXRsZSIgc3R5bGU9IiI+PHRzcGFuIGNsYXNzPSJ0aXRsZS1yb3ciIHg9IjAiIGR5PSIxZW0iIHhtbDpzcGFjZT0icHJlc2VydmUiPkF6dXJlQmxvYlN0b3JhZ2VSZXBvc2l0b3J5PC90c3Bhbj48L3RleHQ+PC9nPjwvZz48ZyB0cmFuc2Zvcm09InRyYW5zbGF0ZSg3MzkuMjk2ODc1LCAzODQpIiBpZD0iY2xhc3NpZC1CYXNlUmVwb3NpdG9yeS0xNiIgY2xhc3M9Im5vZGUgZGVmYXVsdCI+PHJlY3QgaGVpZ2h0PSI1OCIgd2lkdGg9IjIzNC4xNzE4NzUiIHk9Ii0yOSIgeD0iLTExNy4wODU5Mzc1IiBjbGFzcz0ib3V0ZXIgdGl0bGUtc3RhdGUiPjwvcmVjdD48bGluZSB5Mj0iMiIgeTE9IjIiIHgyPSIxMTcuMDg1OTM3NSIgeDE9Ii0xMTcuMDg1OTM3NSIgY2xhc3M9ImRpdmlkZXIiPjwvbGluZT48bGluZSB5Mj0iMTgiIHkxPSIxOCIgeDI9IjExNy4wODU5Mzc1IiB4MT0iLTExNy4wODU5Mzc1IiBjbGFzcz0iZGl2aWRlciI+PC9saW5lPjxnIGNsYXNzPSJsYWJlbCI+PHRleHQgc3R5bGU9IiI+PHRzcGFuIGNsYXNzPSJ0aXRsZS1yb3ciIHg9IjAiIGR5PSIxZW0iIHhtbDpzcGFjZT0icHJlc2VydmUiPjwvdHNwYW4+PC90ZXh0Pjx0ZXh0IHRyYW5zZm9ybT0idHJhbnNsYXRlKCAtMTA5LjU4NTkzNzUsIC0yMS41KSIgY2xhc3M9ImNsYXNzVGl0bGUiIHN0eWxlPSIiPjx0c3BhbiBjbGFzcz0idGl0bGUtcm93IiB4PSIwIiBkeT0iMWVtIiB4bWw6c3BhY2U9InByZXNlcnZlIj5CYXNlUmVwb3NpdG9yeSZsdDtURW50aXR5LCBUSWQmZ3Q7PC90c3Bhbj48L3RleHQ+PC9nPjwvZz48L2c+PC9nPjwvZz48L3N2Zz4=;" parent="1" vertex="1">
            <mxGeometry x="-210" y="30" width="1020" height="529" as="geometry" />
          </mxCell>
        </UserObject>
      </root>
    </mxGraphModel>
  </diagram>
</mxfile>
